<mxfile host="app.diagrams.net" modified="2024-06-13T14:26:31.413Z" agent="Mozilla/5.0 (Windows NT 10.0; Win64; x64) AppleWebKit/537.36 (KHTML, like Gecko) Chrome/126.0.0.0 Safari/537.36" etag="AxhE4tUS0AVcR_JYF_mH" version="24.5.4" type="github">
  <diagram name="第 1 页" id="DOJgwss9DREXDv6fnYTB">
    <mxGraphModel dx="3559" dy="2057" grid="1" gridSize="10" guides="1" tooltips="1" connect="1" arrows="1" fold="1" page="1" pageScale="1" pageWidth="1169" pageHeight="827" math="1" shadow="0">
      <root>
        <mxCell id="0" />
        <mxCell id="1" parent="0" />
        <mxCell id="8Qk8cf90XvfW-UXVv_MJ-5" value="" style="rounded=1;whiteSpace=wrap;html=1;dashed=1;strokeColor=default;dashPattern=8 8;" parent="1" vertex="1">
          <mxGeometry x="851" y="125.25" width="409" height="344.75" as="geometry" />
        </mxCell>
        <mxCell id="8Qk8cf90XvfW-UXVv_MJ-1" value="" style="rounded=1;whiteSpace=wrap;html=1;dashed=1;dashPattern=8 8;" parent="1" vertex="1">
          <mxGeometry x="10" y="150" width="760" height="370" as="geometry" />
        </mxCell>
        <mxCell id="01VjT6T3kN2u5HqJVLsv-423" value="" style="rounded=1;whiteSpace=wrap;html=1;labelBackgroundColor=none;fillStyle=auto;fillColor=#fff2cc;strokeColor=#d6b656;align=center;fontSize=35;fontStyle=1" parent="1" vertex="1">
          <mxGeometry x="225" y="-150" width="365" height="282.5" as="geometry" />
        </mxCell>
        <mxCell id="01VjT6T3kN2u5HqJVLsv-1" value="" style="shape=image;imageAspect=0;aspect=fixed;verticalLabelPosition=bottom;verticalAlign=top;image=data:image/png,iVBORw0KGgoAAAANSUhEUgAAAP0AAAD+CAIAAAB+w5QFAAAgAElEQVR4Ae29CbQlV3UevO/4xn5Tz1K35gkhBmExxIBi+H8TD1lOCMuwbOMVsCGGILVwsAlg7D9xjP3HTtYChHFsEf8KGAyWwVMwjo0xk0AIYw2A0DyhnvvN9w13/r+9z1zDvfe9e99TP3VVv646Z89n1z6ndp06VTf3mtvup2zLPHCOeSB/jrU3a27mAfZAFvdZHJyLHsji/lw861mbs7jPYuBc9EAW9+fiWc/anMV9FgPnogeyuD8Xz3rW5izusxg4Fz2Qxf25eNazNmdxn8XAueiBLO7PxbOetTmL+ywGzkUPZHF/Lp71rM1Z3GcxcC56IIv7c/GsZ23O4j6LgXPRA1ncn4tnPWtzFvdZDJyLHsji/lw861mbs7jPYuBc9EAW9+fiWc/aXMxckHlgIB4YKuRKhVyOqE3UbGLHBWwo1luqKPWzY5fF/dlxHnamFflcrpCjYp4my7R/V2m0lBsu5EZKudJQrtFsray31uvttXr7WKW1VmvXWtRoU6t9VvSBLO53ZsSdBVYj6PeO0Fgpd2A09wP78wenhi+YLg0XykRD8lcjqqy21mfX2t850Ti52DpeaR1baZ1ZOyuG/yzuz4II2mkmIJ2ZKNKFk7lD47nr9heuOVwgQrgfCNsByMxonkbH6PClVaI1our9x2pfPtr4zmxzqUnVRrvRaGMLubaplsX9Njn6GaNmKJ87b6z4gj2lf3FJfWZ6mgh/XTd1BaCrzsPf6rHTJz87W35ktnFmubFQaXRl3gqCLO63wqvPWJnD+dwF48XrL9/1Ixfv3uxHx0bP23vxm/aufe545a6j6w+32surze33Vxb32+/zHakxl8uV87kLJ4r//KLxV128t8825Gjkxw6OlApnKmuNWq1VReRvb8KTxX2fZ/CcYEfQjxYLB8cLLz5/5FWX9hv01mU/vG/XE7M1audOLNFyFYXty/Wz51b2LGSFVA+UC/l9o8MvPjjyE1ftTyXaDGLoTc/ae+X+oamR8lChQDz7v01bFvfb5OgdrWa8nL9yb/HVV29FtJRefVnx8HhhGE8BtnHbVmXb2K5M1cA8UMjn9u/K/8CFCJWBZTi+cZOFmWv25qeGcvoBr4/bsnIW91vm2meKYDyZumJP+drpyS1rUOH6S8b3jxUK2xiM26hqy9yWCd5SD0wO5y+bUU+mtkrPMI1cMVOeKG9fNG6fpq3yWSZ3iz0wNZy/bv/wFiuhl54/uiuL+632cia/Rw+MFPMHxopFmuiRftNke3eN7RstEW3TlE423m/6TJ0TjOOl3Hnj2xOOmCotbttMZhb350T4brqRxXzuANagbcs2M1Is5XPbM4ufxf22nNIdq2RqKP+CA+PbY/6h8eJePBbelkwni/vtOac7VQuicK6GlfTbsWGwz2f5/XZ4OtPRzQN4mFRbwdL57djq7VqzvU3vY2Xj/Xac0Z2ro9ZsURtL5LdjxRjivsVxvx26srjfuTG5HZYv1drLte0IRHStegsvoW+Pruz3yrcjeHawDoThIsd9fevb0Dyx0ppf36bAz8b7rT+hO1kDwhCxSLS+9Y1Ym19ryfdHtl7VZl8V2w7LMh1ngwdWGu1jK3gbCi+Gb+3WpsrpVaQ5WZ6ztX7OpPfkgUq9fXyltYiXobZ4u+fo2tza9r1om+U5W3w+d7740yute05u9ZB/5q5TSO63z1lZ3G+fr3eoJsznPDyPuK9smf2V07WVJ5aosg03z6YNWdwbT2THFA+s1OnR+dZXjq4SzaeQ9Amev/9k88zqtn5DKov7Ps/ZM5+90WqfqLTuOYEhf2FrWpu78ylarG7THa1qQhb3W3Mqn1lSV+ptDPm33Y9WDXzIb37oH1sPzskndLbRaVncb6Ozd6wqPEk9s9r85rHmXzyEIX+Aod++7XsnHltoLNda27Qux5yCLO6NJ7JjBw+0+XPexyvtO4+1vvTUEhH++t8an33s5LeOV09UGliP1r+4DUnYplcKNmRTRnwWegB3net1OrrU/IdH2832/CsPI93v5YuwaU1Z/cvHlr7++BoE4sPIaURbB8/ifut8+0yTjNCvVOmJxfbfP9Karaz+5LMw335w441cpOaZP/pO/t7TTTwRW3s6gh42Z3G/8RN3bnOs1NpPLTVXa43vV0rPPzj//IMjM4VevraAuwI8AWh+/hHcJ7QeWWjiSXCj9bS5Mov7p831O1QxbkBX661as3asUn1yofbNp1bOmyhdtWfohdNVKuEdwTH5s41DOrREzfpdJysPzLVwrXhqCQsfnobExhqkCrnXyOxUBJpVMw908wC/BosfcsNnLTE3gp+1unQqP1nO7R7P750olAtYSZ/H170XVpqnlptIZh6Zq6808As/hKcB234Tm9CUbLxPcEoG6sEDPGbXm+06BnQiPNNdPd1CByjmCF8DKZZyQONnfNYb/HNuKFf5TaoepG4XSRb32+XpZ7qeNTOML+K1RF6yfzaFecz5WdzHXJIB+vXAWR3xqnHZc6t+T3LGvxM9kMX9Tjxrmc39eiCL+349mPHvRA9kcb8Tz1pmc78eyOK+Xw9m/DvRA1nc78SzltncrweyuO/Xgxn/TvRAFvc78axlNvfrgSzu+/Vgxr8TPZDF/U48a5nN/Xogi/t+PZjx70QPZHG/E89aZnO/Hsjivl8PZvw70QNZ3O/Es5bZ3K8Hsrjv14MZ/070QBb3O/GsZTb364Es7vv1YMa/Ez2Qxf1OPGuZzf16IIv7fj2Y8e9ED2RxvxPPWmZzvx7I4r5fD2b8O9EDWdzvxLOW2dyvB7K479eDGf9O9EAW9zvxrGU29+uBLO779WDGvxM9kMX9Tjxrmc39eiCL+349mPHvRA9kcb8Tz1pmc78eyOK+Xw9m/DvRA1nc78SzltncrweyuO/Xgxn/TvRAFvc78axlNvfrgSzu+/Vgxr8TPZDF/U48a5nN/Xogi/t+PZjx70QPZHG/E89aZnO/Hii+efm/QYb7JS5TMkdBSsWDsNa2q+sSHxxQaDTEQT1SQ2CPgnOkmleJdGBPL3NiY1wI1dSOCTSmEj1qEQI2OIF5PKouakISBun/jsYBPGKv6HgCoBIgoBCua2ETrbpkAyzaMFtAUHCKkqQ7rGWKgTyAV1T0ISCsWYkpBUNtjiDziilMXcFaRJuKlOMf4OWfG+WtTTktnqECYKRUZCd0EkTCp4gYA7/xQYoKClIWa6BMoyCiRdHovadAIFqLMoYFiBQ+aoGqxADeGChUqqr22iALEgLHron4IECgVQssAwoCBNpurMavKxq00wsbVqTJPGqG2t7JcAYIMBTIKMBZiVGkqKSJAjJwloiNiYXE2KDpDZaPrC3CJnVL2lYODGksliX44rgeBajWBAJCfr+mhAXERoNCadcEQgMBIa9m6nrQInL8O7uymQPEcZGlimQ5AxrJAEHmrFV6GGUuTSQ0qmMYchyxMQ3/R9HJE3Eu3jQeBKYkrIpbiTAAI8SjBI/ZmN0ZBCgqfKZM/9YQK0T4mIYLZicC0FapC4Uji8IMb0CmdDqQsYmZPQbRY+JIUzNM4MoaI0O4wl5hCVM7hlAYJ7sLnxKvJetKTLSgtb2aVIGS+gkwgVDtSmFQiLCVITHXIm4VzlCooQh5NWGqhJjgYo4bwMKUSVocH/T5NqfdjELWDOWNIERNN3Adg+Uo4SKSi/ivDkaB1qngypaY/4TGEZrW4+iApuSAhkyLxsHQWAia7cFQDOqWzJitAPHOoES7oNKMxrlODpdEYRgCKV0igZhNZAEihKUFjWSslh+iDLlnesDIknjj8ym0nn2GV1FoMj6o63RogSLSsiOc+qrCnIosuo/QJxAqCs+4iIi4BCEwUWyoebxXDTXjI1ukxGoR5gAEF7XFzKSKGs8VjndNxgpMNwBCEwmNyGeAJ46ptR0awRBNos8EIGaL6FZgMcdTr7g1i4MLmUDhDHcmjGg+MrFHxgBpgBPCdaFwZOBD+x8Zmb1kbbcvTDhBHFCC1kjwabWaCKkiVnYF1FJRljkWLZfBgmIih1VQqRsnhljD5NsXsLM8vWkJUQuAtZoNqRwtNL3DgC7QZlmsIEbbeApoLUlCISIH+b1nI58cJrBilRFb3Q2gFfYbpbopDFFFg4BhDORDvCcAKE0L2if8Woj1haHQshRcEXFZOgMfFULtUfFkaYwAhcyIuuiGY7kPnSeGOIFGgteTjGilI6FLiOioCGNTm000IowtShRqjBF2n0IFqGPSBJop4A3ZlKKUHqI0aQY+S0aBOfqy/LIOe2VnjNia47O4skUzo6fUUURLMQ1EeeQ54NWy0Af8P+ZnpLfZ6BQE4wQiBxHlAIpCC2RBGm+kCa8oEJwWpbBasCcRcphM6I0EjZaDZfcL1izLYbBagan6eFv2XaFUO1RQeu4Np6DpB2/45hO/e96P3/DtfI6Gb3gAFD95w4O8v/EhRS2+RtEq1QUDV1Rur85NIn0aC5iBggExLhYrKN7riip4+wTevBKliQIJHqNDSwkG2L+YJRDobXlnlRLu4ToU2SqtIq8LSYoC4wNxn//oLwTdg/uGGt8DMLpyrNcIKZOHlD5AowylJTQs5qgQWkcI1DyeTQ7PJVczlEaYjwuovIoUTT161AL54JpviAzy1W+9F8PH/bS8h0rjVBymAmGWjM1SnRR0uU//7hWG3NgbFaPgBmqOiiusCcyAnF1WgcdjqCI4TeG5NJHAmApksiCGJmASQCw/BcwoDxdQBRUhTN3FSGOAgBV9zAyicqKk4nUMBQRLZAhhIXIpcL1X9S2DcGim0FSGRHXNQKbSYCm1CaKDRWpOH69hTOljNYtPqYUxoTWaWYwBggcgujHN1FtOgPC6t/KInnvrPSC54K23Y3/pW78s+y/82e897z5auoqm5mkJWeMCLYqSMmxusjZsrde87cFL3/aPoH/N2x6Dx2ULbZbRS2NihzQWmGRQMR4BCDaqiBsiJwTYruxJlw4rkHUoIZ3lKOOEksdmY4BX0FcVQIKtd+EBm6iwF5xkjV/42FvQ3YLOYSrmKOdO7YQwCe71WE2uqULRIQ41Q6XFa7wcjBpzNCRSD4GGLRj9HAmXXM0QW1jMREcrpZ/4hbsllPFsO3c7zR+kFvQsUStHrYb8tajVovoEFUeosE6F86kwQ4eJqqIBIlpSmBDFqE5/5sPTzoiwxArN/xDjtYAJopvAPIRXBGlYM7weNPCcwbtjF7QlTIsPSxAUPP1pJlp6TRuwWCQKqQifyFGhowHh90A5xXYsdDXhVwOF6lzMpQc0M3AaQQxXSL8fCoMSY8Xq3m8OIDditXSNMeKA9W3QNY1lre6PcdigimF6cwRMrMwwOHXUtJS79t99A5w/8QvfMk6Fa5svpYkatVaoUadGjZp/TcdQfZwWFqg6R9UTVF2j6hLVjtFjkP0onSCqE1Vkf+bP/8clREt//nsz3ujo7FGWc9/yzPVN01xsX5QLEBnVDDnTBJvRmMCo9QbkYUWkqaE3UbUH3MDwDx0iU0zSrU41zxqkzDDNMWCx0FQ6HPWdAPvqH/4I4z1vrsO4EoPDmpDKLoArcIfenjBgaAGhgph8Q6U1OLyUjBHm6FEJKIQb5qgxjopLrkavePMdY1Rc4rF8uEb5EtFf0KlpahV4gG9XqAlJj9Ascpoy5UE5TMU9VECKP0qFQzSziwi9oswZP4S2nqD23f/j5Z6Jxh57FNWefq9o2GIgy8wFxpr/AUIqAW9QcbQCDnFhTWtwHGHJI466OSR0NcNijg7TscTk5n9HwiSkGu8Zowc/0/NM3evM3KscHSNcTWQLretu3HvNFhmiGKy5Hb2hUTwGrcYApnK9WiQzgbBAkirwnuVqUhy9TaCi1VBYLkNlGA+9+XGIuObNX1yj5m107F6a/0c6812a+yc6869p7183Tp2k2ldo7hjVjtIs7mGx1am1SLUKrZ+hKv5mqbqLJh6hJVwEHueMf/okrd/z+9f/q7fcB2X/6i2c68tmbFDu8BvC5XCLAgyvz6V9EjKamhsmNVmChOC6AcaoUpZl5MTYQ7FqbDbKU46efBEbk+m3LiizbQhfY0yK/DTwFz/+VhVn0tvcTgHtXhBScyVUw8E6QElftPxM6/334aqcPDhoiaEax+wUGkIjzNFwydH5RYMQrEdCV//830xS/knKfZNOwrkTVM5RCQP5KJU+OXdsaIL9jdR+7UxueIIuHmdW5CcY1dHrUCjxlaE4TYURKi8T7aXCuEzyHKTiJO2XnIdz/b/8g0ux583XHdQMwhxjtMKudobGHFNok/3syZEiCzH/ozhT9xRZHoMLj0IZJWeSXmGhuCTG3prl5ORs3DuYlLStSZYFegOCWHx6WK9oVDHI/Dcwd0xuihYT06T5Ai2GVuECFEBe3RZbP/fJMSrgD5H6IDWP0hLuSZt8Z9o8SOMPUgXlepXqFc7iy2N0xT5kMhzrGPWxz1MbOQ8gIHszPe8T9AASHtzsFkXgXkmEzqOLic4Q7YEJf/UHl2m7vYM1hmFBJQLwcMlFT6gqClkvtGnujUjUonqg9pSKjGg9EGyQ5ugjk2AKn47x+aWM9Zi4WtiNOQ23gDHYaaSAXSQasAxxHlP0mSQWKhrpzGIrApSndgx20pjA/HfKhVow9jmtb7ZjsWjFoeVqo3RN26BJVU2hjr7xIxiz5ylfp8JuGi1Su0rNIZEOssepUkUnqFJ7nfe8wKNGDz5FuQJdflA3AXgEPYhxJ/A/6d465ZpUqlO7wDBIa13P8zxzMsMD/mVchE3b9BF0GoQSuKJ4n1xwTGZ5fCzKCifAZLIk6QmUnpxEDbFWRKiCqoqIJM2WDEhR6RFZEzyYpQ8LljQdjND60if+feAgj5gFdBIiuCQCB3MlJdd1A60nJAhrQsIg81/zhAfXGX24lhTT52gCXW069cZbMPPSYDz3Ewze2COOAQEcob7WQCFXW2jz/GS9nceNLR7fIzJzdOnFOXQPcKDbgBhjP/Zvpmt/q3XXWD43RiUM+RAwShNIgegjr/nxN31JugaA6m8EzJ/9yJUsIjCLhfqbQ3LJ1SxNFBStM6EH84qdEFa8VxDWVH6PUBeTT1OczpIbVGePGCocQ2MMIhmqx3vpRM4yTctQr3sx1EgRsNsJ2O0ckylZvg4XBK3NkCrDu1wThMcoURzKSDPGBzgtmg+RkTRH+29985NvuAXjNOK5RTkErqJG6HPcr1NjjVpj+dpaE+N2rpkrtNslBG2Lpq7MrXFi00boS3LPt7HDRA/Tqak895F5qoO1SMNr1ED6tO9Nf75Eo22qTRLCHeKhZ5VoFGMQSt7QqfSbRqmjhXG7graFdMr6SCOjJFpCIDNOY9GCsrUE5QkgGzA4jyHaCoprNK5XGM8jSaRJMJZt5IdaLbWajZCqs0xo++gGRq0T4bSbkrVrAD1B6zPNFRVGj2kpI01n4KKB85Fxx/7tLYhRRPIoQ4ZbtIZoxnTBMA0t0/qu4bGTp1cumR79TrvSbMhgj4ht0notN75CzTEelATAoY/C8RW6bGzyb+kokiXcBp+iZonaRSo2qH0ZlY9TbReVJzknkq5D+zg/cv5nCwITjSO9GGCbIxtAzpncwKCRiphpbEkFR4zK0TCloK22GLES5uLMCZdSKn0SwmjZWCcRPXzhNaZIydUs2C9gFojJ1J+PAIhR/CdbjIpZHI11p5YhAjUrDkIa0FilCunEG2onW0qWwBdmhQiW6YKNtTKGNylpXidaYRmHkR6DNO5HiXadojW+f0UC3m6P0tA0lU88unL5YeDrV18wjJmc+jo18ZA2R2Pj7ZWTbdzjrtc4F5LMn/KI7ib9Ft2HYRyia9Se4X0L4/35lF+keoMaRaqvUr1J9RpH/wmkPT/287yUTTbjWG01H2KWG1ocBQmisP1xFpFjZEaoPXFekWWI5xIMEGkOLlxWpycDRYC9zRJJwdqDgpMWKXvcftFQMWuwGUSqQB6egNTKtWJd4xBwmxOhNUSoWIaj4TKLNZvUBG/sE2pHo8j13sgxhjHYwEwhYHDCLJg1Gz6jU44R04xcjDXPp/NaVF6g5XEaQdAP0Wh9mb5PSwtU33tJ4Z5vIbbpzs+tXnvNyC0vuPCC5+ZecvVhPLOtHKf1OVr8Pi08SctnaGGJjhRfUGjQ8nFaXqQl6UsX3vomTN/MUOHzj62hA1SogeRnnmp4IrbKcY8rzTEQ/ujPnRb7bRu1cYH9xmDX0oDHespjcn70gFaOV1CnzEoOTpjP6iOMP5nLE2XLkGnLjs/CYmKBMZslMgV1Su1eJMfkewKMIH00Ypjvq598mwpOc5FBzSt6tRCqmLy9uRZH2Q0Js3cUIUi3M3zBMRAQVLT0JFi6BIN56Gf/8HKaeYhOLlNObm3zuGw2eJq+gSrylmfRBCQjZJHHf+lzlct+FGeZfo0uuJsO3fLl2yeQpzSoiJtWTNy06MwsT/KAubyLMME/hG60C7l8rkX5CcpPUmGCCnuoOESFXZTHep7dPK9fyNP4//n/ftBYlOKqsHlhLWT1cF7R0oQFoYiRxQDCxNBkTCjTEiuwZunEmYxLhrLQGKY7wHIhg9Xdxxx1/7GdyhHYjis41Ry3t1jVuSyboYiPB0zibWKAGxEgRvpnoMwz0nVeoyquQZtiCFiUL1VJu/dn/xcSj/vo5HPo4CP3cpSPUX7hZBO3PouP0ySVZu9oP0XrX/jCIjL5L/5V5Vk/Wnob7Vmfb//K0Sc++dDtY1NUW6R2nZrr9J8ve87CSWrVafowD+Z4eLt0jJawaqdOs8vtaqu5RPhrYHp0lp8B1E9S4xit4npyhpp/e+tLn/3Gv4TF/+KN34OVP/JGeaZr7NUNN/arFum2GKBxjvOh4lZeMHsj0Z1gXYpKMwz6KHwgZW3BZgRaM6TAFnoqjPCA01YCqVzxzlgoVslJbj7ERWyxCqQQaLn9Uzzex3pKFBQSJNdCqBfRqtjtguDM6ChIkG4XU6MBgYygoq1RsLtff8tBGpmike+1zyycoeG9SLpzGNVr65THI6g2lYaovkJnvtU+/4cK3/9iE/dP73rFzC2nF5rr7dZSu42VDEjqG5TP0/uvv+odd9xfKNHKOk2O0ewcNRs0PkV5TOIM0e4DPKezC4M89yt+LoYHuiUqoC/h/gG9C2t+LqdDuLsQ19f+9tZrE5sWNMVVXAlcQcWXEkPEANo5msmgzdGXlVQWuiTiJJgIYEQqMkFFQKsrASyBJ0kD8nvegh6WBOKu5MgiNY3Q3c2QKTFu7zqj6YZOpKbSKhyl6ftOitfVjRgcpSuLYkPpWesGAadQeL71+j/Ak1QsOMMfZAzv4iCuL7TXT7Zxm7sL68vm8/UlGh4dufqHcshq5h+l33zF3v/2zbmVY63afLsyS8tz/PgWneH91x868vX7sU5tvULFOuHS8PuvvGJoL2dLZWQwCOomDZX4YoK4P95s4u72uDz5XZGBH0P+5XThvfSYZFVoQ/tVb7hDN0saZ5rltQDNdY7SvlAg5xhHIoyG3krxJAhpeCaNY508UzJyzbmGt3kTp0dlstJw81SFSCPW2OmLYuGeOlalyULhXi2g0BXT9Nv/5AaWpzc3JhsIH5M7VAj1al5RSTEAc/Rlh+VAfydyxnXCs1jBu12oSde+8zO3jtMQFtI8uHi6WKbaKi8vhkNbY7nmQru6TtVG7pJntd9BWFCAVL/2n+aOnXyAMxkM8G3cASCQkba3aa3FV4byEDUqNIrxvERNPOXCK3CYt5/iXB4pfnGcGjlq5OnduRe1aC5Pe/6I7sQ9w24qzfASoNb5NH4xTRHhtfTa5//XdT21T9qBjtfLFqUK6ukVX3RApRFJMKA8cHLRl5tUFi6P1adJAQsJ4zrhmQjL70wP4EKko4mYgICJE6GeHN0PHZ/BmQ7qNBpZ5hjoNz03iZxFBsRGm5GEo6gVKiMJR2HTuDt+5hZ4ANGLVGW4TJi9KZd5OQGCNVdtt/O09H06fBWC/rz/Unn4P595/D+dOvbqmenxSZ6SrMotMOY0EfRNtUY5T3WscCjzoI7RHbe2KPDda5HKWKaDlcptmi7kwPth+mae9v4+3fl6uhY089RYoBokfYlmCTcUPIPa/L//7VcjDXRVMd80WDzhNdAUnX/sOTPnwTg0cCDzWR4txNa5IFyOxOn3+IRBYzxwUDQGRnQ4ecZed/4CO0RYKMQ0yNno8HFegXwtGO+9qJFitNukDCxRMiUmBvUAXjFGHMNFreK6uzJ0IWd0Osm3f/qjGOzPzM6DCpGKMMWQv46p9TqtLlIDHaJIkwdYQGuVqis8z//W50y8/8tLc6ephBsA3Aks08QevlfF0nucEgwkyGQQ4nxj0OJJnvEZHuyHRll+s0nL8zR9MFek/BDT1n+eLv4IPSbL90uY9bmShi+kAzL5iZvdw/d87BIxXjcgvR3sEr0JUTfKAJ9yVo1A7xiwKbgDuVIU40nQxSgtg5NgltMgzVEhwpolTikItWKR51b+OBCy+BiUo33HEEfImBJbDOoB9AjgiOI4DC0GreQFezfwuK6dyMFCHLEuqyHlzp/+Qwz2Cyvzpd0zu3bzII25FZ5twROmRcLyg1KepmZ4vr12mpZPUKlIq8fpI99dQjcp5qlW49eryhP8/Akr0dawyBIrdpC45KiZo9+4bjf2TUyFIrdBgGPOqM4r9It8HWCjkOIXaeRWenyxXlhlJYWjtI55Ujwu+8LHMKHZuvdjl4BOaHUDvKaaIjdISKx3pB5vsoMwvWXiQtIWOC2UHWG2lFpMap0RhtecEVMXmwxQm2qJfaRrBlPHNqM84DXme57R6xQA0ZuUXDdyJcY7MkWdc8/FNbsZOqKUqjfHoB6/xgUKDdrxeWivqJXDPkNpjsC4K4NUhJbRCEeZrc/jxnRtrrJGo1g5gOmVOq0t8QNXzMTjNhdLarC8BheBsXFaPsY5/cnvcuyuF+DzNsZtxN9qVGoAACAASURBVDw6DGJ59CDhJrg4ykKGx+md98696YXjz6eL/+Pj30YHqDblKwuc7nPajwvDOA3P0/o0jRRKuKfAHQFdSsOQhO2VP3v7F/7oFaoxriUJDVYfDdIkjlKE8I5ZHJsuCV0CseIyRI4Nrkqg9vHBcroobVDnis+pkT7I4j1GH++BxWIf551/HxxlIeSwTOr/sSxXly7o6qLI3zlK4TLdTdhU1zTUEUpUeYtBmcmBde8OAbqmcQG9EhruPVvc8CCG1jHRiJtPjNyrNLWfjt/PN6w1rMtByl7ncAceK4nnn6CRMTxZze+7gi560RAWoMFtWJeGb61hzQ3mcDDet5Dcn6A8CutUGmMhL3ou/T3V3vu9+1pDufUqnXiI1zK0pnK/RAehFEM+XsUaoSEkSiuLHO1qkRpuBMT64itf//nAcBgsdd87KCc6wTpQiB2Ra74qaW4tUnvNMDvJToAwiPv1OTDWRCVz3bNNyTSnxWgwzJAVEMeYlfSAKoHXA7F1ocwoUuc5IGIMbxGrQpAR56iEx+4izCwyql+rYUzsT8uJIUKAlui4GaBrgTZHYQ00BaF/xW3/bn6+xu+H1+jY/TR1gKryQgkinlfP1DjnOfUo5+ULJ2it0pr7Pj3+j9UCMnj1h/7RpkY7h9Afwxguk5XoMKun6aoX0e13tt9Ahxd20e8cPG+tkhvenUNS9CO07zfoFGaMcOtapiHoWaAiL/XhCwbbjo4mVtMXP/7Dqi22acqT5gwEDWWgIDxiFuOIPFcYV1mQplPRFexZgBPpnx0n2deiysLi8bEMxiRsnoWg8jZfry4HilhWwGyFB1BnvCVXID1/D43GOs3Hdd4iBiigBxXtXl0T2EOEn6VaE2zBUMeJmR5bEiKEaVkBqUdhVXkw+s0HPnz99OTKCg/PI5N0+lEe4HF95BQf30vAe1UoYFmZCknk7piyxFQPMhZ8SFrW2fMtbKs9gzkcLF+Wq0S1nBsao4e+Q7/3oitu+PzjIP11Ovbbl+5rg2yYbn3g1HvpQqzIWZfU4O102Xe+IGsh2O4c7m6HuKmQWrj8Z/Adh6Sme6c7dAu3zEOG5fhp8kkDrzmpUnJ0NrR0wYsU5VVlsOIP1YeWGXXmqM9JVD7XA0aW7G2aLSrFZ4mJUDpAcsef3uiJ6lQ0qXuExs+jHMpBXclh46UEqhR9ijeB3gqN4RIB977uw8/91L//1HkfbtVoSJ5YcW6zTuVhjn4V+jABgY7kBwSVEzS6h1+rLY/QKpabwesFaiDc8zSCuXcs6AGlnAp8Ng23ueUpak6Wdp+PNZdtXriGNZcN+u8/cOgUtS4leh+d/hU68JvrJ98zfMGvzj46s7t4PpUupuEXEl69hb2YKhqv08GvfeIwmmXsjx5tixMLhtogo3UD5yPjUvEpiBSwJ1ZThAcP36koTN1VsIiAiisBIFmJW4ecjPegKZ0v0us0g4OaLquGAb33xKqiozfd1++2puzY4vSA6C2GY8uN2DOv+wRqn3vlrc/71NtuPfDhwy+gSot27aEqnlhVef5+bZkfXSHVWccMPR5OYYnmMD3xNRrbz7Oc+AO2WKQ55D/AIhH60igK6CqYo8QN7jo8ijmcYqFQzh08H5rz+0sjuBpM7qOLDhSOfO0oluV8lCov/+Of/zgtvWd439/Q3DW7x+UxAMb79mOEp8C468CQfwZL9l/400fRKGO8OQNq0DJ7cY4hMj7wuAy7ORFKioEqRtYQ4r2qIEJ65nIURrmxU9MaFk1q7PWOWoah94xXIKfCV6fKolQ4ArWMTNg8a4U8941PH4l2EOkuPfQZ30wupwzQnSQ5nCtFxfr1JKpgvsYnVuUIy8Ov/cOvfGMdT5Eqx9uNFV6ag9XzI6NIV3i9pZpYaeLRFRZUIonHjDsyGQzfGMJlw9iPIR9XBvSKIUxxtmnmEC09JXkOUnx8K2col5vhJ2F7/xkvvwH56hlMDLVwv7s2SyOV9squAmhedPXYI7X18TIvz4TaYX5YW5rmRwKlw9yt8DAAQ/7ol//4ZVqxHHRbIk3yKWJloTUM5hijigISCBNAlotxqfgURArYypSCJgoPIUlqzSgwx4BQ5fdBj4l2NdObA76kSrx3ClUoPOzbDmc6tMYrREyLozdWqf4ddGdlh+G1LPXXfhrlr9+Nd0bazUp7aJimLypWcV9ZoAuuoAc/n8PYX8Z6sTLfyGLAxcdA+IErnjAVeTE9nmGBHeM6Dujh+EMHwHTnJ35sL8oY7LFhpF9caJfRGa6hmfXGaq0B8NBYrtXK7b4wB5oz9fw0NS++evj+1epwuXD3/zN9HhXxQKxJDVxm5qiBy0mVGvjErARS6fqf+jrEHv6pJ1VrdFuMr3yHh35V5LwXFkMYDoTGacaVjkkL0+oU3lMaQzOhhw/LgoixeAxGf6BOGaNBWnZovtS0GCfeNcKIC60xeu/k8T69s7KYWIcRQAzqNHYoMVcyZzJUiQpwQaWDqkDP3T/5u1AMVqwke+S7nLLzErQKlQ+VW4320iP1Z72QnriDqiXavSe3Mt/G5CbCfXiUUxewwXfoBrjHxUiPXoF5T4Q4Rnfk9HiYhffJIRC3usj18c20dj43NJEbu7iNxfvNFj4pkcMFpL7YxhLOQ3vbi8Whdqs1PJ3fNY7PaBZPLS/haS5e5cKiHlmog7X4WJtZvAbf3cGrL9T+yifdonzVJM8BXrGTJ4wreiVnWYY2euyoRyMNj6GN1g2cjxqXSpKKMJy+sHg5Jl4BZP19rMOF7Kbj2E4lANeNDHvIlVxj1tjIIKQxLaxObwHOsFtzPELDIEfL9e2f/NC1t73tgQd4ov3hbxPSm/pIGYkHzRRrj9XOPFAfOVR64E669Ido/j48nOJ32UexPAwT8+gbGNSR8Izwi4X8Eoqk8rgmYKTHxE6zws3hV6ZwB4yPRWFqny8UuBy0JlbbUNFcbV+6r1lfal9yTat4oj19IU1T9bmHy+Xj1UZr7dE7K2O7+OqCyy76CB4T48ubWKCP2hKtfeWT/4ynN/1NmuQ5MBwB0z0ifAmeV6I0n6/InFPj7FCRs8DQJfMag5wUcZe2RvF2Ng164yxaqbbCmBBIFSAbFROvW3LnZ3i8D7ZYD4sBAnKphCSmZo5x+i4QZkxlTkUooQHaVO781x9C4D71KFXwwb5CEaM4x/Fq+9RdzZmr883FVgEravA0Cm5q0PDBwux9zalDfJs7PM2XCCygx/APk/AsFnEKj3OgN/k2gKc+mzSKLxyDoMzvFuI1q4uvoD3n0f2P0uWX0Le/ncNd8jUvaq9i3RsW6lAZeT9mRHHlOP29Sm6cSvgO2yiNjPBUziQVJ3h5Zuk6ugg6vvqpl7/sdV/BPuIN06wubnRoYfC4vKIjSi4x6QbIWYghjx6TFYRQw+NBE0AWy7hO+BS0yu+tFCnoLmL7iukzDhDScy3kMTU3LqDXClGcMxHCxOEgwaGGP95UKbJXqBhahHx05kOYRjz1CM1MUWUlX6+0EfGNlfbS99vTV3HQcwKESRh84QlzmkO5+onm1BV55NgY5rFh7MVdLCZ85p7ivB8jcHOZpyx5ilNmezBliWkfzIeCfeYAffa1+77/IJ18gs6/iNbbdOFF7Sue3cbDgTt/Yzf0zD9VW6jxW7Zry5X5J+nwYV4Hur6cwzzSGg2doMYpql9HF36CkNO3X/a6L3/1U9e/7HVfijQ6cE7oEecIvyTe8rjC8Tsi3WdUwmPnQonSfCE9aubcGIVRbUqcoQvZDa8VEkSCBzWWBXij0QG5FOPCJyC98b5Lv7H2JdElwSyDKsRIDMAcI/S9VjlqUzeN+8xlH1pfojN4nRuPoho5zKjgLhP5OtYb5BGb+P4lvmxW5vVkWI6Ge9ncZK7RbOP5FB5CId1eqkhik6chXBawYpmFyI2vLLvHtA/SffxhyMeS4zWsaSvQec+hFr6Q1uSVN/xp8FUaPUwju7lvlMZLGO+x6nPpRKtRqeMFXAxZ7UZu8rxcvpB/z+iVd9ATuMBcyx9X0/bf/qlX2CYmNTcJphg8jFe0wroVhMdj9Io9sdoWdKM2eKMgejT4TkfD49EkgBiLc6W6A1ciHYNBiVuEDtUYr8AizDE2Awg6qREVYe5QDdjNyMSN4U3r+DcP34jxeBxr0VYwXCNfabXrbXz9Eq+JlECCjKXE2T8nH2PM1sYrUqV8Ay+UrFAJt6pLND1Jw7iLHeFXTFaLOXwIE3qxzJhfMcHqggJHPL93soKuxMvXVk7z6kus7Vk8Tie+Q6MHaPEhKuNygWX9JxuVo/XdQ9XqyTqSJdwkYLlCc6XdWm3liu33nb7vJXQIb2Ahuf8u4RKDU4cnxrYpMpS5msI4H8QwDuCIwgFXyeZmxzfBeYzRodtJNx63MrTJ5ox4QswYbEm9gmmoIY8qhDhPp8eIoo+Ja/fRuW/+2U2O13UOV3LYDXXdJAFJMF+8KidRGZg5xrm6QD6+7+bGKq0t0NIKz88gWPnGFCmLzEjW4Uy8B4gpGjyKwjIEfPwAK4enC1TFvHt7DBGfp1V8DUc+l4APh4xhqT2mbgAoMSUSnjxydIwhslQBQY9hHkM7XuCCNLx5uOcSniFF9YHP06Wv5AsCXlvBrQKyI2yYD4XecczYj3Hn2TeDrpfHe7kY8mU2Nd/6kzfY5nX3QDpFDBMDpKhJp7MMsYLweIxeMUYbAWjSDXCwAENujh4oIh9VnCtvc/1FOqnrIJrG4aVveZyxYoQU1cTuGONLpjLSzCAQjHkJMkLQH++/GSM6piAxMJ/4FiflvB4SN6ZIcPADPQhWvG+FpcJYjCkvTIG7nss1Kq21tRyeKjVXaFUuC+qJFc9sggK5DQIf7kYFnQS/+yOz+FDB0z5FQu6OHGnpFE2fT3NP8rsp93yaDj6bHr+d8OgAMnnaBo+1MK2Ei0yLv7+AvAgNnV/lX5TAS1hYBI09niMXXnsba5LNeMKdGwvpSsHeC/zr3BmAQRWSOroohgUmb6LJY4yO26HGQIY2UumK7XUbAg6umKYl65QWQZamw0JwW06VZHiitH5dlWMiPECcGhBPu8V7PLZokV7BFL2GurYAqbY/X/jsT528Eek1Lz2o0YFraRQfusGQj+xGVmJimhKfrlxG7AOE6F+TtQn5NrKc8nILU5PqmoDxfg23B6s0hIU3WIaJjgQF8ooWpjux9hhA9Cj8YZZzHV8WadHx++jC6+j79/Ayz/v/gfZdyROj+6+Qpwd4UoW4hgHSi9Bb0H9w96xWwkEyFq6d5plNXhjauu21iBp3FoKyaWeSJ42H2C1680FemUVGJTg1MUwAcHQxIUZr7BhtjdcrIn0ugVVMjUpgNt2GGAsABqmNlSHL0AHnb94Fw4AdhZQCCq44vOEISAzQHeMMEJLCEwMnMkO2JlToV0//+AdXbj5CN75/5WYs80XE16o0hAxEliEgRSk2aaVEow2qiitxk4pmIO/HG1UY0RHBeJUEEpGl8PQ8SjKbOYy3bLE+eZW/8403CfkWFhm/XFJUArP/cpo4jxMbqEC2g0dX+MYOBCILwqtb3LskxcJ5QA/BO7joAHgEhkjHSvxVEGO+U5an7b4NH6zmLam1AoYEIYjtoMDBUtiZQFOlU8TOiCP1NIiukNTROTVCZpXqmncQHo/RK4oyT6NXFAGa1OOwcjWp4Qji3hKpQoTdsHhUAYVUAiKuBCSGNaAyQHdM4UkBOz5TihIeGTvyobUPIpfgnB4TMlgNo2JOvoeGNZXjJf7icXWRRi/giRfcreKxK+5QkW3DQRy1SIfwZTNELVqU42R9FRkRbgkw+YOgX6XmMI2VMEkqD26btO8ypn/wHziRRFhjvMcNMbJ1vFCYH+HsH2nP6cfk4S4E4lZBvrUGZ+FasXqGGnhOjNcXR/njC86D6V6LNlg7goffFKZzvUu476WZoEk9wrmRvwTSgMJcihyfPSEOZDkSpPkgS+cXYiZZpM+K8g0jR7DIHhG8is9SIn3GZAne/kBQIHaLVGvKbMz5/FUDPHBFgo6UBtP5iF2sXIDMVUx9YrZeVlyizyA0EZB4yIXVNrRMJXwMsEwLp2hiL63O0cwldPx7dPQeWjgmqRTyeHQeLE6rUuUUVU7zTe2px/g6oAdHiU6+hy3y6+e4sKCTYLUzLji477Ut0ldocaoH9TpGpM1Sdey+KHReX1xQDqSksLN+vaVTxDBaTWCIaklIGjHHRxqtsaMQeYxdEidvvAenv6UMFD5JhAOoZCZHZ0oBna4YnK8hRaAlSeQRO+IYZPMIrJEJTjCQ7SBykUzjqwcoFpG6IAWSyMZqYExE4ma3jIEcmQY+r4BxGgy4Vsh4zEt0dvGdKOjxRVc8cAUcaTgmMVewRn8XnXmI7cMSTjXG8+VinT+7gOkasKA7oQthwzCP19j3XEz4wawLnkOP/RNddiWdWaKhScKnStCvLqfx0T99I5O6LcVXXms1hWWJ1i3Ci10HQwlvDQd1r9LTVcIpTJHDYEekxGvSKBjIrUmcgvtaKHemqoq/9xyQVvTJVTmZMqCLXxaA1ltAKOY5nKFJOCaxYfkXQhBPr7BhIMfgjSGWB/U1DkE8nEJsY6ZlWD4BMjZDKyd52h6fQsAUJ/cT3GtizMaiYXxjDRVA8AZ6I4dPBWIJ5ZubN+I+FYM6Y4BSf5LkoFcADl24eYUuDPm4JvC6t5xM9TxBEwc5yq96AS3iTZMJwrQpHiFAwNin32gHMJbLW1LDvJOWQGG8C1FRbpEY38UJDcSTZS1TBU+KIY5qA9xtKURJYK0pwfqQ2lkUkjqlXknlj0qABofSPNoIAtUetjhTKl9AalwceE/rCwi9RnYw51c+e+vbdx/BcIsPFKv1wyo0cZeJiEQ3wNQKVuMU8TAVt6cyp45BFz9Fi4jnfAa/7oOvhiDzxhNZmIYfBhvPYcn+WK4NLKYgP1i5GYM6JnM4g5KbBwjEqhtedIa3sbAWCFcbXDeQx2Owh0DuOvJkFzVMBPGjKZos0SxegpFmXPvpG7/7mptti9xJNY7R8aa9meYSjVZyokSeqMDNAZM1gQtRCRaSZl8oKo3d6UijgKlWly5olVEwCEPSwDRDjbi3W0jO3LwlQxNxCtjDPi5TK4vzBqTmRAVGOZ6A1liu0O/78Teg8M7zj2DBMO4dEYWcrCPzxmCMtKdAw2M8J4MFORiS1YCNERcRibBGSlPGtA8eLc3QKLKgYSrJvQH3md0FyME8z659nJcjvjG046oCCaMTdPRuLuOSgofB/MMSOVqZpVF8Bh8fUcOLiGP0ptaNYMHdM3oBugOmTCd5WRBd+ekbv/qqm5/96e6vgHKTjVciBXYSb4leUUBFkERkZEa5HUe0lKLGCIoYh6q3pfCaFijKFKIksFYWa7sD+HHvGaKLEZkdoUBGyFU1LjUFsgHugNTzbGBBgrW/9dgH333RER5rpd2ITjX2Y6/yH+QqGK1RRebDFwTsMHjjHXMsw8SjLmT2eGSL7jGJpCVHU/n60eY6Prwzk8NSfnQnxQiv47YBA//Bq9knGijm4FuZmOXE27roHq+fP/K/n33z20aPvOz/3Pj8z9w4u06XfuZGmAa1j7zm5pf/3Y1+K3VjNnJgds83ftmI8TX4ZYOPn1JPYJKzHaMt+XKDsm9QULasXAhYvKojSqeIYbQaiDHzOU5Mh1JMjtAmQ62YLmhLl1yIcwOSugXUCafoPRfzooxf3n8Enz5+1+EjnJBI5o0bTQ5orK3H9DmWMKg8Hovv8R0z9AFJS5D6LzxB1VP6dzzz6638Qqu4N/f3vzxdnGn/77fuwdD+d7+0H+Gex+NYmfpEn1FT/pCDDZca5PQIdAB/rnrkTw598F9+Vy0CZ7tf/tdH7vg3N1/xmSNTR198GS8WVPbrUx0EBjAazIVNbFFpxlVGnC8+UnbaAoSRAMmBcaimb3FagXiyAkMDQSm8Hk0ahfLeP/3F2xWtjG4eW7TuoToVU9lSEcnqO+lIw3VRYdieuuqOQ/e/5P998gOIb2wY/jWjLKzHUICxHk5DBIOAUXg6Kx8047er8BMleCiLB6roHph3L3Pewh8SxCg+xZGNApjRBzhhh3D0JXmYhWQG241jsbcdGMxbj8Yr4k7kniCvaPg2e0Qf7rh1QYM3ShGtdxQvyBSOYJYpTUqE1+U50e4RqafJi8IjbKjqLRWh8HG0YzUiuh0TZcTFIOj/61MfeNcFN+Fcvvsi3r/r8E0Y19913k2c3SBeJRdHQYU7khZedyk/2fB3vzjNa9FAhnsDBDduEpY50BHW+HmIt9ARvkSgw7Tppskj6B437jqCaZx37ONwv3H8CHPm6OP7P6gKbi89rUf7xQ1ptGo00+Iiw6Xl6ebIBHwgyhuRDamVHSkYfLyBRohzgmJ1HNFSRLSpGkFREwN2Q2y02fE+oEqqRHpMrP8m8STDopJ8qk44RdedwpfXqRyX9NvHPoDbTaxNwEUA8Yq5F45yJIOYz8HKBfyo5wQPXEDh28iYrsHa5rHdPKhjRgixjntibO/YHQzqcS2dbIrj0vnTMXEpgKSTG4w5JrJvDAhvdNy6oMEbpYjWO4oXZDKHWObG+65ioj0mWu8qwBLEOQHRWyecIkmkcAKMoB6OvqT/8Kf/E1VMvPzi5E3I9RHZWM6AEYTXrslnRRDluB/FqnpcBADHdCd+yZkTISzAxPsrmM3HrzOrh1k8prjN1xIpO6IOpQiPrcZHUA+SJM9yxgoGEB8xFSZJWhdYVJQZlA2bUWnGX2O7wZu6o7MSHMgRJ5Z8QltWN/u53sf7RNERYLSHResR8q7VLvxd0Ep8T0RM+mv38GCPoOcUH3uAcEeLPL7BSQ6+foNZTozuD/3V+KHrK8js8bgXZDwjOUqrs9wrsBQC+RKW779jJvGthl4N6tlkJTC2T+dPx8SEMCCF3IDNMZF3A0CW00lWJ5xVExAFFUviChsY7x1Tesn2Kl2I1tM5kzFxfgXR1F3QiqonInrfIx/49edxsCJp4QdJ8n1MfjqLJQZYdob7WiyYwTtZ63TR/1XBwy8EPR6s4p4VixFmH+aVakiEkNDjCoBuE2xRA8zAhSExGO0cUwThVx1Rh5LP4JdDfSEmUZxP4pVNMRjUPeGJsjoAWZ7nFVs2LEZf4C4Agy0gMtICDo+c1yls6RZYI80LTFHoDVsQlSo+d1IS0QAGW0j0K5fdBMPeeznvEbgIXwQxxnLkM5h2xGjEz1n5tpcLeF8WM6H4zUO8JAXKqQu4TSDGHA6+mIDO4MsOlEYqPp092ygEAlB1WxynII6iQymdOR2TKC6J3IP5TfHAiaI6AQM5fihrJl+2LQcCLZQLngSev7d1RRTwbUElMEWd4QTQJhQnSgHQbR0onrz8G6D7r0c/8O4Lb0LEI1NHuoIkB4v1Eet4JoURgrP5NlXm5C0TWeW2eIyBCHRkOHwfjCXzeCq810tyYiFsbXBmxUuWSBe8kxR0CccZ5TB6HUWHUjpzOiYuLoXWA0ciTWHigjpDmMvzhyqzV/Tm6Uv3VXhJFhYnVHxnxG3tMcHYBNDmbEgUpIDOVRc+9GKA3nX+TdjzTe0oveeCmxDQCHr0AbwJhY0fb2G1An4RCBm/vKG7ay9P1eOWADTYcCl4x1QQ9AxN2bqblcgYsHnnP/0cBxz99wexaiMyk2g9mIs3tGZD5nn+YUbPGbYcITHiORW1ulAIN8FYEYoupNjamm+ZLkvbApP7MitBAxyC8H33oZsev/gb7z7MaQ9GdKzeeefBm9RkJY/r+IkUPJ/Cfo2+8t5DgOCCgNnPX9p9038/84HAvE15KNmszqICHi8EUqwJyL0g6KyEsemc6Zi41ERaJ9xFndcZwLPRLZBjvAIhubv+8hfTZXW7KxZ8N6J08QPFJJuRDN2Y4v/y8PtxR4uXUXhmE+vG8FkRGd3xgyhf/tW9L33vaf7+Qp7Tm9858YFfPnBTrzp7petu7WYkBTxBJa6vCzrOYCHpnOkYy6wKKYQe2CtGeFOrYZ4TJYt0yihadf2gS0mPjdFtByBiq64mQzdgz+OX3vGrl70dgf6rl+oFHZjJwQwPnlsh7fnnv3H6a+/b98jnRhH0vy1BD9G96uyVrru1m5EU8NiRMIBaxRGorVqC1IIl9QtC7QNsOUmORfqFwMsuAg04SU4Akzd/AkiHChRHtlhPE5KATkhidBE5W1gNjLF6kL3Ysl+IQS965CXAv+diDnpEP8Z1tZ6ntsBfx//ir+3Bj7v98MFXweHvPKA7hi+P7w/MlmyJT6Eoe6UzctOPG5YUZTB11wgocxWDDixw6ADsVdLZ0jEeOxdTCA3YHIXLGGSODOw83gtbpx3k+39JpIJ3PdKka0mk2wrz7XZlGfiCNimcmDb3BP3Hg2/HlM67DrwdCT3uaOHKfD73xDHc/6ZtTnboK8D11p1CEabRGTm9HxMldWIPGBIvDo47oDVtdui0UjpbOiYiK4XQgF0QytsOEeZ+qtAQ2fw+ZlBCFSUVwiRqw7WNx6htUC2g33k5j+jv3M/7239zb6vVwg0u7+HRzWxpXM4N3Smgtyei7vZtWEzAYCrOdmh0FYMOzHDoAOxV0tnimBRpcUJ4jL98qrcUNoPe5NGKt/wpeoQwSi20KQxW4PYVrHkf+4t7cVJRxdiPF/f3TE0lBN/m7bZ6Ik1zEhMpHFrx9UQUUZFQ3ZiYgNpUAstcxaCdUodzsFgphS0OBmeKQPWpO5EcYUthiBmxYUBEj+JP0Sa0UQahTWHYsDWbYzhxWubzlWW53AOPPpGjPVFRgk22MxkaFRCrRz1hCLS4LmhF3ROREZx+TBST2qyA2lQC6k5NCAgTTTIiA6SwxTFKWur7VmDw/wKJg6/4qmw5RY3gXa5msk3FlsIzYPDff/3RtprLxE/2tBp3fe+B4eFLZH1rVJFtTFAIKp6jo9w91hPFOd4uaEXYE5GTmVjamIyAfm+AjwAAHWdJREFUOn5f5TQEhMZbDp1WirMJpQKb+RzU/C3WxbrhfeZBlSM6ldiYZVabkEd5DLk5WupNFu55YO2WT30TMS/Jvbyg1UYXaH7h6996yfOmcFJ6TPWjdipzep5l6sH6ZA32yt8FbexJULRBV8YVpQoISE0loHYVg3YGOpyDhSWPJ2U+BxT2L+RVNYtUhSSSLYJFNHfTb8ij1wfTvg1ZiRH9r774+OLyElzMXsYgJZGO8q/f/Nl86SIV9CBDX2jiu2ob34y9zv2iwpjrozcuXDh8EbbsZFmQX3BolHyELQcUXSqWyS+k8vhE6iwGFji+gFDMdLhYyYz3MYQDQJ6/JZ3NCAnIk6h8KYMtx/Ur+elWyDdtYKaNUZRUoiIfmONxm4Xy5VcFM37grfk3X33qpS/YX8rNnjg9y+RYlKOocvi+Tvu7Dzz47MuwdJNhfLsr4pQFafb17oUECQJKaGECqKueBPH+OYyjo0q6U3SxYQMCAlKpBNa4SkAo+i2uh7iPGNxBmEfZG5XHsCXFuBX4Iiyyklaj2ao3WtVaY229Xq01EdOtVrtQyBeL+eFysVQslIp5VNUeM/TAVuvN51819bW7Zr/36HKpVKpWq/hh8j0zU4VC4dTs3MjQ8Ef/7O7f+qUXSU+REUmWeCdYMNCWJshPTJbsCd+A9gTZtjN0wikV3Sm6mBIXkNqIgFQqAamrWMKNx33cWitMoZyWgDRCBVwKYcA1wApiF/GNWK+s1haW1ucWV5cq1eWV6nqVP9xaLhXGRstjI+XR4dLwUHFE9ugDQ9wN8rV6c7GyPrewdnp28cCeUrM1VSwU1qu1H7zu2mMnT73k+fsRbK/90atXVmujI/ieGhYtx5s7wKZ0EZWgews7gzuNcb0Op0zuTtGpaRvgDkilEpjSHkTcR0wNVAouUOmo44TApdA6rt5LOnHBuuJWu1ZrrKxxuJ+eWzk1t4L97ALHfQ2/T8tBX0SsI+IR7mMjvB8dKe0aG5oYGyri58zxW2z1VmW1Ore4NjWR+9yXTqrJHIz337jr3mdfvvclzzsfF4rT8ytgwZVjeKhULuZ5izu8d+sHTZng7cF0hgTB9jR2wqkGxik2EgEb4A5Ivfn7QfvZkxeoFHh62zZC66nQRU65OZNp8V+z2cI4vbpeR8jOL66dmV89OVtBxM8h4mWYR4yin+ULuaKkNJLeFIbKBcT9+GgZexnsC+g/a9U6Lgu1WnO91rj+xYeOn6wgCwIcv3l4enbuG98e3TdDk+PDM1Mj0xMjE+NtGi7hV2qxhoHfWoyYKW1Pd0CEemurUdugbas6g2txXKnDiQHRNgfoKDJS7yLcUG/BeG9Edzr2aJ2IiNDGnNCWH5biEEdcIo2p1pG1NxCmyN054pfWz8yvYKheWFpDhgMgsp1mE0FrJDVyGJgxOONfoZBD9GPwlp6A1J2Vcy9CiDdwX8Drj5HBA1LFl8Iln8nl8ydPn2jUR9HN0GfQYUAshjNpwibABIwwGc4Evm0DJdgW7wwbNjQu1YnohEOzu6C7OCaR+2mK+7ipidYJGdyDGLWjOAeseAwHDNi4K0UCU1mpYghfXqmtrtUQ8fhTw/zKWh0Q7BHu6BiYdOfZRReXHPFy/8ohXpDUBGLVhaLVwo99imK8ciUsPFGjTxbbgCpYgMJlAeemVMK1gu8HkDWh50CsmQqyrdXMth4UxANRNxgOcww4trMSNSzeE2DNxqyMivT5O+GgqAu6i2PAzetzNmZtF5kDQ8MqDsEWBtomQhbxjT2Gah7XUag3EdyIeOTouOPEHveUgPNQ3gRXC3tFjCuADNUQxg1FoMuaGh7gMbQjmeG7WGTkpQLiGHn8eq1erSKfqSP6VUcJugpEyD0rd5h8oVwu4FYYf+OjQ9iPDPNcEKvg3zZsY3pTTe8IEzwdP13KXelnwHCYo6LX5yydzZBt5TFqEoxKAG3Igk78EVy07RE01EYpAkt4vPdZOhIHnFtXQdDo7LzRXF1DrlLDrIv6QxVxjJhEnl2tckqjRneOUgSpRDZGWe4wTb4aAIQ4xB83U+KVh/B2G2UEqEpLMANTLhZAi64FPnQSiEXKBAiEYIu2VNghQd0YcC7EHsQdRate57nRMv+SLUEp505yDZHpHZajbIgKDM6ARcb0WgwL4op/4rguHB3ZmGrrtqg9W9kTEnRFGhahCP0SzXM6EkcED76KGEOcIVgxVCM5wSiOpBwTL7glxaCOoAccBIgoZBHqPCO8MFTDlCaPs3gvJIeUCMENIQAi1BFzkq/zcI6egLBW/QEhCDhI1tfrq5jvwUhfrSM7QsSri0ZCxJsWQzTbyZcUfg6AySLYhixrZLiKbAeScZnCHCiuBqxAzBBjIt414pKPacThCfR5hSPKJuTpPD7/4MtRY+I9YcOWRUQ6/ggCjXE4VEJ0NO4jTfeJAykRuoFVOZKQiy9VcDPK0y+nZlfml9ZUDoPARYjzLGGJR1GOS4zKzTaGVWTVHIjyH19r5d9rwDCfz/GMJGcyYOCLAIQjuNfkBgDpE/5QhQTOiOTpVeoYH2kg686p3gVedTvBNxKr5aFyDfP9+GsWuWO0+ReC1Cjv+zIibkPVRDnpJ0fIAx5Da44b0t4vcWAJhMXvEzZmVlSeH+0RnC8Yca+wPjC5bb6U7tTJMlKhiCOJwgbGeEyEnzhTOX566fTsysLyOsZghBnSEgQ9Bu9avoE3PTBmI4hl8MbwzJcJiEYgAo4i6JC14znUxPjwrjHOv8ELDIb25dVavrKOJIYTJKRMctsgVwBOiuQiwYGqBCabiwwnl0N6ozIo9CjQQyC6K5IxjPHImmCtwuIX47gzthD6nFwlCxwANFFyylkytOYo6oU2hWEA9nUQEZgBugH3BNcmX5Ed732gI00z16cGTXeGNEHCjIhEWoygQUqDMf7YqWUscEcZEMARjoiYQqGJQRSxxf1U9AGuMhbUOBnngG8jIjH2l3CLOcRz8JPjQwh9xCJYWjXuFAh3uWGoYYoTZfQcSYskI0L6pAOeIxXxynpkp82HGXlYwjcM/GemO0HDVxJ5NIYOBhTTYNQvFUqY+sR7uNw1Orhgi1BxleknSmgDBqFNZ9gim1lsYAbOQLS+IdURZvBym2zc+7J80p4a7jNowb689DKCCnkConlxef3Mwurx08vHTy2fmqvgwSpyGwQ9khCOZ/iC0wlED6uSEVRFJY/xsnEejzEYoYYBGD1EbgByiMXm0hq4MP+DyR9owX1CZaWG51ByK8w5krpbQAF/kI6+wV1B/eHYAox1AQcCLE9AWJdKyGRYEYxBzwEaFwrskX3hOrOrUWYGOX9QjQ2CmVS2nhxqiAd9tFb4glMsEtqAQQhTqH2BAy4HNkD2IC4IiXHv2+0r7bXJPg9kpbEhYjDiIhyRweMxKnIbPGBCeWm5ip7AYznyFgSeDn0tBhElQcWhpUCSaKhfXWXNYIRM8ONyoUITgtCFVFaDPRIqdVeA7sGjMjKocgELC6CO/2QiSCX6CPoW30ewHgzZkMYC8XFw9Ar84C2AvOGHywGGas7DMN4PyfIeftw7JNOaggOx2iLOUcA0FxmmLT3GLUoxRwgDaiFMod5CmwMbEGDRenfV/MDFbV1asAFSJ1OGPb+KoRFpCQKRh/lKFasGkNDjLlY9UpUZFUSm5O54RIpJdBX3Enw6XVBlI5RXA0twctDyUhwJQ45PNlgGYtYoAzm6AE/hq6dUKuL5toEHZP4AuLpXRRVzlfgZH97AL1+J4jJnQTxDip+vgqvABEqkVZgJnZ4Y3j2N1QrjB/aM75kZQxU3FUDhsuN7jYUkbYk0Xc5GkpwBweLmpNgihAG1EKZQD8i6mJjAgN66QTje+wK62O6TwpAu1MpUjni8licLgJHG4J5VrYtEKo+gx/CM4Z8HZkm7OfQ56DlS1QjPQsKIV2I5GBmD0RpDMcNgnCQW1kim4P88Ohu8GrnRAyU/AQJ4qAMZCnytwTiC3AbC1GoFyBekGviR5uAqgeCe3DU8MzmyZ3p078z43pnR6cnRXbK2R3Un1pa49eAwa70voAc+n3xQ5bgtKYYY/zrFQphC7agGWIrYmng1COPeV265ezLZUkNEAgNAiCaMlAhlNdKvYNZc1s/gLpMDXQZ4JCcS6zyxiDtFibOUWPdNtWWJbBlgMRIrKAxDvPJedQU2TiKb72hbnN9LGsKPBRgj/1VZIfhCoG52GYdOwI+rMI5jwSYWok1PjmCY3zs9tndmDNE/MT40OlxGelPkSXzfJ8wbbGlI0RJQhpVEvm5MoYjB1CKGpJsghI5aCNOpB2OcL8WpFqjqBulxb1l9vp7s9RkgRQLKSONRlEf9Nm400QFwc4mnpPhDVQZTfHWeVxmoIOT4DLiNlMSj3D6qOEbIIWpBBUnyUhTbzZKUXJ7/4TkivcwslMa8zMrvUKEAe9U/ZQjSFtwVIOgR4gh6DPN7psd2T41O7RrGtCkSG9wwgFsRi5xQetdaxHmKvpvb40zdOLrasVGCnk0QQkcthm6ntUp1D3Hve8DZi3PrIzqU+exz7AgHIhoDLaIcEa/+JLQ5heCURoZ4LnOpg8wQxRGvF1RiMFZpt0S8VgsVQbLEWZAajrk9KjrZDCHHMy8NQclEsGotd6q8XqqJEMfUDf6Qz+BuAe3CBQq3FszCkDxuGngR8mZiP2wdmxiDdHN+nIMNi4nZSkDEhBTlQhWQqpO2lZZB9gbj3rfGNzalUZYcIYVANBEvUytYQyaZBoe43LliDMZkvUwvcvjzmK+GTSslqaAiWPY6xsDYrHOcq9AP5EgPscRcEJkglriX0NcdIOp+lT5ZXgQROiquVMjWEOVsPHoynhs0uDOgV/D6e8m2BhL50ab7zre4bmchztSNw4ruv9CzclxvfW1i4sDt7CPufeN8S2M2IvKwSRTiISuWlPGEPaYa7YIzWUJcRQBh1QAuBUjxQeyLTy17MYU+giQd8/kSwxzHbow34a6yIOyxYa/EQhdvWNwgnU2uMxz0bIHteJ4igMGCBwMwGHJgMFYoYEoH97jjo3W8coUnxGCGdP6TFTohd2pr+kX4Z0HJ6ubFCEc38n4NDPl7Uy5UjlRM7N/OAcW93yBnI0MRUQDg2Q6GQ7XUDGtvMEk/i4nLpbXFpXVM46APSNA30CswcEoUejHnC4+UOV45xjDvyEezcUlCVg3Pkp9woKsUSO0VCcIbVUQ+QlkmJ7UIK8GI1EdQyq15EwEPFtyRL5cLw2V+OxERX60PwyIo4jxHEh1YhiyITQvdEhG7VdW4UuekBJ0bJE+Q0AcoojzFUKFypNGrcq/6tyDuPdUIAgQHkgEM5FgYs1zB20+8vhJv/eHRKSK+wmu58A4UbnB5SgdBj8Byo6wnqlMRatSIKrGuKNWIrmJdQhAAxJ72GK4omswsL4Odohl770JhZWn1sgaTryttLGfDVQt3scjvsSaiVsczWsItL8qj5pLFErkD8j20FvC0H+KGpASYsnSD5ANsXkRzipX2jEKzkKTQRQ3bqrjn6NHfL9BZDQIdk/TYY9oeHYBzmwpyGywZaCBVwE2hmjuPGtihLtHkRxTnKiq7gDskk1FjLqIfZAhCc9cg8agkcy/DxusdJPSlElPK3uRbFDyswnWBlxnj8S7P7TTx9i3Cnff4ND46GEKfHwPzeM9XGLWZ7haTezYAIgEmLe1gV4S8xzjrILA3VA9qhcTRiWVp5g0+7hE4CCAM3jy/UcfbIU0M6ngPENm8mrhEwoPlMXhrRGbreRpHJfRpJib4xeTrEvQc09gQeRy/shk4IzigGxzNjJP4lpFB+UdgcoERCmOCiFRilUAlGDQIfcAR8eDHw1jcv46PlTGJidfJ90yNzWBCc2IECQ8WP6s5TdXllJAds1e+seYar1iAX9gIrc/XZ7kHtULi6KQVtimDjHsJHb7nQxaBuRr8YV4Psc4ZDM+j83yOmq7xG43IwOiI4ZiJOC4lhH0Kv8wRz7Mk6nETVySKmVWSHUhQMQoEIHynK5vAZUTXmbb1AKNRgRw1NkeEK3aRz0UOeh7U8RpAEes9EeJ4XstPr6ZGd0+OTE4M49MjeHSFR7mg4cz+GbDFGxE4L2hhhDadMODqu+KrTdEpJJZuMHGPCIPpKrY4AM2GmObLvSyfQWSixAmAWQKJyJDchpMECXisYkf8mfiNOMOM8ZApoa+zCEQkr7wxm5oHUnPw8shWXw0gDCELXiHUornTyFwjiJRMFdOwWSdIsEZmb6ABikAOCUjoMXuDSRs8r1WLFBD3KOhhHjP6HPHSIyNNeMZUbfioFqVEGjs3bHI6YUjXV60nnYOJe2WnCim0Ddm1ivhmUxuh4glBj3XCeJt1qM4TmvjLN/JUl2c9Oh5TPGOCXg3JHKT8tJV5sOPQN5HPlgiRembERQEADBKOYrWhD/B1g/8kF8/jS08wDDGNP3RI3LAidMHBL+7iblvFPT6agBUK+LqOCvoJTm8Q/ajy++lY94/F9yxXOpRRFTlaEyLwHVztKdK4fT0TDtAZvk7n+8HEPUeXzN8hPvCMsoW1MfgiE/+6N2tSYcoRJjd8iDOUAQdWJfd6JgexBXJhCdotsaucxgGFSwPWMkgYo4KEm8NfcUn34GhGPHPf4OFZcaMs97o61vmaI++O4B6U+yG+FTXEH1ZQj5yQmoMA/QQRryzk6xJ+t7nAX89E3MubXJinH1JL0EDPES9rcnw3B60wlTiBOxuGZmcfIy1Mb17PhIPyh1M4mLhnuxBfMmGnotBvLGIPYcThLoM0hnkk/ZiwV3P2yPhxA6Cm7ZPbB4nSr6ADZBz4egv6CQc4D+Ey3OMGwHQzjm8V5bLUHmag+2HYVuM6Il7CvTQiQY9hm79+g7xccjOog2nqthvmq07CoS/fEuROgnDnVwpFtzFro0d3NjxO20gPtjOLkealN6xnwgH4YXBxL0OuDnoTnAg+hF2hgN8/47REzeTgdSe8RIvpHY578xYIe4MH86TxXoBGJJPozV4ZEHXS71TQQxfCGn+IaYzEnIEgpuWLToCocOd0S/5AYAd7Hra97z2hLRjl5Q4Eyrnrchcq5hHrEM6JkNyrQB1fS3jjRgxqiwQBxA5S+qCs3IScSMPSW+UTplNtwgJmGVDcu6DXpwexgIDIy8NQFfGIcjyoQsRjj2l7fHsDIQULJCNR/UVyHM6YRIgNa9u0CET6Cbzjhnl8GqSQR/gOlwujo+VxvvvE+7VDSEvUxCL3B7wiiHcF5U0rpDO2A9hQVutwEGYqp4fH+QTYDArmyl0ByHiQD1JW/0wpowd5vrZWunXyNhf8VqV7y6eCgemEvVo/oLiX4OBHN/hCmDw7RdhjuRlSZDyTwuNYtRQHezzjxLw+wgUBh8ApFRFdOsJUnPEeAP5ga3Lz4AIONwk6lcfziJvj2XTMHqokZNfo0MSuIdx0Tk0Mo6xWCEsKzneroEfSoiZt7LAtcBm6pTsFN8HiTKUURcHz3UIPPk6k6f+sac0R6QOT20PDtoSk5/b4hJtrtf4dz80xu8ZLLOQ5UHMYw1HDkI2oR2KDVB6LFLCOBR0AUGQXmPZGOlFvFPH9D3XXKHM7PN+vqvxWK0+lyEVEZEKRCjuOcLmSIHBVyAKCAkZuJDNIadT3uxHxPLc4PoTP9wGichvpHsyO/xz6IopvgbkAMHQwSjVK1iC79ilkUN98xT9rSkq/7ldStkru5lvaH6ffnnQP+VTQl04YGKPHe8XcI08gwK8gaDgV4blFFcESyhy+CE3EH6IN0YmegCEfsY5egf6AP3yXr4Dv2OSaddjBv8CjDdERyU+pOL3mFEPuj3WuwhkLT4wOydfr8ZYTkhkkNnh6im+HYG4RVahDAiN31CwZm41tyFR1BppwZ4hscYjBmGO/zjJy+Kjc70MGIz0idzBCfTO3rdxzS3zCDu0N8hzF04G6SzN5Np0XsaiMBfGOJFhFPEIPGQgvW5DvNCH0sSyH13WpdSzriDuONFTRZ1DgQBcUglbRoIoCLhSckau8XO5cce3gO1TJcJDPqFQekzPI8tV3iX1HsP1S7x7WXZq6dbGqFEet7nkg62T3lgjtpHDLcH5L0uO1A1UQ9xGXpwtMao/KSvg6I4ErkyqgQ0KNuBwqY3RH3HPag3DHsM10iHHhQhQioFstvKnBc+SIb05dzLSJqmJox4whyIDCEM6xbghUFUO7BaqbVGhJMnTLYHFtG/NgZ8Mi0gcjekuEdm7HwLF+G9K9EqFKiHtrmCJNF2UJVQHDNK+El9UBlOMfulF3kC1Mn3PsSraBOEcKpP746iBjPCZeIAKvCHIEc8TzF1VV7CpGvgeFBIgEjZqNgTQlVj0L48eremIRlPryETFw+6u+s5X2nr3ZzdgtER0ROjBjuzVmYHi/AenWg6pT3CtrlKh0IcZm0MlMDkJZQh+ZCy9oQQhiAztuc5GX47vcqGKAR3QiIx+Xt0wQpyp7QbirMVuN8Rzb0nlAzwXJ8sGIsopsm/RDiQA13Nh09h3FG4FZ3T0bkKdXIqIHIHfwEtOtHzzGtz7mjO5xrwxSQmLsobUg0hSIP0xoSoDrtToYxdEtMGTz9AuSb0xV8u2rfLsGUY4ugYiXZ59yZVCRjT7E/7ifyMZ5P/crs2erpGMJQJdDm876mvKsb2YXL/ukHcqDl+tLHIyNHcwfLMo3HZIx0bIh+Yq9xzYjFjnBVv8lWPF6BoIb8S5ZPYcpIljPo/NdLM+pc8BHrOTIV+Ftglw6g7M8xuBQO7EUaX6P7u7e0kHKHaSs7pYPmgLZ9SZE2jYnnBFEJLIbO9RzfsKfgC+2cdvK4Y4xXgW9GrMxic4JjElmYIwVbg3ztTD2GRbltp1phc4eSePqDo/I9d3cnTlCMUhZEdFbU91M3FtLVGujDpPQl+DkYRlxzj99INEu6wwsOY/rKnthOenRHPGp1X7uFiIesR7tyyO+0H4lDlJWX41KZe4r7pVU1cjAVV67JbZByD0AG7qB4RIij1LBs/2GPRDxYXAmNixMGAYp0Zc1ANM216AY1wDiXsm0zUttm1DwJSDbttQDEQenno/ejRiYRF/QAOzqvQUxyoHFvZWs2vb0tsoakxWi48wATsxgoteXgtM0ALs2crIHH/dKexb9GzkL20g74HDzxfUVugMT1Jsvtyru/ehHuS+X9NaSjGozHvDDrd/zNDBZvqAtipytjXt7JlRLtqgNVktW6NcDg4y4wcgajJSYX7Yp7pXeLPpj/j+LAX7Ewcy+Bi1f1uYFWSmbF2H8va1xr5QO0HrTiuy49R6wpw2q+oq7AQjqX8TTEPf2FCnr+/KhlZUVttMD/cedtnYAgjYn4umMe9V2a3fWAbYzdAemy54/SOzrFA5AUO8inv64tydAGd2X66ysrPC0eKD3uOti3gAEWRGJEXUWxb1yRWdzu7grQ589HrAnEiYlhl6vplpBm5Ri+X1Dzrq4t95Q5m6yrVZKVjgbPJAYehs2bABSrIizN+6VW6yhWQfYcJycnQz2jMK8zZ/UfqWc7XFvz51t6OZ9ZWVlhbPEA/akwp7Nn1crZQMidkzc2zOlWrmBJlrOrHA2e2Az0RtpjxUBeJcA2Xlxr9pqm9ilfRHPZNWz3wP21MLUzZ9dKyVZxE6Ne3v6urTP0mWFnegBe3ZhfHIAd21VsogdH/e23ap9m3SOlZIVzloP2ADe/Dl2Ip45ca/Ol2vZWXv+MsP69IA9x5CzyT6Qe6bFvXWpdc4mPWMFZYWz2QObPc3P2Li3J2uznrECssJO8MAGT/MzP+7tSdugZyxfVthRHrCnGVanX+vPobi3Z095Jt0nljAr7HAP2D4QO9nnYtyrk5nukx1+sjPz4x6InexzN+6tc2I+sZis8IzzgDnZWdy7U2t80iEtdMRZaUd7IIv7hNOXdYAEpzyzQFncdzqfWQfo5J2djMvivqezl3WAnty0c4iyuN/Yuco6wMb8dbZSZ3G/yTOTdYBNOu7sYMvivt/zkHWAfj34dPBncT8wr2cdYGCu3HpBWdwP3sdZBxi8TwctMYv7QXvUk5d1AM8ZZ1fx/wdrq+sjxAL0oQAAAABJRU5ErkJggg==;fontSize=35;fontStyle=1" parent="1" vertex="1">
          <mxGeometry x="-370" y="310" width="59.76" height="60" as="geometry" />
        </mxCell>
        <mxCell id="01VjT6T3kN2u5HqJVLsv-281" value="$$\varepsilon$$" style="text;html=1;align=center;verticalAlign=middle;resizable=0;points=[];autosize=1;strokeColor=none;fillColor=none;fontSize=35;fontStyle=1" parent="1" vertex="1">
          <mxGeometry x="-160" y="315" width="270" height="60" as="geometry" />
        </mxCell>
        <mxCell id="01VjT6T3kN2u5HqJVLsv-283" value="$$\log\left(\varepsilon_{\sigma}\right)$$" style="text;html=1;align=center;verticalAlign=middle;resizable=0;points=[];autosize=1;strokeColor=none;fillColor=none;fontSize=35;fontStyle=1" parent="1" vertex="1">
          <mxGeometry x="-60" y="519.25" width="630" height="60" as="geometry" />
        </mxCell>
        <mxCell id="01VjT6T3kN2u5HqJVLsv-342" value="latent_dim=N&lt;br style=&quot;font-size: 35px;&quot;&gt;label_dim=i" style="text;html=1;align=center;verticalAlign=middle;resizable=0;points=[];autosize=1;strokeColor=none;fillColor=none;fontSize=35;fontStyle=1" parent="1" vertex="1">
          <mxGeometry x="-35.72" y="40" width="230" height="100" as="geometry" />
        </mxCell>
        <mxCell id="01VjT6T3kN2u5HqJVLsv-348" value="" style="strokeWidth=1;html=1;shape=mxgraph.flowchart.annotation_1;align=left;pointerEvents=1;rotation=-180;fontSize=35;fontStyle=1" parent="1" vertex="1">
          <mxGeometry x="130" y="217" width="10" height="116" as="geometry" />
        </mxCell>
        <mxCell id="01VjT6T3kN2u5HqJVLsv-351" value="$$z_{i}=f((I-A^T)^{-1}\varepsilon_{i}&lt;br style=&quot;font-size: 35px;&quot;&gt;)$$" style="text;html=1;strokeColor=none;fillColor=none;align=center;verticalAlign=middle;whiteSpace=wrap;rounded=0;fontSize=35;fontStyle=1" parent="1" vertex="1">
          <mxGeometry x="370" y="250" width="60" height="30" as="geometry" />
        </mxCell>
        <mxCell id="01VjT6T3kN2u5HqJVLsv-386" value="" style="endArrow=classic;html=1;rounded=0;exitX=-0.1;exitY=0.552;exitDx=0;exitDy=0;exitPerimeter=0;fontSize=35;fontStyle=1" parent="1" source="01VjT6T3kN2u5HqJVLsv-348" edge="1">
          <mxGeometry width="50" height="50" relative="1" as="geometry">
            <mxPoint x="538" y="330" as="sourcePoint" />
            <mxPoint x="190" y="269" as="targetPoint" />
          </mxGeometry>
        </mxCell>
        <mxCell id="01VjT6T3kN2u5HqJVLsv-391" value="" style="strokeWidth=1;html=1;shape=mxgraph.flowchart.annotation_1;align=left;pointerEvents=1;rotation=-180;fontSize=35;fontStyle=1" parent="1" vertex="1">
          <mxGeometry x="130" y="356.81" width="10" height="114" as="geometry" />
        </mxCell>
        <mxCell id="01VjT6T3kN2u5HqJVLsv-392" value="" style="endArrow=classic;html=1;rounded=0;exitX=0;exitY=0.5;exitDx=0;exitDy=0;exitPerimeter=0;fontSize=35;fontStyle=1" parent="1" source="01VjT6T3kN2u5HqJVLsv-391" edge="1">
          <mxGeometry width="50" height="50" relative="1" as="geometry">
            <mxPoint x="738" y="405" as="sourcePoint" />
            <mxPoint x="640" y="414" as="targetPoint" />
          </mxGeometry>
        </mxCell>
        <mxCell id="01VjT6T3kN2u5HqJVLsv-397" value="" style="endArrow=classic;html=1;rounded=0;entryX=0;entryY=0.5;entryDx=0;entryDy=0;strokeWidth=1;fontSize=35;fontStyle=1" parent="1" edge="1">
          <mxGeometry width="50" height="50" relative="1" as="geometry">
            <mxPoint x="-91.41" y="345" as="sourcePoint" />
            <mxPoint x="-51.40999999999954" y="345" as="targetPoint" />
          </mxGeometry>
        </mxCell>
        <mxCell id="01VjT6T3kN2u5HqJVLsv-401" value="$$z_{3}$$" style="ellipse;whiteSpace=wrap;html=1;aspect=fixed;fontSize=35;align=center;fontStyle=1" parent="1" vertex="1">
          <mxGeometry x="412.44" y="-27.5" width="72.5" height="72.5" as="geometry" />
        </mxCell>
        <mxCell id="01VjT6T3kN2u5HqJVLsv-402" value="$$z_{1}$$" style="ellipse;whiteSpace=wrap;html=1;aspect=fixed;fontSize=35;align=center;fontStyle=1" parent="1" vertex="1">
          <mxGeometry x="234.5" y="-20" width="67.5" height="67.5" as="geometry" />
        </mxCell>
        <mxCell id="01VjT6T3kN2u5HqJVLsv-403" value="$$z_{2}$$" style="ellipse;whiteSpace=wrap;html=1;aspect=fixed;fontSize=35;align=center;fontStyle=1" parent="1" vertex="1">
          <mxGeometry x="330.75" y="45" width="67.5" height="67.5" as="geometry" />
        </mxCell>
        <mxCell id="01VjT6T3kN2u5HqJVLsv-404" value="$$z_{4}$$" style="ellipse;whiteSpace=wrap;html=1;aspect=fixed;fontSize=35;align=center;fontStyle=1" parent="1" vertex="1">
          <mxGeometry x="504.5" y="41.25" width="75" height="75" as="geometry" />
        </mxCell>
        <mxCell id="01VjT6T3kN2u5HqJVLsv-409" value="" style="endArrow=classic;html=1;rounded=0;exitX=1;exitY=1;exitDx=0;exitDy=0;entryX=0;entryY=0;entryDx=0;entryDy=0;fontSize=35;align=center;fontStyle=1" parent="1" source="01VjT6T3kN2u5HqJVLsv-402" target="01VjT6T3kN2u5HqJVLsv-403" edge="1">
          <mxGeometry width="50" height="50" relative="1" as="geometry">
            <mxPoint x="182" y="240" as="sourcePoint" />
            <mxPoint x="232" y="190" as="targetPoint" />
          </mxGeometry>
        </mxCell>
        <mxCell id="01VjT6T3kN2u5HqJVLsv-412" value="" style="endArrow=classic;html=1;rounded=0;exitX=0;exitY=1;exitDx=0;exitDy=0;entryX=1;entryY=0;entryDx=0;entryDy=0;fontSize=35;align=center;fontStyle=1" parent="1" source="01VjT6T3kN2u5HqJVLsv-401" target="01VjT6T3kN2u5HqJVLsv-403" edge="1">
          <mxGeometry width="50" height="50" relative="1" as="geometry">
            <mxPoint x="308" y="16" as="sourcePoint" />
            <mxPoint x="342" y="40" as="targetPoint" />
          </mxGeometry>
        </mxCell>
        <mxCell id="01VjT6T3kN2u5HqJVLsv-413" value="" style="endArrow=classic;html=1;rounded=0;exitX=1;exitY=1;exitDx=0;exitDy=0;entryX=0;entryY=0;entryDx=0;entryDy=0;fontSize=35;align=center;fontStyle=1" parent="1" source="01VjT6T3kN2u5HqJVLsv-401" target="01VjT6T3kN2u5HqJVLsv-404" edge="1">
          <mxGeometry width="50" height="50" relative="1" as="geometry">
            <mxPoint x="382" y="16" as="sourcePoint" />
            <mxPoint x="358" y="44" as="targetPoint" />
          </mxGeometry>
        </mxCell>
        <mxCell id="01VjT6T3kN2u5HqJVLsv-414" value="$$\varepsilon_{1}$$" style="ellipse;whiteSpace=wrap;html=1;aspect=fixed;dashed=1;fontSize=35;align=center;fontStyle=1" parent="1" vertex="1">
          <mxGeometry x="232" y="-126" width="72.5" height="72.5" as="geometry" />
        </mxCell>
        <mxCell id="01VjT6T3kN2u5HqJVLsv-415" value="$$\varepsilon_{2}$$" style="ellipse;whiteSpace=wrap;html=1;aspect=fixed;dashed=1;fontSize=35;align=center;fontStyle=1" parent="1" vertex="1">
          <mxGeometry x="327" y="-69.5" width="75" height="75" as="geometry" />
        </mxCell>
        <mxCell id="01VjT6T3kN2u5HqJVLsv-416" value="$$\varepsilon_{3}$$" style="ellipse;whiteSpace=wrap;html=1;aspect=fixed;dashed=1;fontSize=35;align=center;fontStyle=1" parent="1" vertex="1">
          <mxGeometry x="409.94" y="-140" width="75" height="75" as="geometry" />
        </mxCell>
        <mxCell id="01VjT6T3kN2u5HqJVLsv-417" value="$$\varepsilon_{i}$$" style="ellipse;whiteSpace=wrap;html=1;aspect=fixed;dashed=1;fontSize=35;align=center;fontStyle=1" parent="1" vertex="1">
          <mxGeometry x="504.5" y="-75" width="75" height="75" as="geometry" />
        </mxCell>
        <mxCell id="01VjT6T3kN2u5HqJVLsv-418" value="" style="endArrow=classic;html=1;rounded=0;exitX=0.5;exitY=1;exitDx=0;exitDy=0;entryX=0.5;entryY=0;entryDx=0;entryDy=0;fontSize=35;align=center;fontStyle=1" parent="1" source="01VjT6T3kN2u5HqJVLsv-414" target="01VjT6T3kN2u5HqJVLsv-402" edge="1">
          <mxGeometry width="50" height="50" relative="1" as="geometry">
            <mxPoint x="308" y="16" as="sourcePoint" />
            <mxPoint x="336" y="44" as="targetPoint" />
          </mxGeometry>
        </mxCell>
        <mxCell id="01VjT6T3kN2u5HqJVLsv-420" value="" style="endArrow=classic;html=1;rounded=0;exitX=0.5;exitY=1;exitDx=0;exitDy=0;entryX=0.5;entryY=0;entryDx=0;entryDy=0;fontSize=35;align=center;fontStyle=1" parent="1" source="01VjT6T3kN2u5HqJVLsv-415" target="01VjT6T3kN2u5HqJVLsv-403" edge="1">
          <mxGeometry width="50" height="50" relative="1" as="geometry">
            <mxPoint x="297" y="-40" as="sourcePoint" />
            <mxPoint x="297" y="-10" as="targetPoint" />
          </mxGeometry>
        </mxCell>
        <mxCell id="01VjT6T3kN2u5HqJVLsv-426" value="" style="endArrow=classic;html=1;rounded=0;exitX=0.5;exitY=1;exitDx=0;exitDy=0;fontSize=35;align=center;entryX=0.5;entryY=0;entryDx=0;entryDy=0;fontStyle=1" parent="1" source="01VjT6T3kN2u5HqJVLsv-416" target="01VjT6T3kN2u5HqJVLsv-401" edge="1">
          <mxGeometry width="50" height="50" relative="1" as="geometry">
            <mxPoint x="471.40999999999997" y="-52.5" as="sourcePoint" />
            <mxPoint x="471.68999999999994" y="-22.5" as="targetPoint" />
          </mxGeometry>
        </mxCell>
        <mxCell id="01VjT6T3kN2u5HqJVLsv-428" value="&lt;span style=&quot;font-style: normal;&quot;&gt;$$A$$&lt;/span&gt;" style="text;html=1;strokeColor=none;fillColor=none;align=center;verticalAlign=middle;whiteSpace=wrap;rounded=0;fontSize=35;fontStyle=3" parent="1" vertex="1">
          <mxGeometry x="477" y="-135" width="130" height="65" as="geometry" />
        </mxCell>
        <mxCell id="01VjT6T3kN2u5HqJVLsv-430" value="" style="endArrow=classic;html=1;rounded=0;strokeWidth=1;fontSize=35;fontStyle=1" parent="1" edge="1">
          <mxGeometry width="50" height="50" relative="1" as="geometry">
            <mxPoint x="700" y="315" as="sourcePoint" />
            <mxPoint x="780" y="315" as="targetPoint" />
          </mxGeometry>
        </mxCell>
        <mxCell id="01VjT6T3kN2u5HqJVLsv-432" value="$$\mathbf{z}$$" style="text;html=1;align=center;verticalAlign=middle;resizable=0;points=[];autosize=1;strokeColor=none;fillColor=none;fontSize=35;fontStyle=1" parent="1" vertex="1">
          <mxGeometry x="680" y="280" width="260" height="60" as="geometry" />
        </mxCell>
        <mxCell id="01VjT6T3kN2u5HqJVLsv-433" value="$$\mathbf{z}&#39;_{j}$$" style="ellipse;whiteSpace=wrap;html=1;aspect=fixed;fontSize=35;fontStyle=1" parent="1" vertex="1">
          <mxGeometry x="1078.5" y="237.25" width="122.5" height="122.5" as="geometry" />
        </mxCell>
        <mxCell id="01VjT6T3kN2u5HqJVLsv-434" value="$$\mathbf{z}_{i}$$" style="ellipse;whiteSpace=wrap;html=1;aspect=fixed;fontSize=35;fontStyle=1" parent="1" vertex="1">
          <mxGeometry x="906" y="369.75" width="65" height="65" as="geometry" />
        </mxCell>
        <mxCell id="01VjT6T3kN2u5HqJVLsv-435" value="$$\mathbf{z}_{2}$$" style="ellipse;whiteSpace=wrap;html=1;aspect=fixed;fontSize=35;fontStyle=1" parent="1" vertex="1">
          <mxGeometry x="906" y="264.75" width="65" height="65" as="geometry" />
        </mxCell>
        <mxCell id="01VjT6T3kN2u5HqJVLsv-436" value="$$\mathbf{z}_{1}$$" style="ellipse;whiteSpace=wrap;html=1;aspect=fixed;fontSize=35;fontStyle=1" parent="1" vertex="1">
          <mxGeometry x="906" y="185.25" width="65" height="65" as="geometry" />
        </mxCell>
        <mxCell id="01VjT6T3kN2u5HqJVLsv-437" value="" style="shape=waypoint;sketch=0;fillStyle=solid;size=6;pointerEvents=1;points=[];fillColor=none;resizable=0;rotatable=0;perimeter=centerPerimeter;snapToPoint=1;fontSize=35;fontStyle=1" parent="1" vertex="1">
          <mxGeometry x="936" y="329.75" width="20" height="20" as="geometry" />
        </mxCell>
        <mxCell id="01VjT6T3kN2u5HqJVLsv-438" value="" style="shape=waypoint;sketch=0;fillStyle=solid;size=6;pointerEvents=1;points=[];fillColor=none;resizable=0;rotatable=0;perimeter=centerPerimeter;snapToPoint=1;fontSize=35;fontStyle=1" parent="1" vertex="1">
          <mxGeometry x="936" y="349.75" width="20" height="20" as="geometry" />
        </mxCell>
        <mxCell id="01VjT6T3kN2u5HqJVLsv-439" value="" style="shape=waypoint;sketch=0;fillStyle=solid;size=6;pointerEvents=1;points=[];fillColor=none;resizable=0;rotatable=0;perimeter=centerPerimeter;snapToPoint=1;fontSize=35;fontStyle=1" parent="1" vertex="1">
          <mxGeometry x="936" y="339.75" width="20" height="20" as="geometry" />
        </mxCell>
        <mxCell id="01VjT6T3kN2u5HqJVLsv-440" value="" style="endArrow=classic;html=1;rounded=0;exitX=0.96;exitY=0.7;exitDx=0;exitDy=0;entryX=0;entryY=0;entryDx=0;entryDy=0;fillColor=#0050ef;strokeColor=#001DBC;exitPerimeter=0;fontSize=35;fontStyle=1" parent="1" source="01VjT6T3kN2u5HqJVLsv-436" target="01VjT6T3kN2u5HqJVLsv-433" edge="1">
          <mxGeometry width="50" height="50" relative="1" as="geometry">
            <mxPoint x="861" y="409.75" as="sourcePoint" />
            <mxPoint x="911" y="359.75" as="targetPoint" />
          </mxGeometry>
        </mxCell>
        <mxCell id="01VjT6T3kN2u5HqJVLsv-441" value="" style="endArrow=classic;html=1;rounded=0;fillColor=#008a00;strokeColor=#005700;exitX=1;exitY=1;exitDx=0;exitDy=0;entryX=0.059;entryY=0.247;entryDx=0;entryDy=0;entryPerimeter=0;fontSize=35;fontStyle=1" parent="1" source="01VjT6T3kN2u5HqJVLsv-436" target="01VjT6T3kN2u5HqJVLsv-433" edge="1">
          <mxGeometry width="50" height="50" relative="1" as="geometry">
            <mxPoint x="958" y="262.75" as="sourcePoint" />
            <mxPoint x="1081" y="299.75" as="targetPoint" />
          </mxGeometry>
        </mxCell>
        <mxCell id="01VjT6T3kN2u5HqJVLsv-442" value="" style="endArrow=classic;html=1;rounded=0;exitX=1;exitY=0.5;exitDx=0;exitDy=0;entryX=0;entryY=0.5;entryDx=0;entryDy=0;fillColor=#0050ef;strokeColor=#001DBC;fontSize=35;fontStyle=1" parent="1" target="01VjT6T3kN2u5HqJVLsv-433" edge="1">
          <mxGeometry width="50" height="50" relative="1" as="geometry">
            <mxPoint x="971" y="302.25" as="sourcePoint" />
            <mxPoint x="1106" y="352.25" as="targetPoint" />
          </mxGeometry>
        </mxCell>
        <mxCell id="01VjT6T3kN2u5HqJVLsv-443" value="" style="endArrow=classic;html=1;rounded=0;fillColor=#008a00;strokeColor=#005700;fontSize=35;entryX=-0.004;entryY=0.586;entryDx=0;entryDy=0;entryPerimeter=0;exitX=0.923;exitY=0.712;exitDx=0;exitDy=0;exitPerimeter=0;fontStyle=1" parent="1" source="01VjT6T3kN2u5HqJVLsv-435" target="01VjT6T3kN2u5HqJVLsv-433" edge="1">
          <mxGeometry width="50" height="50" relative="1" as="geometry">
            <mxPoint x="960" y="312" as="sourcePoint" />
            <mxPoint x="1070" y="312" as="targetPoint" />
          </mxGeometry>
        </mxCell>
        <mxCell id="01VjT6T3kN2u5HqJVLsv-444" value="" style="endArrow=classic;html=1;rounded=0;exitX=1;exitY=0;exitDx=0;exitDy=0;entryX=0;entryY=1;entryDx=0;entryDy=0;fillColor=#0050ef;strokeColor=#001DBC;fontSize=35;fontStyle=1" parent="1" source="01VjT6T3kN2u5HqJVLsv-434" target="01VjT6T3kN2u5HqJVLsv-433" edge="1">
          <mxGeometry width="50" height="50" relative="1" as="geometry">
            <mxPoint x="971" y="404.75" as="sourcePoint" />
            <mxPoint x="1106" y="454.75" as="targetPoint" />
          </mxGeometry>
        </mxCell>
        <mxCell id="01VjT6T3kN2u5HqJVLsv-445" value="" style="endArrow=classic;html=1;rounded=0;fillColor=#008a00;strokeColor=#005700;exitX=0.94;exitY=0.3;exitDx=0;exitDy=0;exitPerimeter=0;entryX=0.28;entryY=0.94;entryDx=0;entryDy=0;entryPerimeter=0;fontSize=35;fontStyle=1" parent="1" source="01VjT6T3kN2u5HqJVLsv-434" target="01VjT6T3kN2u5HqJVLsv-433" edge="1">
          <mxGeometry width="50" height="50" relative="1" as="geometry">
            <mxPoint x="971" y="414.75" as="sourcePoint" />
            <mxPoint x="1101" y="339.75" as="targetPoint" />
          </mxGeometry>
        </mxCell>
        <mxCell id="01VjT6T3kN2u5HqJVLsv-449" value="$$\alpha_{1j}$$" style="text;html=1;align=center;verticalAlign=middle;resizable=0;points=[];autosize=1;strokeColor=none;fillColor=none;fontSize=35;fontStyle=1" parent="1" vertex="1">
          <mxGeometry x="890" y="180" width="270" height="60" as="geometry" />
        </mxCell>
        <mxCell id="01VjT6T3kN2u5HqJVLsv-450" value="$$\alpha_{2j}$$" style="text;html=1;align=center;verticalAlign=middle;resizable=0;points=[];autosize=1;strokeColor=none;fillColor=none;fontSize=35;fontStyle=1" parent="1" vertex="1">
          <mxGeometry x="884.19" y="245" width="270" height="60" as="geometry" />
        </mxCell>
        <mxCell id="01VjT6T3kN2u5HqJVLsv-451" value="$$\alpha_{ij}$$" style="text;html=1;align=center;verticalAlign=middle;resizable=0;points=[];autosize=1;strokeColor=none;fillColor=none;fontSize=35;fontStyle=1" parent="1" vertex="1">
          <mxGeometry x="889.19" y="299.75" width="260" height="60" as="geometry" />
        </mxCell>
        <mxCell id="01VjT6T3kN2u5HqJVLsv-452" value="$$\alpha_{jj}$$" style="text;html=1;align=center;verticalAlign=middle;resizable=0;points=[];autosize=1;strokeColor=none;fillColor=none;fontSize=35;fontStyle=1" parent="1" vertex="1">
          <mxGeometry x="990" y="112.5" width="260" height="60" as="geometry" />
        </mxCell>
        <mxCell id="01VjT6T3kN2u5HqJVLsv-453" value="" style="endArrow=classic;html=1;rounded=0;fillColor=#008a00;strokeColor=#005700;exitX=1;exitY=0.5;exitDx=0;exitDy=0;fontSize=35;fontStyle=1" parent="1" source="01VjT6T3kN2u5HqJVLsv-433" edge="1">
          <mxGeometry width="50" height="50" relative="1" as="geometry">
            <mxPoint x="1161" y="402.75" as="sourcePoint" />
            <mxPoint x="1300" y="290" as="targetPoint" />
          </mxGeometry>
        </mxCell>
        <mxCell id="01VjT6T3kN2u5HqJVLsv-454" value="" style="endArrow=classic;html=1;rounded=0;exitX=1;exitY=0.36;exitDx=0;exitDy=0;fillColor=#0050ef;strokeColor=#001DBC;exitPerimeter=0;fontSize=35;fontStyle=1" parent="1" source="01VjT6T3kN2u5HqJVLsv-433" edge="1">
          <mxGeometry width="50" height="50" relative="1" as="geometry">
            <mxPoint x="1170" y="301.75" as="sourcePoint" />
            <mxPoint x="1300" y="281" as="targetPoint" />
          </mxGeometry>
        </mxCell>
        <mxCell id="01VjT6T3kN2u5HqJVLsv-458" value="" style="endArrow=classic;html=1;rounded=0;strokeWidth=1;fontSize=35;fontStyle=1" parent="1" edge="1">
          <mxGeometry width="50" height="50" relative="1" as="geometry">
            <mxPoint x="840" y="315" as="sourcePoint" />
            <mxPoint x="900" y="315" as="targetPoint" />
          </mxGeometry>
        </mxCell>
        <mxCell id="01VjT6T3kN2u5HqJVLsv-461" value="heads=K" style="text;html=1;align=center;verticalAlign=middle;resizable=0;points=[];autosize=1;strokeColor=none;fillColor=none;fontSize=35;fontStyle=1" parent="1" vertex="1">
          <mxGeometry x="1000" y="65.25" width="160" height="60" as="geometry" />
        </mxCell>
        <mxCell id="01VjT6T3kN2u5HqJVLsv-462" value="$$\mathbf{z}&#39;$$" style="text;html=1;align=center;verticalAlign=middle;resizable=0;points=[];autosize=1;strokeColor=none;fillColor=none;fontSize=35;fontStyle=1" parent="1" vertex="1">
          <mxGeometry x="778.5" y="510" width="270" height="60" as="geometry" />
        </mxCell>
        <mxCell id="01VjT6T3kN2u5HqJVLsv-476" value="$$\log\left(\mathbf{z}_{\sigma}\right)$$" style="text;html=1;align=center;verticalAlign=middle;resizable=0;points=[];autosize=1;strokeColor=none;fillColor=none;fontSize=35;fontStyle=1" parent="1" vertex="1">
          <mxGeometry x="209.5" y="525" width="620" height="60" as="geometry" />
        </mxCell>
        <mxCell id="01VjT6T3kN2u5HqJVLsv-483" value="" style="endArrow=classic;html=1;rounded=0;strokeWidth=1;fontStyle=1;fontSize=35;" parent="1" edge="1">
          <mxGeometry width="50" height="50" relative="1" as="geometry">
            <mxPoint x="760" y="800" as="sourcePoint" />
            <mxPoint x="760" y="868.4100000000001" as="targetPoint" />
          </mxGeometry>
        </mxCell>
        <mxCell id="01VjT6T3kN2u5HqJVLsv-486" value="" style="shape=image;imageAspect=0;aspect=fixed;verticalLabelPosition=bottom;verticalAlign=top;image=data:image/png,iVBORw0KGgoAAAANSUhEUgAAAP0AAAD+CAIAAAB+w5QFAAAgAElEQVR4Ae29CbQlV3UevO/4xn5Tz1K35gkhBmExxIBi+H8TD1lOCMuwbOMVsCGGILVwsAlg7D9xjP3HTtYChHFsEf8KGAyWwVMwjo0xk0AIYw2A0DyhnvvN9w13/r+9z1zDvfe9e99TP3VVv646Z89n1z6ndp06VTf3mtvup2zLPHCOeSB/jrU3a27mAfZAFvdZHJyLHsji/lw861mbs7jPYuBc9EAW9+fiWc/anMV9FgPnogeyuD8Xz3rW5izusxg4Fz2Qxf25eNazNmdxn8XAueiBLO7PxbOetTmL+ywGzkUPZHF/Lp71rM1Z3GcxcC56IIv7c/GsZ23O4j6LgXPRA1ncn4tnPWtzFvdZDJyLHsji/lw861mbs7jPYuBc9EAW9+fiWc/aXMxckHlgIB4YKuRKhVyOqE3UbGLHBWwo1luqKPWzY5fF/dlxHnamFflcrpCjYp4my7R/V2m0lBsu5EZKudJQrtFsray31uvttXr7WKW1VmvXWtRoU6t9VvSBLO53ZsSdBVYj6PeO0Fgpd2A09wP78wenhi+YLg0XykRD8lcjqqy21mfX2t850Ti52DpeaR1baZ1ZOyuG/yzuz4II2mkmIJ2ZKNKFk7lD47nr9heuOVwgQrgfCNsByMxonkbH6PClVaI1our9x2pfPtr4zmxzqUnVRrvRaGMLubaplsX9Njn6GaNmKJ87b6z4gj2lf3FJfWZ6mgh/XTd1BaCrzsPf6rHTJz87W35ktnFmubFQaXRl3gqCLO63wqvPWJnD+dwF48XrL9/1Ixfv3uxHx0bP23vxm/aufe545a6j6w+32surze33Vxb32+/zHakxl8uV87kLJ4r//KLxV128t8825Gjkxw6OlApnKmuNWq1VReRvb8KTxX2fZ/CcYEfQjxYLB8cLLz5/5FWX9hv01mU/vG/XE7M1audOLNFyFYXty/Wz51b2LGSFVA+UC/l9o8MvPjjyE1ftTyXaDGLoTc/ae+X+oamR8lChQDz7v01bFvfb5OgdrWa8nL9yb/HVV29FtJRefVnx8HhhGE8BtnHbVmXb2K5M1cA8UMjn9u/K/8CFCJWBZTi+cZOFmWv25qeGcvoBr4/bsnIW91vm2meKYDyZumJP+drpyS1rUOH6S8b3jxUK2xiM26hqy9yWCd5SD0wO5y+bUU+mtkrPMI1cMVOeKG9fNG6fpq3yWSZ3iz0wNZy/bv/wFiuhl54/uiuL+632cia/Rw+MFPMHxopFmuiRftNke3eN7RstEW3TlE423m/6TJ0TjOOl3Hnj2xOOmCotbttMZhb350T4brqRxXzuANagbcs2M1Is5XPbM4ufxf22nNIdq2RqKP+CA+PbY/6h8eJePBbelkwni/vtOac7VQuicK6GlfTbsWGwz2f5/XZ4OtPRzQN4mFRbwdL57djq7VqzvU3vY2Xj/Xac0Z2ro9ZsURtL5LdjxRjivsVxvx26srjfuTG5HZYv1drLte0IRHStegsvoW+Pruz3yrcjeHawDoThIsd9fevb0Dyx0ppf36bAz8b7rT+hO1kDwhCxSLS+9Y1Ym19ryfdHtl7VZl8V2w7LMh1ngwdWGu1jK3gbCi+Gb+3WpsrpVaQ5WZ6ztX7OpPfkgUq9fXyltYiXobZ4u+fo2tza9r1om+U5W3w+d7740yute05u9ZB/5q5TSO63z1lZ3G+fr3eoJsznPDyPuK9smf2V07WVJ5aosg03z6YNWdwbT2THFA+s1OnR+dZXjq4SzaeQ9Amev/9k88zqtn5DKov7Ps/ZM5+90WqfqLTuOYEhf2FrWpu78ylarG7THa1qQhb3W3Mqn1lSV+ptDPm33Y9WDXzIb37oH1sPzskndLbRaVncb6Ozd6wqPEk9s9r85rHmXzyEIX+Aod++7XsnHltoLNda27Qux5yCLO6NJ7JjBw+0+XPexyvtO4+1vvTUEhH++t8an33s5LeOV09UGliP1r+4DUnYplcKNmRTRnwWegB3net1OrrU/IdH2832/CsPI93v5YuwaU1Z/cvHlr7++BoE4sPIaURbB8/ifut8+0yTjNCvVOmJxfbfP9Karaz+5LMw335w441cpOaZP/pO/t7TTTwRW3s6gh42Z3G/8RN3bnOs1NpPLTVXa43vV0rPPzj//IMjM4VevraAuwI8AWh+/hHcJ7QeWWjiSXCj9bS5Mov7p831O1QxbkBX661as3asUn1yofbNp1bOmyhdtWfohdNVKuEdwTH5s41DOrREzfpdJysPzLVwrXhqCQsfnobExhqkCrnXyOxUBJpVMw908wC/BosfcsNnLTE3gp+1unQqP1nO7R7P750olAtYSZ/H170XVpqnlptIZh6Zq6808As/hKcB234Tm9CUbLxPcEoG6sEDPGbXm+06BnQiPNNdPd1CByjmCF8DKZZyQONnfNYb/HNuKFf5TaoepG4XSRb32+XpZ7qeNTOML+K1RF6yfzaFecz5WdzHXJIB+vXAWR3xqnHZc6t+T3LGvxM9kMX9Tjxrmc39eiCL+349mPHvRA9kcb8Tz1pmc78eyOK+Xw9m/DvRA1nc78SzltncrweyuO/Xgxn/TvRAFvc78axlNvfrgSzu+/Vgxr8TPZDF/U48a5nN/Xogi/t+PZjx70QPZHG/E89aZnO/Hsjivl8PZvw70QNZ3O/Es5bZ3K8Hsrjv14MZ/070QBb3O/GsZTb364Es7vv1YMa/Ez2Qxf1OPGuZzf16IIv7fj2Y8e9ED2RxvxPPWmZzvx7I4r5fD2b8O9EDWdzvxLOW2dyvB7K479eDGf9O9EAW9zvxrGU29+uBLO779WDGvxM9kMX9Tjxrmc39eiCL+349mPHvRA9kcb8Tz1pmc78eyOK+Xw9m/DvRA1nc78SzltncrweyuO/Xgxn/TvRAFvc78axlNvfrgSzu+/Vgxr8TPZDF/U48a5nN/Xogi/t+PZjx70QPZHG/E89aZnO/Hii+efm/QYb7JS5TMkdBSsWDsNa2q+sSHxxQaDTEQT1SQ2CPgnOkmleJdGBPL3NiY1wI1dSOCTSmEj1qEQI2OIF5PKouakISBun/jsYBPGKv6HgCoBIgoBCua2ETrbpkAyzaMFtAUHCKkqQ7rGWKgTyAV1T0ISCsWYkpBUNtjiDziilMXcFaRJuKlOMf4OWfG+WtTTktnqECYKRUZCd0EkTCp4gYA7/xQYoKClIWa6BMoyCiRdHovadAIFqLMoYFiBQ+aoGqxADeGChUqqr22iALEgLHron4IECgVQssAwoCBNpurMavKxq00wsbVqTJPGqG2t7JcAYIMBTIKMBZiVGkqKSJAjJwloiNiYXE2KDpDZaPrC3CJnVL2lYODGksliX44rgeBajWBAJCfr+mhAXERoNCadcEQgMBIa9m6nrQInL8O7uymQPEcZGlimQ5AxrJAEHmrFV6GGUuTSQ0qmMYchyxMQ3/R9HJE3Eu3jQeBKYkrIpbiTAAI8SjBI/ZmN0ZBCgqfKZM/9YQK0T4mIYLZicC0FapC4Uji8IMb0CmdDqQsYmZPQbRY+JIUzNM4MoaI0O4wl5hCVM7hlAYJ7sLnxKvJetKTLSgtb2aVIGS+gkwgVDtSmFQiLCVITHXIm4VzlCooQh5NWGqhJjgYo4bwMKUSVocH/T5NqfdjELWDOWNIERNN3Adg+Uo4SKSi/ivDkaB1qngypaY/4TGEZrW4+iApuSAhkyLxsHQWAia7cFQDOqWzJitAPHOoES7oNKMxrlODpdEYRgCKV0igZhNZAEihKUFjWSslh+iDLlnesDIknjj8ym0nn2GV1FoMj6o63RogSLSsiOc+qrCnIosuo/QJxAqCs+4iIi4BCEwUWyoebxXDTXjI1ukxGoR5gAEF7XFzKSKGs8VjndNxgpMNwBCEwmNyGeAJ46ptR0awRBNos8EIGaL6FZgMcdTr7g1i4MLmUDhDHcmjGg+MrFHxgBpgBPCdaFwZOBD+x8Zmb1kbbcvTDhBHFCC1kjwabWaCKkiVnYF1FJRljkWLZfBgmIih1VQqRsnhljD5NsXsLM8vWkJUQuAtZoNqRwtNL3DgC7QZlmsIEbbeApoLUlCISIH+b1nI58cJrBilRFb3Q2gFfYbpbopDFFFg4BhDORDvCcAKE0L2if8Woj1haHQshRcEXFZOgMfFULtUfFkaYwAhcyIuuiGY7kPnSeGOIFGgteTjGilI6FLiOioCGNTm000IowtShRqjBF2n0IFqGPSBJop4A3ZlKKUHqI0aQY+S0aBOfqy/LIOe2VnjNia47O4skUzo6fUUURLMQ1EeeQ54NWy0Af8P+ZnpLfZ6BQE4wQiBxHlAIpCC2RBGm+kCa8oEJwWpbBasCcRcphM6I0EjZaDZfcL1izLYbBagan6eFv2XaFUO1RQeu4Np6DpB2/45hO/e96P3/DtfI6Gb3gAFD95w4O8v/EhRS2+RtEq1QUDV1Rur85NIn0aC5iBggExLhYrKN7riip4+wTevBKliQIJHqNDSwkG2L+YJRDobXlnlRLu4ToU2SqtIq8LSYoC4wNxn//oLwTdg/uGGt8DMLpyrNcIKZOHlD5AowylJTQs5qgQWkcI1DyeTQ7PJVczlEaYjwuovIoUTT161AL54JpviAzy1W+9F8PH/bS8h0rjVBymAmGWjM1SnRR0uU//7hWG3NgbFaPgBmqOiiusCcyAnF1WgcdjqCI4TeG5NJHAmApksiCGJmASQCw/BcwoDxdQBRUhTN3FSGOAgBV9zAyicqKk4nUMBQRLZAhhIXIpcL1X9S2DcGim0FSGRHXNQKbSYCm1CaKDRWpOH69hTOljNYtPqYUxoTWaWYwBggcgujHN1FtOgPC6t/KInnvrPSC54K23Y3/pW78s+y/82e897z5auoqm5mkJWeMCLYqSMmxusjZsrde87cFL3/aPoH/N2x6Dx2ULbZbRS2NihzQWmGRQMR4BCDaqiBsiJwTYruxJlw4rkHUoIZ3lKOOEksdmY4BX0FcVQIKtd+EBm6iwF5xkjV/42FvQ3YLOYSrmKOdO7YQwCe71WE2uqULRIQ41Q6XFa7wcjBpzNCRSD4GGLRj9HAmXXM0QW1jMREcrpZ/4hbsllPFsO3c7zR+kFvQsUStHrYb8tajVovoEFUeosE6F86kwQ4eJqqIBIlpSmBDFqE5/5sPTzoiwxArN/xDjtYAJopvAPIRXBGlYM7weNPCcwbtjF7QlTIsPSxAUPP1pJlp6TRuwWCQKqQifyFGhowHh90A5xXYsdDXhVwOF6lzMpQc0M3AaQQxXSL8fCoMSY8Xq3m8OIDditXSNMeKA9W3QNY1lre6PcdigimF6cwRMrMwwOHXUtJS79t99A5w/8QvfMk6Fa5svpYkatVaoUadGjZp/TcdQfZwWFqg6R9UTVF2j6hLVjtFjkP0onSCqE1Vkf+bP/8clREt//nsz3ujo7FGWc9/yzPVN01xsX5QLEBnVDDnTBJvRmMCo9QbkYUWkqaE3UbUH3MDwDx0iU0zSrU41zxqkzDDNMWCx0FQ6HPWdAPvqH/4I4z1vrsO4EoPDmpDKLoArcIfenjBgaAGhgph8Q6U1OLyUjBHm6FEJKIQb5qgxjopLrkavePMdY1Rc4rF8uEb5EtFf0KlpahV4gG9XqAlJj9Ascpoy5UE5TMU9VECKP0qFQzSziwi9oswZP4S2nqD23f/j5Z6Jxh57FNWefq9o2GIgy8wFxpr/AUIqAW9QcbQCDnFhTWtwHGHJI466OSR0NcNijg7TscTk5n9HwiSkGu8Zowc/0/NM3evM3KscHSNcTWQLretu3HvNFhmiGKy5Hb2hUTwGrcYApnK9WiQzgbBAkirwnuVqUhy9TaCi1VBYLkNlGA+9+XGIuObNX1yj5m107F6a/0c6812a+yc6869p7183Tp2k2ldo7hjVjtIs7mGx1am1SLUKrZ+hKv5mqbqLJh6hJVwEHueMf/okrd/z+9f/q7fcB2X/6i2c68tmbFDu8BvC5XCLAgyvz6V9EjKamhsmNVmChOC6AcaoUpZl5MTYQ7FqbDbKU46efBEbk+m3LiizbQhfY0yK/DTwFz/+VhVn0tvcTgHtXhBScyVUw8E6QElftPxM6/334aqcPDhoiaEax+wUGkIjzNFwydH5RYMQrEdCV//830xS/knKfZNOwrkTVM5RCQP5KJU+OXdsaIL9jdR+7UxueIIuHmdW5CcY1dHrUCjxlaE4TYURKi8T7aXCuEzyHKTiJO2XnIdz/b/8g0ux583XHdQMwhxjtMKudobGHFNok/3syZEiCzH/ozhT9xRZHoMLj0IZJWeSXmGhuCTG3prl5ORs3DuYlLStSZYFegOCWHx6WK9oVDHI/Dcwd0xuihYT06T5Ai2GVuECFEBe3RZbP/fJMSrgD5H6IDWP0hLuSZt8Z9o8SOMPUgXlepXqFc7iy2N0xT5kMhzrGPWxz1MbOQ8gIHszPe8T9AASHtzsFkXgXkmEzqOLic4Q7YEJf/UHl2m7vYM1hmFBJQLwcMlFT6gqClkvtGnujUjUonqg9pSKjGg9EGyQ5ugjk2AKn47x+aWM9Zi4WtiNOQ23gDHYaaSAXSQasAxxHlP0mSQWKhrpzGIrApSndgx20pjA/HfKhVow9jmtb7ZjsWjFoeVqo3RN26BJVU2hjr7xIxiz5ylfp8JuGi1Su0rNIZEOssepUkUnqFJ7nfe8wKNGDz5FuQJdflA3AXgEPYhxJ/A/6d465ZpUqlO7wDBIa13P8zxzMsMD/mVchE3b9BF0GoQSuKJ4n1xwTGZ5fCzKCifAZLIk6QmUnpxEDbFWRKiCqoqIJM2WDEhR6RFZEzyYpQ8LljQdjND60if+feAgj5gFdBIiuCQCB3MlJdd1A60nJAhrQsIg81/zhAfXGX24lhTT52gCXW069cZbMPPSYDz3Ewze2COOAQEcob7WQCFXW2jz/GS9nceNLR7fIzJzdOnFOXQPcKDbgBhjP/Zvpmt/q3XXWD43RiUM+RAwShNIgegjr/nxN31JugaA6m8EzJ/9yJUsIjCLhfqbQ3LJ1SxNFBStM6EH84qdEFa8VxDWVH6PUBeTT1OczpIbVGePGCocQ2MMIhmqx3vpRM4yTctQr3sx1EgRsNsJ2O0ckylZvg4XBK3NkCrDu1wThMcoURzKSDPGBzgtmg+RkTRH+29985NvuAXjNOK5RTkErqJG6HPcr1NjjVpj+dpaE+N2rpkrtNslBG2Lpq7MrXFi00boS3LPt7HDRA/Tqak895F5qoO1SMNr1ED6tO9Nf75Eo22qTRLCHeKhZ5VoFGMQSt7QqfSbRqmjhXG7graFdMr6SCOjJFpCIDNOY9GCsrUE5QkgGzA4jyHaCoprNK5XGM8jSaRJMJZt5IdaLbWajZCqs0xo++gGRq0T4bSbkrVrAD1B6zPNFRVGj2kpI01n4KKB85Fxx/7tLYhRRPIoQ4ZbtIZoxnTBMA0t0/qu4bGTp1cumR79TrvSbMhgj4ht0notN75CzTEelATAoY/C8RW6bGzyb+kokiXcBp+iZonaRSo2qH0ZlY9TbReVJzknkq5D+zg/cv5nCwITjSO9GGCbIxtAzpncwKCRiphpbEkFR4zK0TCloK22GLES5uLMCZdSKn0SwmjZWCcRPXzhNaZIydUs2C9gFojJ1J+PAIhR/CdbjIpZHI11p5YhAjUrDkIa0FilCunEG2onW0qWwBdmhQiW6YKNtTKGNylpXidaYRmHkR6DNO5HiXadojW+f0UC3m6P0tA0lU88unL5YeDrV18wjJmc+jo18ZA2R2Pj7ZWTbdzjrtc4F5LMn/KI7ib9Ft2HYRyia9Se4X0L4/35lF+keoMaRaqvUr1J9RpH/wmkPT/287yUTTbjWG01H2KWG1ocBQmisP1xFpFjZEaoPXFekWWI5xIMEGkOLlxWpycDRYC9zRJJwdqDgpMWKXvcftFQMWuwGUSqQB6egNTKtWJd4xBwmxOhNUSoWIaj4TKLNZvUBG/sE2pHo8j13sgxhjHYwEwhYHDCLJg1Gz6jU44R04xcjDXPp/NaVF6g5XEaQdAP0Wh9mb5PSwtU33tJ4Z5vIbbpzs+tXnvNyC0vuPCC5+ZecvVhPLOtHKf1OVr8Pi08SctnaGGJjhRfUGjQ8nFaXqQl6UsX3vomTN/MUOHzj62hA1SogeRnnmp4IrbKcY8rzTEQ/ujPnRb7bRu1cYH9xmDX0oDHespjcn70gFaOV1CnzEoOTpjP6iOMP5nLE2XLkGnLjs/CYmKBMZslMgV1Su1eJMfkewKMIH00Ypjvq598mwpOc5FBzSt6tRCqmLy9uRZH2Q0Js3cUIUi3M3zBMRAQVLT0JFi6BIN56Gf/8HKaeYhOLlNObm3zuGw2eJq+gSrylmfRBCQjZJHHf+lzlct+FGeZfo0uuJsO3fLl2yeQpzSoiJtWTNy06MwsT/KAubyLMME/hG60C7l8rkX5CcpPUmGCCnuoOESFXZTHep7dPK9fyNP4//n/ftBYlOKqsHlhLWT1cF7R0oQFoYiRxQDCxNBkTCjTEiuwZunEmYxLhrLQGKY7wHIhg9Xdxxx1/7GdyhHYjis41Ry3t1jVuSyboYiPB0zibWKAGxEgRvpnoMwz0nVeoyquQZtiCFiUL1VJu/dn/xcSj/vo5HPo4CP3cpSPUX7hZBO3PouP0ySVZu9oP0XrX/jCIjL5L/5V5Vk/Wnob7Vmfb//K0Sc++dDtY1NUW6R2nZrr9J8ve87CSWrVafowD+Z4eLt0jJawaqdOs8vtaqu5RPhrYHp0lp8B1E9S4xit4npyhpp/e+tLn/3Gv4TF/+KN34OVP/JGeaZr7NUNN/arFum2GKBxjvOh4lZeMHsj0Z1gXYpKMwz6KHwgZW3BZgRaM6TAFnoqjPCA01YCqVzxzlgoVslJbj7ERWyxCqQQaLn9Uzzex3pKFBQSJNdCqBfRqtjtguDM6ChIkG4XU6MBgYygoq1RsLtff8tBGpmike+1zyycoeG9SLpzGNVr65THI6g2lYaovkJnvtU+/4cK3/9iE/dP73rFzC2nF5rr7dZSu42VDEjqG5TP0/uvv+odd9xfKNHKOk2O0ewcNRs0PkV5TOIM0e4DPKezC4M89yt+LoYHuiUqoC/h/gG9C2t+LqdDuLsQ19f+9tZrE5sWNMVVXAlcQcWXEkPEANo5msmgzdGXlVQWuiTiJJgIYEQqMkFFQKsrASyBJ0kD8nvegh6WBOKu5MgiNY3Q3c2QKTFu7zqj6YZOpKbSKhyl6ftOitfVjRgcpSuLYkPpWesGAadQeL71+j/Ak1QsOMMfZAzv4iCuL7TXT7Zxm7sL68vm8/UlGh4dufqHcshq5h+l33zF3v/2zbmVY63afLsyS8tz/PgWneH91x868vX7sU5tvULFOuHS8PuvvGJoL2dLZWQwCOomDZX4YoK4P95s4u72uDz5XZGBH0P+5XThvfSYZFVoQ/tVb7hDN0saZ5rltQDNdY7SvlAg5xhHIoyG3krxJAhpeCaNY508UzJyzbmGt3kTp0dlstJw81SFSCPW2OmLYuGeOlalyULhXi2g0BXT9Nv/5AaWpzc3JhsIH5M7VAj1al5RSTEAc/Rlh+VAfydyxnXCs1jBu12oSde+8zO3jtMQFtI8uHi6WKbaKi8vhkNbY7nmQru6TtVG7pJntd9BWFCAVL/2n+aOnXyAMxkM8G3cASCQkba3aa3FV4byEDUqNIrxvERNPOXCK3CYt5/iXB4pfnGcGjlq5OnduRe1aC5Pe/6I7sQ9w24qzfASoNb5NH4xTRHhtfTa5//XdT21T9qBjtfLFqUK6ukVX3RApRFJMKA8cHLRl5tUFi6P1adJAQsJ4zrhmQjL70wP4EKko4mYgICJE6GeHN0PHZ/BmQ7qNBpZ5hjoNz03iZxFBsRGm5GEo6gVKiMJR2HTuDt+5hZ4ANGLVGW4TJi9KZd5OQGCNVdtt/O09H06fBWC/rz/Unn4P595/D+dOvbqmenxSZ6SrMotMOY0EfRNtUY5T3WscCjzoI7RHbe2KPDda5HKWKaDlcptmi7kwPth+mae9v4+3fl6uhY089RYoBokfYlmCTcUPIPa/L//7VcjDXRVMd80WDzhNdAUnX/sOTPnwTg0cCDzWR4txNa5IFyOxOn3+IRBYzxwUDQGRnQ4ecZed/4CO0RYKMQ0yNno8HFegXwtGO+9qJFitNukDCxRMiUmBvUAXjFGHMNFreK6uzJ0IWd0Osm3f/qjGOzPzM6DCpGKMMWQv46p9TqtLlIDHaJIkwdYQGuVqis8z//W50y8/8tLc6ephBsA3Aks08QevlfF0nucEgwkyGQQ4nxj0OJJnvEZHuyHRll+s0nL8zR9MFek/BDT1n+eLv4IPSbL90uY9bmShi+kAzL5iZvdw/d87BIxXjcgvR3sEr0JUTfKAJ9yVo1A7xiwKbgDuVIU40nQxSgtg5NgltMgzVEhwpolTikItWKR51b+OBCy+BiUo33HEEfImBJbDOoB9AjgiOI4DC0GreQFezfwuK6dyMFCHLEuqyHlzp/+Qwz2Cyvzpd0zu3bzII25FZ5twROmRcLyg1KepmZ4vr12mpZPUKlIq8fpI99dQjcp5qlW49eryhP8/Akr0dawyBIrdpC45KiZo9+4bjf2TUyFIrdBgGPOqM4r9It8HWCjkOIXaeRWenyxXlhlJYWjtI55Ujwu+8LHMKHZuvdjl4BOaHUDvKaaIjdISKx3pB5vsoMwvWXiQtIWOC2UHWG2lFpMap0RhtecEVMXmwxQm2qJfaRrBlPHNqM84DXme57R6xQA0ZuUXDdyJcY7MkWdc8/FNbsZOqKUqjfHoB6/xgUKDdrxeWivqJXDPkNpjsC4K4NUhJbRCEeZrc/jxnRtrrJGo1g5gOmVOq0t8QNXzMTjNhdLarC8BheBsXFaPsY5/cnvcuyuF+DzNsZtxN9qVGoAACAASURBVDw6DGJ59CDhJrg4ykKGx+md98696YXjz6eL/+Pj30YHqDblKwuc7nPajwvDOA3P0/o0jRRKuKfAHQFdSsOQhO2VP3v7F/7oFaoxriUJDVYfDdIkjlKE8I5ZHJsuCV0CseIyRI4Nrkqg9vHBcroobVDnis+pkT7I4j1GH++BxWIf551/HxxlIeSwTOr/sSxXly7o6qLI3zlK4TLdTdhU1zTUEUpUeYtBmcmBde8OAbqmcQG9EhruPVvc8CCG1jHRiJtPjNyrNLWfjt/PN6w1rMtByl7ncAceK4nnn6CRMTxZze+7gi560RAWoMFtWJeGb61hzQ3mcDDet5Dcn6A8CutUGmMhL3ou/T3V3vu9+1pDufUqnXiI1zK0pnK/RAehFEM+XsUaoSEkSiuLHO1qkRpuBMT64itf//nAcBgsdd87KCc6wTpQiB2Ra74qaW4tUnvNMDvJToAwiPv1OTDWRCVz3bNNyTSnxWgwzJAVEMeYlfSAKoHXA7F1ocwoUuc5IGIMbxGrQpAR56iEx+4izCwyql+rYUzsT8uJIUKAlui4GaBrgTZHYQ00BaF/xW3/bn6+xu+H1+jY/TR1gKryQgkinlfP1DjnOfUo5+ULJ2it0pr7Pj3+j9UCMnj1h/7RpkY7h9Afwxguk5XoMKun6aoX0e13tt9Ahxd20e8cPG+tkhvenUNS9CO07zfoFGaMcOtapiHoWaAiL/XhCwbbjo4mVtMXP/7Dqi22acqT5gwEDWWgIDxiFuOIPFcYV1mQplPRFexZgBPpnx0n2deiysLi8bEMxiRsnoWg8jZfry4HilhWwGyFB1BnvCVXID1/D43GOs3Hdd4iBiigBxXtXl0T2EOEn6VaE2zBUMeJmR5bEiKEaVkBqUdhVXkw+s0HPnz99OTKCg/PI5N0+lEe4HF95BQf30vAe1UoYFmZCknk7piyxFQPMhZ8SFrW2fMtbKs9gzkcLF+Wq0S1nBsao4e+Q7/3oitu+PzjIP11Ovbbl+5rg2yYbn3g1HvpQqzIWZfU4O102Xe+IGsh2O4c7m6HuKmQWrj8Z/Adh6Sme6c7dAu3zEOG5fhp8kkDrzmpUnJ0NrR0wYsU5VVlsOIP1YeWGXXmqM9JVD7XA0aW7G2aLSrFZ4mJUDpAcsef3uiJ6lQ0qXuExs+jHMpBXclh46UEqhR9ijeB3gqN4RIB977uw8/91L//1HkfbtVoSJ5YcW6zTuVhjn4V+jABgY7kBwSVEzS6h1+rLY/QKpabwesFaiDc8zSCuXcs6AGlnAp8Ng23ueUpak6Wdp+PNZdtXriGNZcN+u8/cOgUtS4leh+d/hU68JvrJ98zfMGvzj46s7t4PpUupuEXEl69hb2YKhqv08GvfeIwmmXsjx5tixMLhtogo3UD5yPjUvEpiBSwJ1ZThAcP36koTN1VsIiAiisBIFmJW4ecjPegKZ0v0us0g4OaLquGAb33xKqiozfd1++2puzY4vSA6C2GY8uN2DOv+wRqn3vlrc/71NtuPfDhwy+gSot27aEqnlhVef5+bZkfXSHVWccMPR5OYYnmMD3xNRrbz7Oc+AO2WKQ55D/AIhH60igK6CqYo8QN7jo8ijmcYqFQzh08H5rz+0sjuBpM7qOLDhSOfO0oluV8lCov/+Of/zgtvWd439/Q3DW7x+UxAMb79mOEp8C468CQfwZL9l/400fRKGO8OQNq0DJ7cY4hMj7wuAy7ORFKioEqRtYQ4r2qIEJ65nIURrmxU9MaFk1q7PWOWoah94xXIKfCV6fKolQ4ArWMTNg8a4U8941PH4l2EOkuPfQZ30wupwzQnSQ5nCtFxfr1JKpgvsYnVuUIy8Ov/cOvfGMdT5Eqx9uNFV6ag9XzI6NIV3i9pZpYaeLRFRZUIonHjDsyGQzfGMJlw9iPIR9XBvSKIUxxtmnmEC09JXkOUnx8K2col5vhJ2F7/xkvvwH56hlMDLVwv7s2SyOV9squAmhedPXYI7X18TIvz4TaYX5YW5rmRwKlw9yt8DAAQ/7ol//4ZVqxHHRbIk3yKWJloTUM5hijigISCBNAlotxqfgURArYypSCJgoPIUlqzSgwx4BQ5fdBj4l2NdObA76kSrx3ClUoPOzbDmc6tMYrREyLozdWqf4ddGdlh+G1LPXXfhrlr9+Nd0bazUp7aJimLypWcV9ZoAuuoAc/n8PYX8Z6sTLfyGLAxcdA+IErnjAVeTE9nmGBHeM6Dujh+EMHwHTnJ35sL8oY7LFhpF9caJfRGa6hmfXGaq0B8NBYrtXK7b4wB5oz9fw0NS++evj+1epwuXD3/zN9HhXxQKxJDVxm5qiBy0mVGvjErARS6fqf+jrEHv6pJ1VrdFuMr3yHh35V5LwXFkMYDoTGacaVjkkL0+oU3lMaQzOhhw/LgoixeAxGf6BOGaNBWnZovtS0GCfeNcKIC60xeu/k8T69s7KYWIcRQAzqNHYoMVcyZzJUiQpwQaWDqkDP3T/5u1AMVqwke+S7nLLzErQKlQ+VW4320iP1Z72QnriDqiXavSe3Mt/G5CbCfXiUUxewwXfoBrjHxUiPXoF5T4Q4Rnfk9HiYhffJIRC3usj18c20dj43NJEbu7iNxfvNFj4pkcMFpL7YxhLOQ3vbi8Whdqs1PJ3fNY7PaBZPLS/haS5e5cKiHlmog7X4WJtZvAbf3cGrL9T+yifdonzVJM8BXrGTJ4wreiVnWYY2euyoRyMNj6GN1g2cjxqXSpKKMJy+sHg5Jl4BZP19rMOF7Kbj2E4lANeNDHvIlVxj1tjIIKQxLaxObwHOsFtzPELDIEfL9e2f/NC1t73tgQd4ov3hbxPSm/pIGYkHzRRrj9XOPFAfOVR64E669Ido/j48nOJ32UexPAwT8+gbGNSR8Izwi4X8Eoqk8rgmYKTHxE6zws3hV6ZwB4yPRWFqny8UuBy0JlbbUNFcbV+6r1lfal9yTat4oj19IU1T9bmHy+Xj1UZr7dE7K2O7+OqCyy76CB4T48ubWKCP2hKtfeWT/4ynN/1NmuQ5MBwB0z0ifAmeV6I0n6/InFPj7FCRs8DQJfMag5wUcZe2RvF2Ng164yxaqbbCmBBIFSAbFROvW3LnZ3i8D7ZYD4sBAnKphCSmZo5x+i4QZkxlTkUooQHaVO781x9C4D71KFXwwb5CEaM4x/Fq+9RdzZmr883FVgEravA0Cm5q0PDBwux9zalDfJs7PM2XCCygx/APk/AsFnEKj3OgN/k2gKc+mzSKLxyDoMzvFuI1q4uvoD3n0f2P0uWX0Le/ncNd8jUvaq9i3RsW6lAZeT9mRHHlOP29Sm6cSvgO2yiNjPBUziQVJ3h5Zuk6ugg6vvqpl7/sdV/BPuIN06wubnRoYfC4vKIjSi4x6QbIWYghjx6TFYRQw+NBE0AWy7hO+BS0yu+tFCnoLmL7iukzDhDScy3kMTU3LqDXClGcMxHCxOEgwaGGP95UKbJXqBhahHx05kOYRjz1CM1MUWUlX6+0EfGNlfbS99vTV3HQcwKESRh84QlzmkO5+onm1BV55NgY5rFh7MVdLCZ85p7ivB8jcHOZpyx5ilNmezBliWkfzIeCfeYAffa1+77/IJ18gs6/iNbbdOFF7Sue3cbDgTt/Yzf0zD9VW6jxW7Zry5X5J+nwYV4Hur6cwzzSGg2doMYpql9HF36CkNO3X/a6L3/1U9e/7HVfijQ6cE7oEecIvyTe8rjC8Tsi3WdUwmPnQonSfCE9aubcGIVRbUqcoQvZDa8VEkSCBzWWBXij0QG5FOPCJyC98b5Lv7H2JdElwSyDKsRIDMAcI/S9VjlqUzeN+8xlH1pfojN4nRuPoho5zKjgLhP5OtYb5BGb+P4lvmxW5vVkWI6Ge9ncZK7RbOP5FB5CId1eqkhik6chXBawYpmFyI2vLLvHtA/SffxhyMeS4zWsaSvQec+hFr6Q1uSVN/xp8FUaPUwju7lvlMZLGO+x6nPpRKtRqeMFXAxZ7UZu8rxcvpB/z+iVd9ATuMBcyx9X0/bf/qlX2CYmNTcJphg8jFe0wroVhMdj9Io9sdoWdKM2eKMgejT4TkfD49EkgBiLc6W6A1ciHYNBiVuEDtUYr8AizDE2Awg6qREVYe5QDdjNyMSN4U3r+DcP34jxeBxr0VYwXCNfabXrbXz9Eq+JlECCjKXE2T8nH2PM1sYrUqV8Ay+UrFAJt6pLND1Jw7iLHeFXTFaLOXwIE3qxzJhfMcHqggJHPL93soKuxMvXVk7z6kus7Vk8Tie+Q6MHaPEhKuNygWX9JxuVo/XdQ9XqyTqSJdwkYLlCc6XdWm3liu33nb7vJXQIb2Ahuf8u4RKDU4cnxrYpMpS5msI4H8QwDuCIwgFXyeZmxzfBeYzRodtJNx63MrTJ5ox4QswYbEm9gmmoIY8qhDhPp8eIoo+Ja/fRuW/+2U2O13UOV3LYDXXdJAFJMF+8KidRGZg5xrm6QD6+7+bGKq0t0NIKz88gWPnGFCmLzEjW4Uy8B4gpGjyKwjIEfPwAK4enC1TFvHt7DBGfp1V8DUc+l4APh4xhqT2mbgAoMSUSnjxydIwhslQBQY9hHkM7XuCCNLx5uOcSniFF9YHP06Wv5AsCXlvBrQKyI2yYD4XecczYj3Hn2TeDrpfHe7kY8mU2Nd/6kzfY5nX3QDpFDBMDpKhJp7MMsYLweIxeMUYbAWjSDXCwAENujh4oIh9VnCtvc/1FOqnrIJrG4aVveZyxYoQU1cTuGONLpjLSzCAQjHkJMkLQH++/GSM6piAxMJ/4FiflvB4SN6ZIcPADPQhWvG+FpcJYjCkvTIG7nss1Kq21tRyeKjVXaFUuC+qJFc9sggK5DQIf7kYFnQS/+yOz+FDB0z5FQu6OHGnpFE2fT3NP8rsp93yaDj6bHr+d8OgAMnnaBo+1MK2Ei0yLv7+AvAgNnV/lX5TAS1hYBI09niMXXnsba5LNeMKdGwvpSsHeC/zr3BmAQRWSOroohgUmb6LJY4yO26HGQIY2UumK7XUbAg6umKYl65QWQZamw0JwW06VZHiitH5dlWMiPECcGhBPu8V7PLZokV7BFL2GurYAqbY/X/jsT528Eek1Lz2o0YFraRQfusGQj+xGVmJimhKfrlxG7AOE6F+TtQn5NrKc8nILU5PqmoDxfg23B6s0hIU3WIaJjgQF8ooWpjux9hhA9Cj8YZZzHV8WadHx++jC6+j79/Ayz/v/gfZdyROj+6+Qpwd4UoW4hgHSi9Bb0H9w96xWwkEyFq6d5plNXhjauu21iBp3FoKyaWeSJ42H2C1680FemUVGJTg1MUwAcHQxIUZr7BhtjdcrIn0ugVVMjUpgNt2GGAsABqmNlSHL0AHnb94Fw4AdhZQCCq44vOEISAzQHeMMEJLCEwMnMkO2JlToV0//+AdXbj5CN75/5WYs80XE16o0hAxEliEgRSk2aaVEow2qiitxk4pmIO/HG1UY0RHBeJUEEpGl8PQ8SjKbOYy3bLE+eZW/8403CfkWFhm/XFJUArP/cpo4jxMbqEC2g0dX+MYOBCILwqtb3LskxcJ5QA/BO7joAHgEhkjHSvxVEGO+U5an7b4NH6zmLam1AoYEIYjtoMDBUtiZQFOlU8TOiCP1NIiukNTROTVCZpXqmncQHo/RK4oyT6NXFAGa1OOwcjWp4Qji3hKpQoTdsHhUAYVUAiKuBCSGNaAyQHdM4UkBOz5TihIeGTvyobUPIpfgnB4TMlgNo2JOvoeGNZXjJf7icXWRRi/giRfcreKxK+5QkW3DQRy1SIfwZTNELVqU42R9FRkRbgkw+YOgX6XmMI2VMEkqD26btO8ypn/wHziRRFhjvMcNMbJ1vFCYH+HsH2nP6cfk4S4E4lZBvrUGZ+FasXqGGnhOjNcXR/njC86D6V6LNlg7goffFKZzvUu476WZoEk9wrmRvwTSgMJcihyfPSEOZDkSpPkgS+cXYiZZpM+K8g0jR7DIHhG8is9SIn3GZAne/kBQIHaLVGvKbMz5/FUDPHBFgo6UBtP5iF2sXIDMVUx9YrZeVlyizyA0EZB4yIXVNrRMJXwMsEwLp2hiL63O0cwldPx7dPQeWjgmqRTyeHQeLE6rUuUUVU7zTe2px/g6oAdHiU6+hy3y6+e4sKCTYLUzLji477Ut0ldocaoH9TpGpM1Sdey+KHReX1xQDqSksLN+vaVTxDBaTWCIaklIGjHHRxqtsaMQeYxdEidvvAenv6UMFD5JhAOoZCZHZ0oBna4YnK8hRaAlSeQRO+IYZPMIrJEJTjCQ7SBykUzjqwcoFpG6IAWSyMZqYExE4ma3jIEcmQY+r4BxGgy4Vsh4zEt0dvGdKOjxRVc8cAUcaTgmMVewRn8XnXmI7cMSTjXG8+VinT+7gOkasKA7oQthwzCP19j3XEz4wawLnkOP/RNddiWdWaKhScKnStCvLqfx0T99I5O6LcVXXms1hWWJ1i3Ci10HQwlvDQd1r9LTVcIpTJHDYEekxGvSKBjIrUmcgvtaKHemqoq/9xyQVvTJVTmZMqCLXxaA1ltAKOY5nKFJOCaxYfkXQhBPr7BhIMfgjSGWB/U1DkE8nEJsY6ZlWD4BMjZDKyd52h6fQsAUJ/cT3GtizMaiYXxjDRVA8AZ6I4dPBWIJ5ZubN+I+FYM6Y4BSf5LkoFcADl24eYUuDPm4JvC6t5xM9TxBEwc5yq96AS3iTZMJwrQpHiFAwNin32gHMJbLW1LDvJOWQGG8C1FRbpEY38UJDcSTZS1TBU+KIY5qA9xtKURJYK0pwfqQ2lkUkjqlXknlj0qABofSPNoIAtUetjhTKl9AalwceE/rCwi9RnYw51c+e+vbdx/BcIsPFKv1wyo0cZeJiEQ3wNQKVuMU8TAVt6cyp45BFz9Fi4jnfAa/7oOvhiDzxhNZmIYfBhvPYcn+WK4NLKYgP1i5GYM6JnM4g5KbBwjEqhtedIa3sbAWCFcbXDeQx2Owh0DuOvJkFzVMBPGjKZos0SxegpFmXPvpG7/7mptti9xJNY7R8aa9meYSjVZyokSeqMDNAZM1gQtRCRaSZl8oKo3d6UijgKlWly5olVEwCEPSwDRDjbi3W0jO3LwlQxNxCtjDPi5TK4vzBqTmRAVGOZ6A1liu0O/78Teg8M7zj2DBMO4dEYWcrCPzxmCMtKdAw2M8J4MFORiS1YCNERcRibBGSlPGtA8eLc3QKLKgYSrJvQH3md0FyME8z659nJcjvjG046oCCaMTdPRuLuOSgofB/MMSOVqZpVF8Bh8fUcOLiGP0ptaNYMHdM3oBugOmTCd5WRBd+ekbv/qqm5/96e6vgHKTjVciBXYSb4leUUBFkERkZEa5HUe0lKLGCIoYh6q3pfCaFijKFKIksFYWa7sD+HHvGaKLEZkdoUBGyFU1LjUFsgHugNTzbGBBgrW/9dgH333RER5rpd2ITjX2Y6/yH+QqGK1RRebDFwTsMHjjHXMsw8SjLmT2eGSL7jGJpCVHU/n60eY6Prwzk8NSfnQnxQiv47YBA//Bq9knGijm4FuZmOXE27roHq+fP/K/n33z20aPvOz/3Pj8z9w4u06XfuZGmAa1j7zm5pf/3Y1+K3VjNnJgds83ftmI8TX4ZYOPn1JPYJKzHaMt+XKDsm9QULasXAhYvKojSqeIYbQaiDHzOU5Mh1JMjtAmQ62YLmhLl1yIcwOSugXUCafoPRfzooxf3n8Enz5+1+EjnJBI5o0bTQ5orK3H9DmWMKg8Hovv8R0z9AFJS5D6LzxB1VP6dzzz6638Qqu4N/f3vzxdnGn/77fuwdD+d7+0H+Gex+NYmfpEn1FT/pCDDZca5PQIdAB/rnrkTw598F9+Vy0CZ7tf/tdH7vg3N1/xmSNTR198GS8WVPbrUx0EBjAazIVNbFFpxlVGnC8+UnbaAoSRAMmBcaimb3FagXiyAkMDQSm8Hk0ahfLeP/3F2xWtjG4eW7TuoToVU9lSEcnqO+lIw3VRYdieuuqOQ/e/5P998gOIb2wY/jWjLKzHUICxHk5DBIOAUXg6Kx8047er8BMleCiLB6roHph3L3Pewh8SxCg+xZGNApjRBzhhh3D0JXmYhWQG241jsbcdGMxbj8Yr4k7kniCvaPg2e0Qf7rh1QYM3ShGtdxQvyBSOYJYpTUqE1+U50e4RqafJi8IjbKjqLRWh8HG0YzUiuh0TZcTFIOj/61MfeNcFN+Fcvvsi3r/r8E0Y19913k2c3SBeJRdHQYU7khZedyk/2fB3vzjNa9FAhnsDBDduEpY50BHW+HmIt9ARvkSgw7Tppskj6B437jqCaZx37ONwv3H8CHPm6OP7P6gKbi89rUf7xQ1ptGo00+Iiw6Xl6ebIBHwgyhuRDamVHSkYfLyBRohzgmJ1HNFSRLSpGkFREwN2Q2y02fE+oEqqRHpMrP8m8STDopJ8qk44RdedwpfXqRyX9NvHPoDbTaxNwEUA8Yq5F45yJIOYz8HKBfyo5wQPXEDh28iYrsHa5rHdPKhjRgixjntibO/YHQzqcS2dbIrj0vnTMXEpgKSTG4w5JrJvDAhvdNy6oMEbpYjWO4oXZDKHWObG+65ioj0mWu8qwBLEOQHRWyecIkmkcAKMoB6OvqT/8Kf/E1VMvPzi5E3I9RHZWM6AEYTXrslnRRDluB/FqnpcBADHdCd+yZkTISzAxPsrmM3HrzOrh1k8prjN1xIpO6IOpQiPrcZHUA+SJM9yxgoGEB8xFSZJWhdYVJQZlA2bUWnGX2O7wZu6o7MSHMgRJ5Z8QltWN/u53sf7RNERYLSHResR8q7VLvxd0Ep8T0RM+mv38GCPoOcUH3uAcEeLPL7BSQ6+foNZTozuD/3V+KHrK8js8bgXZDwjOUqrs9wrsBQC+RKW779jJvGthl4N6tlkJTC2T+dPx8SEMCCF3IDNMZF3A0CW00lWJ5xVExAFFUviChsY7x1Tesn2Kl2I1tM5kzFxfgXR1F3QiqonInrfIx/49edxsCJp4QdJ8n1MfjqLJQZYdob7WiyYwTtZ63TR/1XBwy8EPR6s4p4VixFmH+aVakiEkNDjCoBuE2xRA8zAhSExGO0cUwThVx1Rh5LP4JdDfSEmUZxP4pVNMRjUPeGJsjoAWZ7nFVs2LEZf4C4Agy0gMtICDo+c1yls6RZYI80LTFHoDVsQlSo+d1IS0QAGW0j0K5fdBMPeeznvEbgIXwQxxnLkM5h2xGjEz1n5tpcLeF8WM6H4zUO8JAXKqQu4TSDGHA6+mIDO4MsOlEYqPp092ygEAlB1WxynII6iQymdOR2TKC6J3IP5TfHAiaI6AQM5fihrJl+2LQcCLZQLngSev7d1RRTwbUElMEWd4QTQJhQnSgHQbR0onrz8G6D7r0c/8O4Lb0LEI1NHuoIkB4v1Eet4JoURgrP5NlXm5C0TWeW2eIyBCHRkOHwfjCXzeCq810tyYiFsbXBmxUuWSBe8kxR0CccZ5TB6HUWHUjpzOiYuLoXWA0ciTWHigjpDmMvzhyqzV/Tm6Uv3VXhJFhYnVHxnxG3tMcHYBNDmbEgUpIDOVRc+9GKA3nX+TdjzTe0oveeCmxDQCHr0AbwJhY0fb2G1An4RCBm/vKG7ay9P1eOWADTYcCl4x1QQ9AxN2bqblcgYsHnnP/0cBxz99wexaiMyk2g9mIs3tGZD5nn+YUbPGbYcITHiORW1ulAIN8FYEYoupNjamm+ZLkvbApP7MitBAxyC8H33oZsev/gb7z7MaQ9GdKzeeefBm9RkJY/r+IkUPJ/Cfo2+8t5DgOCCgNnPX9p9038/84HAvE15KNmszqICHi8EUqwJyL0g6KyEsemc6Zi41ERaJ9xFndcZwLPRLZBjvAIhubv+8hfTZXW7KxZ8N6J08QPFJJuRDN2Y4v/y8PtxR4uXUXhmE+vG8FkRGd3xgyhf/tW9L33vaf7+Qp7Tm9858YFfPnBTrzp7petu7WYkBTxBJa6vCzrOYCHpnOkYy6wKKYQe2CtGeFOrYZ4TJYt0yihadf2gS0mPjdFtByBiq64mQzdgz+OX3vGrl70dgf6rl+oFHZjJwQwPnlsh7fnnv3H6a+/b98jnRhH0vy1BD9G96uyVrru1m5EU8NiRMIBaxRGorVqC1IIl9QtC7QNsOUmORfqFwMsuAg04SU4Akzd/AkiHChRHtlhPE5KATkhidBE5W1gNjLF6kL3Ysl+IQS965CXAv+diDnpEP8Z1tZ6ntsBfx//ir+3Bj7v98MFXweHvPKA7hi+P7w/MlmyJT6Eoe6UzctOPG5YUZTB11wgocxWDDixw6ADsVdLZ0jEeOxdTCA3YHIXLGGSODOw83gtbpx3k+39JpIJ3PdKka0mk2wrz7XZlGfiCNimcmDb3BP3Hg2/HlM67DrwdCT3uaOHKfD73xDHc/6ZtTnboK8D11p1CEabRGTm9HxMldWIPGBIvDo47oDVtdui0UjpbOiYiK4XQgF0QytsOEeZ+qtAQ2fw+ZlBCFSUVwiRqw7WNx6htUC2g33k5j+jv3M/7239zb6vVwg0u7+HRzWxpXM4N3Smgtyei7vZtWEzAYCrOdmh0FYMOzHDoAOxV0tnimBRpcUJ4jL98qrcUNoPe5NGKt/wpeoQwSi20KQxW4PYVrHkf+4t7cVJRxdiPF/f3TE0lBN/m7bZ6Ik1zEhMpHFrx9UQUUZFQ3ZiYgNpUAstcxaCdUodzsFgphS0OBmeKQPWpO5EcYUthiBmxYUBEj+JP0Sa0UQahTWHYsDWbYzhxWubzlWW53AOPPpGjPVFRgk22MxkaFRCrRz1hCLS4LmhF3ROREZx+TBST2qyA2lQC6k5NCAgTTTIiA6SwxTFKWur7VmDw/wKJg6/4qmw5RY3gXa5msk3FlsIzYPDff/3RtprLxE/2tBp3fe+B4eFLZH1rVJFtTFAIKp6jo9w91hPFOd4uaEXYE5GTmVjamIyAfm+AjwAAHWdJREFUOn5f5TQEhMZbDp1WirMJpQKb+RzU/C3WxbrhfeZBlSM6ldiYZVabkEd5DLk5WupNFu55YO2WT30TMS/Jvbyg1UYXaH7h6996yfOmcFJ6TPWjdipzep5l6sH6ZA32yt8FbexJULRBV8YVpQoISE0loHYVg3YGOpyDhSWPJ2U+BxT2L+RVNYtUhSSSLYJFNHfTb8ij1wfTvg1ZiRH9r774+OLyElzMXsYgJZGO8q/f/Nl86SIV9CBDX2jiu2ob34y9zv2iwpjrozcuXDh8EbbsZFmQX3BolHyELQcUXSqWyS+k8vhE6iwGFji+gFDMdLhYyYz3MYQDQJ6/JZ3NCAnIk6h8KYMtx/Ur+elWyDdtYKaNUZRUoiIfmONxm4Xy5VcFM37grfk3X33qpS/YX8rNnjg9y+RYlKOocvi+Tvu7Dzz47MuwdJNhfLsr4pQFafb17oUECQJKaGECqKueBPH+OYyjo0q6U3SxYQMCAlKpBNa4SkAo+i2uh7iPGNxBmEfZG5XHsCXFuBX4Iiyyklaj2ao3WtVaY229Xq01EdOtVrtQyBeL+eFysVQslIp5VNUeM/TAVuvN51819bW7Zr/36HKpVKpWq/hh8j0zU4VC4dTs3MjQ8Ef/7O7f+qUXSU+REUmWeCdYMNCWJshPTJbsCd+A9gTZtjN0wikV3Sm6mBIXkNqIgFQqAamrWMKNx33cWitMoZyWgDRCBVwKYcA1wApiF/GNWK+s1haW1ucWV5cq1eWV6nqVP9xaLhXGRstjI+XR4dLwUHFE9ugDQ9wN8rV6c7GyPrewdnp28cCeUrM1VSwU1qu1H7zu2mMnT73k+fsRbK/90atXVmujI/ieGhYtx5s7wKZ0EZWgews7gzuNcb0Op0zuTtGpaRvgDkilEpjSHkTcR0wNVAouUOmo44TApdA6rt5LOnHBuuJWu1ZrrKxxuJ+eWzk1t4L97ALHfQ2/T8tBX0SsI+IR7mMjvB8dKe0aG5oYGyri58zxW2z1VmW1Ore4NjWR+9yXTqrJHIz337jr3mdfvvclzzsfF4rT8ytgwZVjeKhULuZ5izu8d+sHTZng7cF0hgTB9jR2wqkGxik2EgEb4A5Ivfn7QfvZkxeoFHh62zZC66nQRU65OZNp8V+z2cI4vbpeR8jOL66dmV89OVtBxM8h4mWYR4yin+ULuaKkNJLeFIbKBcT9+GgZexnsC+g/a9U6Lgu1WnO91rj+xYeOn6wgCwIcv3l4enbuG98e3TdDk+PDM1Mj0xMjE+NtGi7hV2qxhoHfWoyYKW1Pd0CEemurUdugbas6g2txXKnDiQHRNgfoKDJS7yLcUG/BeG9Edzr2aJ2IiNDGnNCWH5biEEdcIo2p1pG1NxCmyN054pfWz8yvYKheWFpDhgMgsp1mE0FrJDVyGJgxOONfoZBD9GPwlp6A1J2Vcy9CiDdwX8Drj5HBA1LFl8Iln8nl8ydPn2jUR9HN0GfQYUAshjNpwibABIwwGc4Evm0DJdgW7wwbNjQu1YnohEOzu6C7OCaR+2mK+7ipidYJGdyDGLWjOAeseAwHDNi4K0UCU1mpYghfXqmtrtUQ8fhTw/zKWh0Q7BHu6BiYdOfZRReXHPFy/8ohXpDUBGLVhaLVwo99imK8ciUsPFGjTxbbgCpYgMJlAeemVMK1gu8HkDWh50CsmQqyrdXMth4UxANRNxgOcww4trMSNSzeE2DNxqyMivT5O+GgqAu6i2PAzetzNmZtF5kDQ8MqDsEWBtomQhbxjT2Gah7XUag3EdyIeOTouOPEHveUgPNQ3gRXC3tFjCuADNUQxg1FoMuaGh7gMbQjmeG7WGTkpQLiGHn8eq1erSKfqSP6VUcJugpEyD0rd5h8oVwu4FYYf+OjQ9iPDPNcEKvg3zZsY3pTTe8IEzwdP13KXelnwHCYo6LX5yydzZBt5TFqEoxKAG3Igk78EVy07RE01EYpAkt4vPdZOhIHnFtXQdDo7LzRXF1DrlLDrIv6QxVxjJhEnl2tckqjRneOUgSpRDZGWe4wTb4aAIQ4xB83U+KVh/B2G2UEqEpLMANTLhZAi64FPnQSiEXKBAiEYIu2VNghQd0YcC7EHsQdRate57nRMv+SLUEp505yDZHpHZajbIgKDM6ARcb0WgwL4op/4rguHB3ZmGrrtqg9W9kTEnRFGhahCP0SzXM6EkcED76KGEOcIVgxVCM5wSiOpBwTL7glxaCOoAccBIgoZBHqPCO8MFTDlCaPs3gvJIeUCMENIQAi1BFzkq/zcI6egLBW/QEhCDhI1tfrq5jvwUhfrSM7QsSri0ZCxJsWQzTbyZcUfg6AySLYhixrZLiKbAeScZnCHCiuBqxAzBBjIt414pKPacThCfR5hSPKJuTpPD7/4MtRY+I9YcOWRUQ6/ggCjXE4VEJ0NO4jTfeJAykRuoFVOZKQiy9VcDPK0y+nZlfml9ZUDoPARYjzLGGJR1GOS4zKzTaGVWTVHIjyH19r5d9rwDCfz/GMJGcyYOCLAIQjuNfkBgDpE/5QhQTOiOTpVeoYH2kg686p3gVedTvBNxKr5aFyDfP9+GsWuWO0+ReC1Cjv+zIibkPVRDnpJ0fIAx5Da44b0t4vcWAJhMXvEzZmVlSeH+0RnC8Yca+wPjC5bb6U7tTJMlKhiCOJwgbGeEyEnzhTOX566fTsysLyOsZghBnSEgQ9Bu9avoE3PTBmI4hl8MbwzJcJiEYgAo4i6JC14znUxPjwrjHOv8ELDIb25dVavrKOJIYTJKRMctsgVwBOiuQiwYGqBCabiwwnl0N6ozIo9CjQQyC6K5IxjPHImmCtwuIX47gzthD6nFwlCxwANFFyylkytOYo6oU2hWEA9nUQEZgBugH3BNcmX5Ed732gI00z16cGTXeGNEHCjIhEWoygQUqDMf7YqWUscEcZEMARjoiYQqGJQRSxxf1U9AGuMhbUOBnngG8jIjH2l3CLOcRz8JPjQwh9xCJYWjXuFAh3uWGoYYoTZfQcSYskI0L6pAOeIxXxynpkp82HGXlYwjcM/GemO0HDVxJ5NIYOBhTTYNQvFUqY+sR7uNw1Orhgi1BxleknSmgDBqFNZ9gim1lsYAbOQLS+IdURZvBym2zc+7J80p4a7jNowb689DKCCnkConlxef3Mwurx08vHTy2fmqvgwSpyGwQ9khCOZ/iC0wlED6uSEVRFJY/xsnEejzEYoYYBGD1EbgByiMXm0hq4MP+DyR9owX1CZaWG51ByK8w5krpbQAF/kI6+wV1B/eHYAox1AQcCLE9AWJdKyGRYEYxBzwEaFwrskX3hOrOrUWYGOX9QjQ2CmVS2nhxqiAd9tFb4glMsEtqAQQhTqH2BAy4HNkD2IC4IiXHv2+0r7bXJPg9kpbEhYjDiIhyRweMxKnIbPGBCeWm5ip7AYznyFgSeDn0tBhElQcWhpUCSaKhfXWXNYIRM8ONyoUITgtCFVFaDPRIqdVeA7sGjMjKocgELC6CO/2QiSCX6CPoW30ewHgzZkMYC8XFw9Ar84C2AvOGHywGGas7DMN4PyfIeftw7JNOaggOx2iLOUcA0FxmmLT3GLUoxRwgDaiFMod5CmwMbEGDRenfV/MDFbV1asAFSJ1OGPb+KoRFpCQKRh/lKFasGkNDjLlY9UpUZFUSm5O54RIpJdBX3Enw6XVBlI5RXA0twctDyUhwJQ45PNlgGYtYoAzm6AE/hq6dUKuL5toEHZP4AuLpXRRVzlfgZH97AL1+J4jJnQTxDip+vgqvABEqkVZgJnZ4Y3j2N1QrjB/aM75kZQxU3FUDhsuN7jYUkbYk0Xc5GkpwBweLmpNgihAG1EKZQD8i6mJjAgN66QTje+wK62O6TwpAu1MpUjni8licLgJHG4J5VrYtEKo+gx/CM4Z8HZkm7OfQ56DlS1QjPQsKIV2I5GBmD0RpDMcNgnCQW1kim4P88Ohu8GrnRAyU/AQJ4qAMZCnytwTiC3AbC1GoFyBekGviR5uAqgeCe3DU8MzmyZ3p078z43pnR6cnRXbK2R3Un1pa49eAwa70voAc+n3xQ5bgtKYYY/zrFQphC7agGWIrYmng1COPeV265ezLZUkNEAgNAiCaMlAhlNdKvYNZc1s/gLpMDXQZ4JCcS6zyxiDtFibOUWPdNtWWJbBlgMRIrKAxDvPJedQU2TiKb72hbnN9LGsKPBRgj/1VZIfhCoG52GYdOwI+rMI5jwSYWok1PjmCY3zs9tndmDNE/MT40OlxGelPkSXzfJ8wbbGlI0RJQhpVEvm5MoYjB1CKGpJsghI5aCNOpB2OcL8WpFqjqBulxb1l9vp7s9RkgRQLKSONRlEf9Nm400QFwc4mnpPhDVQZTfHWeVxmoIOT4DLiNlMSj3D6qOEbIIWpBBUnyUhTbzZKUXJ7/4TkivcwslMa8zMrvUKEAe9U/ZQjSFtwVIOgR4gh6DPN7psd2T41O7RrGtCkSG9wwgFsRi5xQetdaxHmKvpvb40zdOLrasVGCnk0QQkcthm6ntUp1D3Hve8DZi3PrIzqU+exz7AgHIhoDLaIcEa/+JLQ5heCURoZ4LnOpg8wQxRGvF1RiMFZpt0S8VgsVQbLEWZAajrk9KjrZDCHHMy8NQclEsGotd6q8XqqJEMfUDf6Qz+BuAe3CBQq3FszCkDxuGngR8mZiP2wdmxiDdHN+nIMNi4nZSkDEhBTlQhWQqpO2lZZB9gbj3rfGNzalUZYcIYVANBEvUytYQyaZBoe43LliDMZkvUwvcvjzmK+GTSslqaAiWPY6xsDYrHOcq9AP5EgPscRcEJkglriX0NcdIOp+lT5ZXgQROiquVMjWEOVsPHoynhs0uDOgV/D6e8m2BhL50ab7zre4bmchztSNw4ruv9CzclxvfW1i4sDt7CPufeN8S2M2IvKwSRTiISuWlPGEPaYa7YIzWUJcRQBh1QAuBUjxQeyLTy17MYU+giQd8/kSwxzHbow34a6yIOyxYa/EQhdvWNwgnU2uMxz0bIHteJ4igMGCBwMwGHJgMFYoYEoH97jjo3W8coUnxGCGdP6TFTohd2pr+kX4Z0HJ6ubFCEc38n4NDPl7Uy5UjlRM7N/OAcW93yBnI0MRUQDg2Q6GQ7XUDGtvMEk/i4nLpbXFpXVM46APSNA30CswcEoUejHnC4+UOV45xjDvyEezcUlCVg3Pkp9woKsUSO0VCcIbVUQ+QlkmJ7UIK8GI1EdQyq15EwEPFtyRL5cLw2V+OxERX60PwyIo4jxHEh1YhiyITQvdEhG7VdW4UuekBJ0bJE+Q0AcoojzFUKFypNGrcq/6tyDuPdUIAgQHkgEM5FgYs1zB20+8vhJv/eHRKSK+wmu58A4UbnB5SgdBj8Byo6wnqlMRatSIKrGuKNWIrmJdQhAAxJ72GK4omswsL4Odohl770JhZWn1sgaTryttLGfDVQt3scjvsSaiVsczWsItL8qj5pLFErkD8j20FvC0H+KGpASYsnSD5ANsXkRzipX2jEKzkKTQRQ3bqrjn6NHfL9BZDQIdk/TYY9oeHYBzmwpyGywZaCBVwE2hmjuPGtihLtHkRxTnKiq7gDskk1FjLqIfZAhCc9cg8agkcy/DxusdJPSlElPK3uRbFDyswnWBlxnj8S7P7TTx9i3Cnff4ND46GEKfHwPzeM9XGLWZ7haTezYAIgEmLe1gV4S8xzjrILA3VA9qhcTRiWVp5g0+7hE4CCAM3jy/UcfbIU0M6ngPENm8mrhEwoPlMXhrRGbreRpHJfRpJib4xeTrEvQc09gQeRy/shk4IzigGxzNjJP4lpFB+UdgcoERCmOCiFRilUAlGDQIfcAR8eDHw1jcv46PlTGJidfJ90yNzWBCc2IECQ8WP6s5TdXllJAds1e+seYar1iAX9gIrc/XZ7kHtULi6KQVtimDjHsJHb7nQxaBuRr8YV4Psc4ZDM+j83yOmq7xG43IwOiI4ZiJOC4lhH0Kv8wRz7Mk6nETVySKmVWSHUhQMQoEIHynK5vAZUTXmbb1AKNRgRw1NkeEK3aRz0UOeh7U8RpAEes9EeJ4XstPr6ZGd0+OTE4M49MjeHSFR7mg4cz+GbDFGxE4L2hhhDadMODqu+KrTdEpJJZuMHGPCIPpKrY4AM2GmObLvSyfQWSixAmAWQKJyJDchpMECXisYkf8mfiNOMOM8ZApoa+zCEQkr7wxm5oHUnPw8shWXw0gDCELXiHUornTyFwjiJRMFdOwWSdIsEZmb6ABikAOCUjoMXuDSRs8r1WLFBD3KOhhHjP6HPHSIyNNeMZUbfioFqVEGjs3bHI6YUjXV60nnYOJe2WnCim0Ddm1ivhmUxuh4glBj3XCeJt1qM4TmvjLN/JUl2c9Oh5TPGOCXg3JHKT8tJV5sOPQN5HPlgiRembERQEADBKOYrWhD/B1g/8kF8/jS08wDDGNP3RI3LAidMHBL+7iblvFPT6agBUK+LqOCvoJTm8Q/ajy++lY94/F9yxXOpRRFTlaEyLwHVztKdK4fT0TDtAZvk7n+8HEPUeXzN8hPvCMsoW1MfgiE/+6N2tSYcoRJjd8iDOUAQdWJfd6JgexBXJhCdotsaucxgGFSwPWMkgYo4KEm8NfcUn34GhGPHPf4OFZcaMs97o61vmaI++O4B6U+yG+FTXEH1ZQj5yQmoMA/QQRryzk6xJ+t7nAX89E3MubXJinH1JL0EDPES9rcnw3B60wlTiBOxuGZmcfIy1Mb17PhIPyh1M4mLhnuxBfMmGnotBvLGIPYcThLoM0hnkk/ZiwV3P2yPhxA6Cm7ZPbB4nSr6ADZBz4egv6CQc4D+Ey3OMGwHQzjm8V5bLUHmag+2HYVuM6Il7CvTQiQY9hm79+g7xccjOog2nqthvmq07CoS/fEuROgnDnVwpFtzFro0d3NjxO20gPtjOLkealN6xnwgH4YXBxL0OuDnoTnAg+hF2hgN8/47REzeTgdSe8RIvpHY578xYIe4MH86TxXoBGJJPozV4ZEHXS71TQQxfCGn+IaYzEnIEgpuWLToCocOd0S/5AYAd7Hra97z2hLRjl5Q4Eyrnrchcq5hHrEM6JkNyrQB1fS3jjRgxqiwQBxA5S+qCs3IScSMPSW+UTplNtwgJmGVDcu6DXpwexgIDIy8NQFfGIcjyoQsRjj2l7fHsDIQULJCNR/UVyHM6YRIgNa9u0CET6Cbzjhnl8GqSQR/gOlwujo+VxvvvE+7VDSEvUxCL3B7wiiHcF5U0rpDO2A9hQVutwEGYqp4fH+QTYDArmyl0ByHiQD1JW/0wpowd5vrZWunXyNhf8VqV7y6eCgemEvVo/oLiX4OBHN/hCmDw7RdhjuRlSZDyTwuNYtRQHezzjxLw+wgUBh8ApFRFdOsJUnPEeAP5ga3Lz4AIONwk6lcfziJvj2XTMHqokZNfo0MSuIdx0Tk0Mo6xWCEsKzneroEfSoiZt7LAtcBm6pTsFN8HiTKUURcHz3UIPPk6k6f+sac0R6QOT20PDtoSk5/b4hJtrtf4dz80xu8ZLLOQ5UHMYw1HDkI2oR2KDVB6LFLCOBR0AUGQXmPZGOlFvFPH9D3XXKHM7PN+vqvxWK0+lyEVEZEKRCjuOcLmSIHBVyAKCAkZuJDNIadT3uxHxPLc4PoTP9wGichvpHsyO/xz6IopvgbkAMHQwSjVK1iC79ilkUN98xT9rSkq/7ldStkru5lvaH6ffnnQP+VTQl04YGKPHe8XcI08gwK8gaDgV4blFFcESyhy+CE3EH6IN0YmegCEfsY5egf6AP3yXr4Dv2OSaddjBv8CjDdERyU+pOL3mFEPuj3WuwhkLT4wOydfr8ZYTkhkkNnh6im+HYG4RVahDAiN31CwZm41tyFR1BppwZ4hscYjBmGO/zjJy+Kjc70MGIz0idzBCfTO3rdxzS3zCDu0N8hzF04G6SzN5Np0XsaiMBfGOJFhFPEIPGQgvW5DvNCH0sSyH13WpdSzriDuONFTRZ1DgQBcUglbRoIoCLhSckau8XO5cce3gO1TJcJDPqFQekzPI8tV3iX1HsP1S7x7WXZq6dbGqFEet7nkg62T3lgjtpHDLcH5L0uO1A1UQ9xGXpwtMao/KSvg6I4ErkyqgQ0KNuBwqY3RH3HPag3DHsM10iHHhQhQioFstvKnBc+SIb05dzLSJqmJox4whyIDCEM6xbghUFUO7BaqbVGhJMnTLYHFtG/NgZ8Mi0gcjekuEdm7HwLF+G9K9EqFKiHtrmCJNF2UJVQHDNK+El9UBlOMfulF3kC1Mn3PsSraBOEcKpP746iBjPCZeIAKvCHIEc8TzF1VV7CpGvgeFBIgEjZqNgTQlVj0L48eremIRlPryETFw+6u+s5X2nr3ZzdgtER0ROjBjuzVmYHi/AenWg6pT3CtrlKh0IcZm0MlMDkJZQh+ZCy9oQQhiAztuc5GX47vcqGKAR3QiIx+Xt0wQpyp7QbirMVuN8Rzb0nlAzwXJ8sGIsopsm/RDiQA13Nh09h3FG4FZ3T0bkKdXIqIHIHfwEtOtHzzGtz7mjO5xrwxSQmLsobUg0hSIP0xoSoDrtToYxdEtMGTz9AuSb0xV8u2rfLsGUY4ugYiXZ59yZVCRjT7E/7ifyMZ5P/crs2erpGMJQJdDm876mvKsb2YXL/ukHcqDl+tLHIyNHcwfLMo3HZIx0bIh+Yq9xzYjFjnBVv8lWPF6BoIb8S5ZPYcpIljPo/NdLM+pc8BHrOTIV+Ftglw6g7M8xuBQO7EUaX6P7u7e0kHKHaSs7pYPmgLZ9SZE2jYnnBFEJLIbO9RzfsKfgC+2cdvK4Y4xXgW9GrMxic4JjElmYIwVbg3ztTD2GRbltp1phc4eSePqDo/I9d3cnTlCMUhZEdFbU91M3FtLVGujDpPQl+DkYRlxzj99INEu6wwsOY/rKnthOenRHPGp1X7uFiIesR7tyyO+0H4lDlJWX41KZe4r7pVU1cjAVV67JbZByD0AG7qB4RIij1LBs/2GPRDxYXAmNixMGAYp0Zc1ANM216AY1wDiXsm0zUttm1DwJSDbttQDEQenno/ejRiYRF/QAOzqvQUxyoHFvZWs2vb0tsoakxWi48wATsxgoteXgtM0ALs2crIHH/dKexb9GzkL20g74HDzxfUVugMT1Jsvtyru/ehHuS+X9NaSjGozHvDDrd/zNDBZvqAtipytjXt7JlRLtqgNVktW6NcDg4y4wcgajJSYX7Yp7pXeLPpj/j+LAX7Ewcy+Bi1f1uYFWSmbF2H8va1xr5QO0HrTiuy49R6wpw2q+oq7AQjqX8TTEPf2FCnr+/KhlZUVttMD/cedtnYAgjYn4umMe9V2a3fWAbYzdAemy54/SOzrFA5AUO8inv64tydAGd2X66ysrPC0eKD3uOti3gAEWRGJEXUWxb1yRWdzu7grQ589HrAnEiYlhl6vplpBm5Ri+X1Dzrq4t95Q5m6yrVZKVjgbPJAYehs2bABSrIizN+6VW6yhWQfYcJycnQz2jMK8zZ/UfqWc7XFvz51t6OZ9ZWVlhbPEA/akwp7Nn1crZQMidkzc2zOlWrmBJlrOrHA2e2Az0RtpjxUBeJcA2Xlxr9pqm9ilfRHPZNWz3wP21MLUzZ9dKyVZxE6Ne3v6urTP0mWFnegBe3ZhfHIAd21VsogdH/e23ap9m3SOlZIVzloP2ADe/Dl2Ip45ca/Ol2vZWXv+MsP69IA9x5CzyT6Qe6bFvXWpdc4mPWMFZYWz2QObPc3P2Li3J2uznrECssJO8MAGT/MzP+7tSdugZyxfVthRHrCnGVanX+vPobi3Z095Jt0nljAr7HAP2D4QO9nnYtyrk5nukx1+sjPz4x6InexzN+6tc2I+sZis8IzzgDnZWdy7U2t80iEtdMRZaUd7IIv7hNOXdYAEpzyzQFncdzqfWQfo5J2djMvivqezl3WAnty0c4iyuN/Yuco6wMb8dbZSZ3G/yTOTdYBNOu7sYMvivt/zkHWAfj34dPBncT8wr2cdYGCu3HpBWdwP3sdZBxi8TwctMYv7QXvUk5d1AM8ZZ1fx/wdrq+sjxAL0oQAAAABJRU5ErkJggg==;fontSize=35;fontStyle=1" parent="1" vertex="1">
          <mxGeometry x="737.3399999999999" y="880" width="59.76" height="60" as="geometry" />
        </mxCell>
        <mxCell id="01VjT6T3kN2u5HqJVLsv-488" value="$$\mathbf{x}$$" style="text;html=1;align=center;verticalAlign=middle;resizable=0;points=[];autosize=1;strokeColor=none;fillColor=none;fontSize=35;fontStyle=1" parent="1" vertex="1">
          <mxGeometry x="-470.1199999999999" y="250" width="260" height="60" as="geometry" />
        </mxCell>
        <mxCell id="01VjT6T3kN2u5HqJVLsv-489" value="$$\mathbf{\vec{x}}$$" style="text;html=1;align=center;verticalAlign=middle;resizable=0;points=[];autosize=1;strokeColor=none;fillColor=none;fontSize=35;fontStyle=1" parent="1" vertex="1">
          <mxGeometry x="650" y="880" width="350" height="60" as="geometry" />
        </mxCell>
        <mxCell id="MZ8DXlV6LjvPI77T9R71-3" value="" style="endArrow=classic;html=1;rounded=0;entryX=0;entryY=0.5;entryDx=0;entryDy=0;strokeWidth=1;fontSize=35;verticalAlign=middle;fontStyle=1" parent="1" edge="1">
          <mxGeometry width="50" height="50" relative="1" as="geometry">
            <mxPoint y="348.77" as="sourcePoint" />
            <mxPoint x="40.000000000000455" y="348" as="targetPoint" />
          </mxGeometry>
        </mxCell>
        <mxCell id="uZ-QMGoUNe0idppu1vMY-5" value="" style="shape=image;verticalLabelPosition=bottom;labelBackgroundColor=default;verticalAlign=top;aspect=fixed;imageAspect=0;image=data:image/png,iVBORw0KGgoAAAANSUhEUgAAAGMAAAHACAYAAAC2xNZhAAAAAXNSR0IArs4c6QAAAARnQU1BAACxjwv8YQUAAAAJcEhZcwAADsMAAA7DAcdvqGQAAA6XSURBVHhe7Z1pd9TGFkXz//8QAQJ2MJNn4wmH6fFYecFumzYG4hiIo1enTIdGrm6prmq4JZ0Pu9aihd2q2j3pWDr9U1VVRAnOG0kenDeSPDhvJHlw3lgiZ5++VCdnn4vj8vIfs/tXc7g2qRJ5c/hndXd9VP26dVwUNx4dVsu7YzOFq3lcm1hpPHvzoXq4c1I9e/OxKO6sjaqFjVG1+ezUTONqLtcmVxL7//lQLe+NnZPVysHrs+rWylG1dnBarT097YeMDTOJ1f13zglrZe/VWXXbiIAA/Lt4GXjDW94fV+vmkVWfrGasiNWjauv5+39vK1rGl6+X9mVp8sgqhe0XZ9XN5aNq58V3EaBYGRBxf/vEPLLKErF+MK5+Mc8IvL/VtxUp4/zi7+qe+ShYf2RpByLurLlFgOJkfDz/Wi09Oa52zWuua0Jaebz3zr5HPH3tFgGKkoGj6sXN0cxHllYemJfThY3j6rf/zt/vYmQcjS/sS9O8R5ZG7j85Mft90igCFCHj7clfdlKlifjVPBvumZdU1zYX6mUgZ1oyIto8sjSxsH5cPd71OwhVLaPknGlZkAaolVF6zuTa3oRKGX3ImSSoktGnnEmCGhl9y5kkqJDRx5xJQnYZfc2ZJGSV0eecSUI2GX3PmSRkkYGcCSJKizeWzMtp25xJQnIZv4/Obc5UWryBnAkfMlzbQpFUBnKmB9vvihNxZ33knTNJSCbjwLwklZYzId5AzrRqDkRd20OTRMbuy7NqJdGEQgER+MQkzZkkRJeBnGnlaVkiEG/cWj20C+PaHotoMpAzPTKvs6XlTDvfcqbt5+mPfaLIQLwBEaXFG8iZbq0cZksDgsv4njOVF2/cCpgzSQgqAznT4mZ5OdPa/ulVzpT5IDSYDMQbyJlKizeQM0GEhjQgiAyIQPJamggkAbFyJgmdZRSdM5lnsqY0oJMM5kxhEctgzhQekQzmTHHwlsGcKR5eMpgzxaWVDOZMaWiUwZwpHXNlMGdKy0wZzJnS45Txx/F5dXP5sLppnuZ4qpcCTrPEGX6lpQETnDJwHIHQDy9PJYGcaWmrvOs5JjhlYIPWo9R54AFEGUqgDEX0QQYOrClDAfib0OLGiDJygya2299im17IwCOrNBn4E8TdtZH9u1Cv3jNKk4HjIcT6k7WmjExABA5QcUHp5DbKyAAyM6QFyNCmb6eMxCDrs7H+i+uxPmUkBCKQoblEAMpIBBb55+VD+5dH13ZAGQlYO3hn/76Cv8W7tk+gjMis7p+a94hRowhAGRF5uPOu+mXtyLnNBWVEAkfUi+sj57ZZUEYEkDMtbvmJAJQRkOmcybW9CcoIRD1nkkAZAXDlTBIooyOzciYJlNGBeTmTBMoQ0pQzSaAMAViwppxJAmV40jZnkkAZHqzsjVvnTBIooyVXOZP/UbUPlNGCe4KcSQJlzAHxBnKmpc32X7vQBcqYgc2Z1o/FOZMEynBg4421o+RrQBk1cMUTciZcAeXaHhPKmAI5E46qQ+RMEijjG4g3cNlcyHjDF8ow4DpxPCNw3bhreyoGLwOTh4jQOZOEQcvAaTSxciYJg5WBnAkfX7WIAIOUkSJnkjA4GalyJgmDkZE6Z5IwCBk5ciYJvZeRK2eS0GsZOXMmCb2VkTtnktBLGRpyJgm9k3HXfGzVkDNJcMrYOLg6LwiNZiVx49Fbg46cSYJTBiazsIkvGB8XxW1zVL20qfvj6zx69TLFvilFUIYiWP6liOLLvxBisvwrPwgxJ53tvZDhyqa0Y0NMfLmKeVb06j2jNBkIMZEmP965WmvKyMTkoszpdaaMDMwKMSkjMbuvrr7TA4te30YZCWlKkykjEVjkppPlKCMBG79dfblKU5pMGZGxZy2utDtZjjIi8mj3xJ4M4drmgjIigW/3XDAHdK5ts6CMCNjyrw2Wf2WVMZ0zubY3QRmBqOdMEigjAK6cSQJldCTkyXKU0YF5OZMEyhAS46xFyhCABWvKmSRQhidtcyYJlOGBT84kgTJa4pszSaCMFkhyJgmU0YA0Z5JAGTPomjNJoAwHIXImCZRRI1TOJIEypmD5V0C6yAidM0mgDIOWq2MHLwOTj5EzSRi0jJg5k4TByoidM0kYpIwUOZOEwclAC1uKnEnCoGTYnElpCxsYhAzkTIubLP9KikvGpIXtgXIRoNcykDPhct5S5tJbGciZEPix/CsTExkQgZypJBGgdzLwsfXn5XDfKpkSp4ztF++rhY2rb/AtCXxtWy/LvxAVLJjP5CVx4/Hb6p7iEuEmevUyxb4pRVCGIlj+pQiWfymC5V+KcGVT2mH5lxLqJ8tRRiZcJ8tRRgZY/qUEln8pgeVfSsAiN50sRxkJYPmXElj+5diWA5Z/KZHB8i8lMlj+Zcgtg+VfU+SUEeKiTMoIQKiLMimjIyz/mkFqGSz/mkNKGSz/aiCVDCxYjIsyKcMTln+1JLYMln95EFMGy788iSWD5V8CYshg+ZeQkDJY/tWRUDJC5EwSKKNGqJxJAmVMwfKvgHSRwfKvwEhlsPwrAhIZmHyMnEnCoGWw/CsiPjJY/hWZtjJY/pWANjJY/pWIJhks/0rILBks/8qASwbLvzJRl4GcieVfmZiWwfKvzExksPxLAZDB8i8lsPxLESz/UgT7phRBGYpg+ZciWP6lCJZ/KcKVTWmH5V9KqJ8sRxmZcJ0sRxkZYPmXElj+pQSWfykBi9x0shxlJIDlX0pg+ZdjWw5Y/qVEBsu/lMhg+ZchtwyWf02RU0aIizIpIwChLsqkjI6w/GsGqWWw/GsOKWWw/KuBVDKwYDEuyqQMT1j+1ZLYMlj+5UFMGSz/8iSWDJZ/CYghg+VfQkLKYPlXR0LJCJEzSaCMGqFyJgmUMQXLvwLSRQbLvwIjlcHyrwhIZGDyMXImCYOWwfKviPjIYPlXZNrKYPlXAtrIYPlXIppksPwrIbNksPwrAy4ZLP/KRF0GciaWf2ViWgbLvzIzkcHyLwVABsu/lMDyL0Ww/EsR7JtSBGUoguVfimD5lyJY/qUIVzalHZZ/KaF+shxlZMJ1shxlZIDlX0pg+ZcSWP6lBCxy08lylJEAln8pgeVfjm05YPmXEhks/1Iig+VfhtwyWP41RU4ZIS7KpIwAhLookzI6wvKvGaSWwfKvOaSUwfKvBlLJwILFuCiTMjxh+VdLYstg+ZcHMWWw/MuTWDJY/iUghgyWfwkJKYPlXx0JJSNEziSBMmqEypkkUMYULP8KSBcZLP8KjFQGy78iIJGBycfImSQMWgbLvyLiI4PlX5FpK4PlXwloI4PlX4loksHyr4TMksHyrwy4ZLD8KxN1GciZWP6ViWkZLP/KzEQGy78UABks/1ICy78UwfIvRbBvShGUoQiWfymC5V+KYPmXIlzZlHZY/qWE+slylJEJ18lylJEBln8pgeVfSmD5lxKwyE0ny1FGAlj+pQSWfzm25YDlX0pksPxLiQyWfxlyy2D51xQ5ZYS4KJMyAhDqokzK6AjLv2aQWgbLv+aQUgbLvxpIJQMLFuOiTMrwhOVfLYktg+VfHsSUwfIvT2LJYPmXgBgyWP4lJKQMln91JJSMEDmTBMqoESpnkkAZU7D8KyBdZLD8KzBSGSz/ioBEBiYfI2eSMGgZLP+KiI8Mln9Fpq0Mln8loI0Mln8lokkGy78SMksGy78y4JLB8q9M1GUgZ2L5VyamZbD8KzMTGSz/UgBksPxLCSz/UgTLvxTBvilFUIYiWP6lCJZ/KYLlX4pwZVPaYfmXEuony1FGJlwny1FGBlj+pQSWfymB5V9KwCI3nSxHGQlg+ZcSWP7l2JYDln8pkcHyLyUyWP5lyC2D5V9T5JQR4qJMyghAqIsyKaMjLP+aQWoZLP+aQ0oZLP9qIJUMLFiMizIpwxOWf7UktgyWf3kQUwbLvzyJJYPlXwJiyGD5l5CQMlj+1ZFQMkLkTBIoo0aonEkCZUzB8q+AdJHB8q/ASGWw/CsCEhmYfIycScKgZbD8KyI+Mlj+FZm2Mlj+lYA2Mlj+lYgmGSz/SsgsGSz/yoBLBsu/MlGXgZyJ5V+ZmJbB8q/MTGSw/EsBkMHyLyWw/EsRLP9SBPumFEEZiqAMRZQu4/HuuHr5v4+UkRuIOHj94V8RlJGJhzsnPzwjJlBGQhBi4kD1zeGfZtl/FAEoIxEIMbGvR+MLs+TXRQA74D9TRjz2jQg8I07OPpvldosAdsAPUEYcEGLiL45nn76YpXZLmGAH/BBlhAcny0HE+cXfZpndAqaxA36QMsKy/fysur99Ul18uTRL7F78OnbAD1NGOLaen1YPzMfXL1/biwB2wC+gjDCsH5xWy3vj6vLyH7O07kWfhR3wSyijO2tPx7ZoXiIC2AG/iDK6sbI/rp6YN+zpxfXFDvhllCHnoVm7es4kwQ74hZThD+IN5Eyv//hkltG9wD7YAb+YMvyACJyxOCtnkmAH/HLKaA9yJsQb83ImCXbAHVBGOyY50+mH5njDFzvgTiijGZ+cSYIdcEeUMR/fnEmCHXBnlDEbSc4kwQ64Q8pwI82ZJNgBd0oZ1+mSM0mwA+6YMn6ka84kwQ64c8r4ToicSYIdsAOUcUWonEmCHbATQ5cROmeSYAfszJBlxMiZJNgBOzRUGciZFjdHwXMmCXbATg1RBuIN5Eyx4g1f7IAdG5oMiMDPaxEB7ICdG5IM5ExoUIiZM0mwA3ZwKDK2nr+3OVOKeMMXO2AnhyADOdMjM0+NIoAdsKN9l4GcCSJSxhu+2AE722cZK99ypumJa8QO2OG+ykDOtPvyzEzTvQCasAN2uo8yEG/kypkk2AE73icZiDfwtQu54w1f7IAJ9EXGJGf6fXRupuaetFbsgEn0QYamnEmCHTCR0mVoy5kk2AGTKVmGxpxJgh0wsVJloPxLY84kwQ6YWInlX7+sjixa4w1f7IDJ1B91JbD36n118bn8Z8QE540kD84bSR6cN5I8OG8keXDeSHJQ/fR/j+dsqLPrvQIAAAAASUVORK5CYII=;fontSize=35;fontStyle=1" parent="1" vertex="1">
          <mxGeometry x="40" y="160" width="78.55" height="355.41" as="geometry" />
        </mxCell>
        <mxCell id="01VjT6T3kN2u5HqJVLsv-333" value="$$\varepsilon_{1}$$" style="text;html=1;strokeColor=none;fillColor=none;align=center;verticalAlign=middle;whiteSpace=wrap;rounded=0;fontSize=35;fontStyle=1" parent="1" vertex="1">
          <mxGeometry x="40.000000000000014" y="195" width="60" height="30" as="geometry" />
        </mxCell>
        <mxCell id="uZ-QMGoUNe0idppu1vMY-7" value="" style="shape=image;verticalLabelPosition=bottom;labelBackgroundColor=default;verticalAlign=top;aspect=fixed;imageAspect=0;image=data:image/png,iVBORw0KGgoAAAANSUhEUgAAAGMAAAHACAYAAAC2xNZhAAAAAXNSR0IArs4c6QAAAARnQU1BAACxjwv8YQUAAAAJcEhZcwAADsMAAA7DAcdvqGQAAA6CSURBVHhe7Z1rk9TGFYb9/z86GPBiLgvBJsvuwu6CMTjcghNXknIRU66KE7N3LsmaGEMRm1DYSp+eHRDa1kh91N3ndOv98PSUpwsj6RnNjN5pvbxXVRVQgvNJIIPzSSCD80kgg/PJHNl7+rLa3fspO16//tVs/mQfDuxUjtxb/7E6trZZnbicF+8v3q+Wbj8wuzDZjwM7lhtffvOf6szVnerynx5nxdGLG9Xc6kZ15ct/md2Y7MuBncuJ23e/rz6+lpeItS8eV0curFfnru9Wn3y+U4YM2rFzZmeaO6uZlX0Rizcf2P/OXgZ94C3fflgt3Ng9sLOaIRGHayKIrGW8fPVLtXjrYXU+MxGLN3erQ0vr9kVUfz5bGSTirPl8WLz19pWVA/TZcOTienXxD++KILKU8ezFq+r0Z9sHXlnaIRFHV9wiiOxk/PD8f+ar63brDmmFzuIj5uvr2h/d80RWMuiq+uSnW9mJOG22+djqZnVphggiGxmbj15Up65szXxlaeSUEXH80lanCCILGd/tPjefETvZifhobas6cXnLOedCvQzKmeavbPd6ZWlibm2zOmNeQK65NlTLyDln4sQyamXknjO55rtQKYM2LPeciYMqGSXlTBzUyCgtZ+KgQkaJORMHcRml5kwcRGWUnDNxEJNRes7EQUQG5UwUE+QWb5y8vNk7Z+KQXMa3W89szpRbvEE5E4V+rrlQJJVBORN9WGeXM63450wcksm48/WT7HImijcoZ6KD5JoPTRIZ17/aM39RXhdzNmcyIrg5E4foMiZ/yTjjDV+iyaCciaKN3HKmC+bik0QsCaQBUWRQvLFgTu/c4g3KmUiEVBoQXMabnCnxKT4UmzMZEZIXoUFlUM500lzM5ZYz0UGgnGn1ziPnfCqCyaB4I9ec6ehK+JyJQxAZJIKW0eQmgq6oY+VMHAbLyDlnou3WlAYMkoGcKSxsGciZwsOSgZwpDt4ykDPFw0vG5A8gZ4pFLxnImdLQKQM5UzpmykDOlJZWGciZ0uOU8Y+d59Wh5fuWDy5kxNJ9u8IvtzRgilPGF/ee2KiA3p5y4tjqhtnuTeeO5oBTBt2kQlfXrj+gGXoBQYYSIEMRJcigR8hQwDRNhgxhSMRh8+21mLcpWpScmwz6CeJD83WcVuQX9Zlx3N4En48Muh4iEWf3f44oS0ZGZwaJOEwirr39fQUyBKDMjG7KbP6+AhmJoaxv8vvKwZ8jICMhJOID843JJYKAjEQs3Hhg3pru218eXfMEZCTg3O93zFvThv0t3jU/BTIi87E5wEd6iCAgIyLzn25bEa45F5ARCbqipnW8rrk2ICMClDMd9xRBQEZA6jmTa74LyAhEM2fiABkBcOVMHCBjIG05EwfIGMCsnIkDZDDpypk4QAaDPjkTB8jwpG/OxAEyPKDS4745EwfI6AnlTHQbmmsuFJDRA1oC5JszcYCMGVC8QTnTiUvxRRCQ0YLNmVY22TkTB8hwQPEG3ecxJGfiABkN6I4nypnowLjmYwIZNShnOrwcJmfiABn7xIg3fIEMA90nTiLovnHXfCpGL8PmTEZE6JyJw6hl0DKaWDkTh9HKiJ0zcRiljBQ5E4fRyUiVM3EYjYzUOROHUciQyJk4FC9DKmfiULQMyZyJQ7EypHMmDkXK0JAzcShOxtzKhoqciYNTxiUzQUsW6YMvJ36z+F31vkFDzsTBKeP23763/9I7LeTNCRJywmy3a0dzoKi3qRIqjiBDCZChCJJBj5ChANp+lH8pgEJMKkYu5m3KlU1ph0LMudVJiFnUZ0aW5V8rm9XpK5M0uSwZGZ0Zb27KrKXJkCGADTHN5wPKv4SZijjvCDEhIyE2TV5C+Zc4tFiO0mSUfwnzO/PZQIvlutJkyIiMXbW4jPIvcc6YY4jyL8dcaubNFTX94yquuTYgIwKUM33E+JELMgJSz5lc811ARiCaORMHyAiAK2fiABkDacuZOEDGAGblTBwgg0lXzsQBMhj0yZk4QIYnfXMmDpDhgU/OxAEyeuKbM3GAjB5wciYOkNEBN2fiABktDM2ZOECGgxA5EwfIaBAqZ+IAGTVC5kwcIGOf0DkTB8gwxMiZOIxeRqycicOoZcTMmTiMVkbsnInDKGWkyJk4jE4GtbClyJk4jEoG5UxaW9iIUciYtLCh/CspLhnTFrb5y7pFEEXLsDmTuarOoYWNKFaGjTcuovxLjKkM6cCPS3Ey5szXVvo39HJrYSOcMq795d/Vh2anSEhO0NlQZPnXoeV18y1kIyuoie244hLhLop6m0LflCIgQxElyKBHyFAAbT/KvxSA8i8FoPxLCc3FcmXJyOjMcC2WgwwB2rIzyEjMrMVykJEQlH8pAeVfSkD5lxJQ/uWYkwDlX0pkoPxLiQyUfxmkZaD8q4akjBA3ZUJGAELdlAkZAwm5RgsyBjArZ+IAGUxQ/tVBKhko/+pBChko/+pJbBko//IgpgyUf3kSSwbKvxjEkIHyLyYhZaD8ayChZITImThARoNQORMHyKghfS8gZOwTOmfiABkGlH9FgCMD5V+R8JWB8q+I+MhA+Vdk+spA+VcC+shA+VciumSg/CshbTJQ/iWASwbKv4RoyrA5k7mqRvmXAHUZNt5A+ZccUxnSgR+X4mSg/EsJdDag/EsJKP9SBPqmFAEZiihBBj1ChgJo+1H+pQCUfykA5V9KaC6WK0tGRmeGa7EcZAjQlp1BRmJmLZaDjISg/EsJKP9SAsq/lIDyL8ecBCj/UiID5V9KZKD8yyAtA+VfNSRlhLgpEzICEOqmTMgYSMg1WpAxgFk5EwfIYILyrw5SyUD5Vw9SyED5V09iy0D5lwcxZaD8y5NYMlD+xSCGDJR/MQkpA+VfAwklI0TOxAEyGoTKmThARg3pewEhY5/QORMHyDCg/CsCHBko/4qErwyUf0XERwbKvyLTVwbKvxLQRwbKvxLRJQPlXwlpk4HyLwFcMlD+JURThs2ZzFU1yr8EqMuw8QbKv+SYypAO/LgUJwPlX0qgswHlX0pA+Zci0DelCMhQRAky6BEyFEDbj/IvBaD8SwEo/1JCc7FcWTIyOjNci+UgQ4C27AwyEjNrsRxkJATlX0pA+ZcSUP6lBJR/OeYkQPmXEhko/1IiA+VfBmkZKP+qISkjxE2ZkBGAUDdlQsZAQq7RgowBzMqZOEAGE5R/dZBKBsq/epBCBsq/ehJbBsq/PIgpA+VfnsSSgfIvBjFkoPyLSUgZKP8aSCgZIXImDpDRIFTOxAEyakjfCwgZ+4TOmThAhgHlXxHgyED5VyR8ZaD8KyI+MlD+FZm+MlD+lYA+MlD+lYguGSj/SkibDJR/CeCSgfIvIZoybM5krqpR/iVAXYaNN1D+JcdUhnTgx6U4GSj/UgKdDSj/UgLKvxSBvilFQIYiSpBBj5ChANp+lH8pAOVfCkD5lxKai+XKkpHRmeFaLAcZArRlZ5CRmFmL5SAjISj/UgLKv5SA8i8loPzLMScByr+UyED5lxIZKP8ySMtA+VcNSRkhbsqEjACEuikTMgYSco0WZAxgVs7EATKYoPyrg1QyUP7VgxQyUP7Vk9gyUP7lQUwZKP/yJJYMlH8xiCED5V9MQspA+ddAQskIkTNxgIwGoXImDpBRQ/peQMjYJ3TOxAEyDCj/igBHBsq/IuErA+VfEfGRgfKvyPSVgfKvBPSRgfKvRHTJQPlXQtpkoPxLAJcMlH8J0ZRhcyZzVY3yLwHqMmy8gfIvOaYypAM/LsXJQPmXEuhsQPmXElD+pQj0TSkCMhRRggx6hAwF0Paj/EsBKP9SAMq/lNBcLFeWjIzODNdiOcgQoC07g4zEzFosBxkJQfmXElD+pQSUfykB5V+OOQlQ/qVEBsq/lMhA+ZdBWgbKv2pIyghxUyZkBCDUTZmQMZCQa7QgYwCzciYOkMEE5V8dpJKB8q8epJCB8q+exJaB8i8PYspA+ZcnsWSg/ItBDBko/2ISUgbKvwYSSkaInIkDZDQIlTNxgIwa0vcCQsY+oXMmDpBhQPlXBDgyUP4VCV8ZKP+KiI8MlH9Fpq8MlH8loI8MlH8loksGyr8S0iYD5V8CuGSg/EuIpgybM5mrapR/CVCXYeMNlH/JMZUhHfhxKU4Gyr+UQGcDyr+UgPIvRaBvShGQoQjIUETuMn57baf6699/gAxpSMSdr5+8EQEZQpy5+u4ZMQUyEkIhJnUS3lv/0Rz2d0UQkJEICjFpQfXmoxfmkB8UQdgBMuKyeudRderKVrW795M53G4RhB0gIx4UYtJb097Tl+ZQuyVMsQNkxIEWy82bM+LZi1fmMLsF1LEDZIRn6daD6qz5+vrfn1+bQ+w++E3sABlhWTQiaJ3Wy1e/mMPrPvAu7AAZ4Vi4sWtkPKxev/7VHFr3QW/DDpARBlo+So8cEYQdIGM4n3y+W13989vQj4MdIGMYtBqlmTNxsANk8KB4g3Kmu/98ag6j+wD7YAfI8IdEnP5spzVn4mAHyPCDciZaOjorZ+JgB8jozzRnevzkZ3Po3AeVix0gox8+ORMHO0BGN745Ewc7QMZsODkTBztARjvcnImDHSDDzZCciYMdIOMgQ3MmDnaAjHcJkTNxsANkvCVUzsTBDpARPmfiYIexy4iRM3Gww5hlUM5E/5/QORMHO4xVho03zFV1rHjDFzuMUQaJOHN1W40Iwg5jk0E500nzZ2PmTBzsMCYZizcnOVOKeMMXO4xFBuVMC+bKWqMIwg5jkEE503lDynjDFzuULoPiDXqs77hG7FCyDBJx/as9s5vuA6AJO5Qqg+INqZyJgx1KkzGJN7bF4w1f7FCSjGnO9O3WM7Nr7p3Wih1KkaEpZ+JghxJkaMuZONghdxkacyYOdshZBpV/acyZONiBZORY/nXkwno1t7KhNt7wxQ60MyQkN27d3Yu+sCwlzieBDM4ngQzOJ4EMzieBDM4ngQTVe/8HdiERF77mkIEAAAAASUVORK5CYII=;fontSize=35;fontStyle=1" parent="1" vertex="1">
          <mxGeometry x="660" y="160" width="77.34" height="350" as="geometry" />
        </mxCell>
        <mxCell id="01VjT6T3kN2u5HqJVLsv-370" value="$$z_{1}$$" style="text;html=1;strokeColor=none;fillColor=none;align=center;verticalAlign=middle;whiteSpace=wrap;rounded=0;fontSize=35;fontStyle=1" parent="1" vertex="1">
          <mxGeometry x="655" y="195" width="60" height="30" as="geometry" />
        </mxCell>
        <mxCell id="uZ-QMGoUNe0idppu1vMY-8" value="" style="shape=image;verticalLabelPosition=bottom;labelBackgroundColor=default;verticalAlign=top;aspect=fixed;imageAspect=0;image=data:image/png,iVBORw0KGgoAAAANSUhEUgAAAGMAAAHACAYAAAC2xNZhAAAAAXNSR0IArs4c6QAAAARnQU1BAACxjwv8YQUAAAAJcEhZcwAADsMAAA7DAcdvqGQAAA5MSURBVHhe7Z1bbxRHGobz44PN+WDj4N2LRFEuk9VKuwQIBhuDjdmAITGLQeRkLY6EhLSJlJ3p7hnbtVU1GTyMq6e7vq7DV93vxdNSpm+Yfjy253XPk4+EEIAJxgdBHIwPgjgYHwRxMD6YIoe/vxUH7/aSQxwO5T9/9BxOPKkUGe49Ef27F0R271JS9L4+JbKHX8inMHoeJ55YahSv1kSxtSiOfv1LUmR3zops9Ywonv5NPo3Rcznx5FJi8OKWGDy+anyybHlzTfRunRaD7xckl9sho9j+UuRP03pFHPzyiRYx3B19AaUvQ/7Ayx99IQY7ab0itIhv5sXw1fG/O2kZR4NM5Fufi8GLxES8WhS9m3Pi4IelDx5PVoYSkd1fFsOXHz4h7gyfL4j+7dPi8OdPTpxLUsZR7zf5q+DSia8s7mgRK2YRiuRkHP7xTr4ipIif0hJRPLks+vJnxOF/rhnPK5KSod5VZ2tXSr+yuJI/km9A186Jo/1l4/kxycg4ePtaZOsLM7+yOJI/vCj/3dUiFEnIGP66K/KNxeREZOvn5b/7gvGcCfYy1M6Ub1yp9ZXFiWz1nMi/vWw8VwZrGSnvTMW2nQgFWxmp70zG8xWwlNGGnYkCLxkt2pkosJHRtp2JAgsZbdyZKESX0dadiUJUGW3emShEk9H2nYlCFBl6Z1q9lNy80d+QImruTBSCyxi+2dE7U3LzhtqZNi8az7kiqAy9M20muDPdPWu9M1EIJqN4uZLezvTm2mhn+k5+AZnOOyaIjOL5dVFsp/UbkxKh3kNQdyYK3mWonal4Fu4JuWC0M8032pko+JNxOBTZ5mfp7Uw/Lo12ptfh/91eZOh5Y/PT5OYNtTP15Ssi1hrgXMb7nanhghkaPW+od9UR34Q6laF2pv7qQnI7UyEvgt6Z9uK+CXUmQ88b95eSmzf0znRHimCwBjiRoUWo22hS25nUbTSediYKjWWkvDPp22gYrQGNZGBncgtZBnYm95BkYGfyg7UM7Ez+sJKBnckv9WRgZwpCpQzsTOGYKQM7U1hKZWBnCo9RxnD/hejdmBtxMy36t93fzxQKo4xi964oNs/rb08p0V87I/KNc8YnmgJmGa/WRfGY31xQhdqaIIMJkMGIVsjY/goyOJA/OCf6d69CRmzy+2fle6O5Fn2beqA+d52YjP1l+Wo4LfLNCy37mSFf5inJUO+H1N/fiyeX9H+37Ad4OjK0CPkGtXh6/IcuyIiA2sx6N0/pDW3yccgIjNr61A9qtSpPn4OMgCgRvVtmEQrICMRwd1H0bpzSf3k0nVdARgAGO1f031fU3+JN58dAhmcG340+plwlQgEZHsn/dVFkK6eN50xAhifyh+dF/95Z47kyIMMDamfK1u1EKCDDJRM7k/F8BZDhiOmdiQJkOMC0M1GAjIaU7UwUIKMBs3YmCpBBpGpnogAZBOrsTBQgw5K6OxMFyLCgeHrJmwgFZNRktDOdMZ5zBWTUIN+w35koQMYs9pdH9zN5erVNAxllSBHZKn1nogAZBvS8sTLfaGeiABlTqE886Z1JXhjTeZ9AxgRqZ+rLd9UudiYKkPEneme6Kd9VO5w3bIEMifqcuN6Zfoz7YdLOy9A7k3pFON6ZKHRahs1tNCHorAy1M+nbaJiIUHRSRoidiULnZITamSh0R0bgnYlCN2RE2JkotF5GrJ2JQqtlxNyZKLRWRuydiUIrZXDYmSi0TkZ29zSLnYmCUUb2+CvRvzEn+nfmk6J3/ZTo/fNjFjsTBaOM/N/fiFy+MVI38qZET/6wHv/MSJGWfZtCb4oNkMEIxL8YkXz8S42YiH/FR42Y6lfy9nybSjT+lakELOJfcVEjpl6TH42udct+gKcj4/2HMifWZMiIQNmICRmBOfhp9KHMwe7JNRkyAlK1JkNGIPTNcmpNRvwrLoPnow9lVq3JkOGZ0V2Lc4h/xSZ/fAHxL9O50BRbF0W+iviX8VxI9M1y9+xvH4UMl0zsTMbzFUCGI6Z3JgqQ4QDTzkQBMhri8mY5yGjArJ2JAmQQ8XHXImQQqLMzUYAMS+ruTBQgwwKbnYkCZNTEdmeiABk1oOxMFCCjAurORAEyymi4M1GADAMudiYKkDGFq52JAmRMgPiXQ5rIcL0zUYAMCZdPx3Zehq+diUKnZfjcmSh0VobvnYlCJ2WE2JkodE6GqrCF2JkodErGaGfiKULRDRlqZ5ISEP8KiFHGuMK2xVuEotUy9M4kf2NKocKmaK0MvTPdnkf8KxZjGVqEfEWkJELROhnqD0L6/6GXWIVNYZSRP/uH/qGnhKRE//ZcO+Nfajzrr55Jiv9d/1hkD/i+j6iiZd+m0JtiA2QwAvEvRiD+xQjEvxiB+BcjEP9ihBKRigzTzXKQEQHEv5iA+BcTEP9iAuJfTED8iwmIfxnOxQDxLyYyEP9iIgPxL0l0GYh/HRNThosPZUKGA1x9KBMyGoL4VwmhZSD+NYOQMhD/qiCUDMS/ahBCBuJfNfEtA/EvC3zKQPzLEl8yEP8i4EMG4l9EnMpA/KsZrmS42JkoQMYUrnYmCpAxAeJfDmkiA/Evx1BlIP7lAYoMxL88YSsD8S+P2MhA/MszdWUg/hWAOjIQ/wpElQzEvwJSKgPxr/AYZSD+FYdpGXpnkr8xIf4VgUkZiH9FZiwD8S8GKBGIfzEB8S9GIP7FCPSmGAEZjED8ixGIfzEC8S9GIP7FCMS/GKFEpCLDdLMcZEQA8S8mIP7FBMS/mID4FxMQ/2IC4l+GczFA/IuJDMS/mMhA/EsSXQbiX8fElOHiQ5mQ4QBXH8qEjIYg/lVCaBmIf80gpAzEvyoIJQPxrxqEkIH4V018y0D8ywKfMhD/ssSXDMS/CPiQgfgXEacyEP9qhisZLnYmCpAxhaudiQJkTID4l0OayED8yzFUGYh/eYAiA/EvT9jKQPzLIzYyEP/yTF0ZiH8FoI4MxL8CUSUD8a+AlMpA/Cs8RhmIf8VhWobemeRvTIh/RWBSBuJfkRnLQPyLAUoE4l9MQPyLEYh/MQK9KUZABiMQ/2IE4l+MQPyLEYh/MQLxL0YoEanIMN0sBxkRQPyLCYh/MQHxLyYg/sUExL+YgPiX4VwMEP9iIgPxLyYyEP+SRJeB+NcxMWW4+FAmZDjA1YcyIaMhiH+VEFoG4l8zCCkD8a8KQslA/KsGIWQg/lUT3zIQ/7LApwzEvyzxJQPxLwI+ZCD+RcSpDMS/muFKhoudiQJkTOFqZ6IAGRMg/uWQJjIQ/3IMVQbiXx6gyED8yxO2MhD/8oiNDMS/PFNXBuJfAagjA/GvQFTJQPwrIKUyEP8Kj1EG4l9xmJahdyb5GxPiXxGYlIH4V2TGMhD/YoASgfgXExD/YgTiX4xAb4oRkMEIxL8YgfgXIxD/YgTiX4xA/IsRSkQqMkw3y0FGBBD/YgLiX0xA/IsJiH8xAfEvJiD+ZTgXA8S/mMhA/IuJDMS/JNFlIP51TEwZLj6UCRkOcPWhTMhoCOJfJYSWgfjXDELKQPyrglAyEP+qQQgZiH/VxLcMxL8s8CkD8S9LfMlA/IuADxmIfxFxKgPxr2a4kuFiZ6IAGVO42pkoQMYEiH85pIkMxL8cQ5WB+JcHKDIQ//KErQzEvzxiIwPxL8/UlYH4VwDqyED8KxBVMhD/CkipDMS/wmOUgfhXHKZl6J1J/saE+FcEJmUg/hWZsQzEvxigRCD+xQTEvxiB+Bcj0JtiBGQwAvEvRiD+xQjEvxiB+BcjEP9ihBKRigzTzXKQEQHEv5iA+BcTEP9iAuJfTED8iwmIfxnOxQDxLyYyEP9iIgPxL0l0GYh/HRNThosPZUKGA1x9KBMyGoL4VwmhZSD+NYOQMhD/qiCUDMS/ahBCBuJfNfEtA/EvC3zKQPzLEl8yEP8i4EMG4l9EnMpA/KsZrmS42JkoQMYUrnYmCpAxAeJfDmkiA/Evx1BlIP7lAYoMxL88YSsD8S+P2MhA/MszdWUg/hWAOjIQ/wpElQzEvwJSKgPxr/AYZSD+FYdpGXpnkr8xIf4VgUkZiH9FZiwD8S8GKBGIfzEB8S9GIP7FCPSmGAEZjIAMRqQuo/h2UQx+2ISM2CgRxcuV9yIgIxLF1oeviDGQERI1Yt6/IoZ7T+Rl/1CEAjICoe9alCIO3r6Wl/ykCIU+QIZfDvekiPUFcfBuT15uswiFPkCGP9SIma0tiMPf38pLbZYwRh8gww/qZrlsbVEc9X6Tl9ksYBJ9gAz3DF9flT8jlsVR/oe8xOaLP40+QIZbhi/lK+LBX8XRIJOX13zhTegDZLhjsHNV5FufC3E4lJfWfNHL0AfIcEPxvXxXvf0lSYRCHyCjOcX2kiie/V1eTvOFroM+QEYzikcndyYK+gAZRPaXRzvTz4/kZTRfYBv0ATIISBH5xmLpzkRBHyDDDr0z3bs8c2eioA+QUZ/3O9N/9+WlM19UKvoAGfWw2Zko6ANkVGO7M1HQB8iYDWVnoqAPkFEOdWeioA+QYabJzkRBHyDjJE13Jgr6ABkf4mJnoqAPkHGMq52Jgj5AhsTxzkRBHzovw8POREEfuixjVGG75HxnoqAPXZWh5411f/OGLfrQRRlaxP0lNiIU+tA1GTr+tbrgdWeioA9dkjF89efOFGDesEUfuiJD70ybn7IUodCHLshQO1O2+VnQecMWfWi7jOLZwmhnmnry3NCHNsvQO9Pz6/Jpmi8AJ/ShrTLUvBFrZ6KgD62ToeaNzfKPa3FFH1olY7wzvdmRT838pLmiD22RwWlnoqAPbZDBbWeioA+py+C4M1HQh5RlqPgXx52Jgj4oGUnGv1bmRe/WBbbzhi36oJ6MfnUkRr5zy/uNZSExPgjiYHwQxMH4IIiD8UEQB+ODIAbio/8D1HZ3PmMUbp8AAAAASUVORK5CYII=;fontSize=35;rotation=0;fontStyle=1" parent="1" vertex="1">
          <mxGeometry x="1310" y="162.58" width="77.39" height="350.25" as="geometry" />
        </mxCell>
        <mxCell id="01VjT6T3kN2u5HqJVLsv-457" value="&lt;span style=&quot;text-wrap: wrap;&quot;&gt;$$\mathbf{z}&#39;$$&lt;/span&gt;" style="text;html=1;align=center;verticalAlign=middle;resizable=0;points=[];autosize=1;strokeColor=none;fillColor=none;fontSize=35;fontStyle=1" parent="1" vertex="1">
          <mxGeometry x="1201" y="255" width="270" height="60" as="geometry" />
        </mxCell>
        <mxCell id="uZ-QMGoUNe0idppu1vMY-11" value="" style="shape=image;verticalLabelPosition=bottom;labelBackgroundColor=default;verticalAlign=top;aspect=fixed;imageAspect=0;image=data:image/png,iVBORw0KGgoAAAANSUhEUgAAALcAAAEBCAYAAAA6ijRDAAAAAXNSR0IArs4c6QAAAARnQU1BAACxjwv8YQUAAAAJcEhZcwAADsMAAA7DAcdvqGQAABVzSURBVHhe7Z1fyGfFeccXSdSmBrZY6JKLsr1oa8lFLezFQiERQlqp+KdSmg0NycZN46JusjFaNiblTZOIGGtWE8NScCM0gsFCta1WCAEhN4K5kECLDRRMAqIXAUNy4UUuTs/nhbHHkznnN3Nm5swz5/0ufNjfe97dfWfP7/Ob88wzz8wc6rpOiE1y6JWf/bS75duf7blzVa65/bruI7d+rG+Dv2FCpHLo33743e4Tj9/ZPftfz67KX9x6Y3fFb727b4O/YUKksi/33f/6xe6nb/xoVR565hvdH3/gWN8Gf8OESKWa3I+98M/dF/79q30b/A0TIpWqctNzP/bYY307/I0TIoXqcl977bV9O/yNEyKFqnJ//IE7uieeeKJvh79xQqSgmFtslupyHzlypHvuuef6tvgbKMRSqst91VVXdXt7e31b/A0UYinV5abXfuGFF/q2+BsoxFJMxNxvvPHG/u9C5KS63K+99lp3+PDhToKL3FSX+8033+xbcUiDSpEdE2HJ888/r55bZMeE3PTeL7/88v5rIXJhQm7qS8h3u0YJkQMzYQlxt0ITkRMTcoNy3SI3ZuR+5ZVX1HOLrJiR+/Tp091NN9301tdCpGJGbgaVR48efetrIVIxIzfpQEIT97UQqZiRG5566ikJLrJhSm7KX8+dO/e2a0IsxZTcDCpheE2IpZiSW4icmJP7vvvu268UHF8XIhZzcl9++eUdA8vxdSFiMSf38ePHJbfIgmJusVnMyU2eWxkTkQNzclMdSPmrJnNEKubkpjKQ/QMlt0hFMbfYLCblJlticRr+F2/+srvw/W9X4dWfv943wd8u4cek3OfPnze5ppJ7deOjt3V/38u2Jh96/O59wcftEfOYlJuNes6ePdu//PXv1YR7deY//rH7Qf/Fmnzm6Ue6rzx5vn/lb5fwY1Jui/CBu/SyS7sTD9/pFbAk7/v4X3ZXHvnt/pW/bcKPWblPnDjRXbhwoX/p//7auBX6n/zOl70CluSjD9+z/7O1xjQOs3KfPHnS1JEiiPXQkxeqhCXE3XuP39+/8rdN+DErN5M5DCzH12vBjlj/8uIz1eQm5tbhWHEo5g6E7M2nvnRXNblP33u2o2JSoUk4puW2cqQIQiHWN5++WE3ur3/vW/tbPb/00kv9FX87xdsxLTdrKlm8ML5eA7Il3KtacivPHY9puZmptLDNGnUuFuSmHRbz/1ZRzB0ACyiQyoLcpARJS/a/vG0V/49puektibtrVwheffXV+5mK2nL3v/ZTpJI7DNNyuyNFap8y7D5cFuQW4ZgPS4i7a6a/yG+7NZ0W5OZpxp6K/M7XYhrzckPNI0VY8nbNNdf0L+303KQELZUmWMW83LWPFEFuV1tuRW4dTBuGebkZPFmZmbMitwjDvNxQa1aOuHY4mLUkN08z7e8yTxNyk62okQ6kcIv41n1tSW7GAdoCY54m5OZNrHGkCHJTV+6+tiR3rQ98SzQhN5kBC0eKWJIbyCKpSnCaJuSucaQIP5PZwOE1a3Jrs/55mpAbGDytOXHhlpUNf6Y1uRHb5eDFr9OM3Gv3UmRohvE2WJNbh2TN04zcDCprZwesyQ08YbSAwU8zcq+Nr/rOotx84BWa+GlKbrImaxwpQgaCeHu8xM2i3IxFKMkdXxeNyb3WkSLITV59/EGyKLeYpim5GeDVnHK2Kjf3xNI2GFZoSu61II71LUy2KjdtrVk5aZWm5CbttUbGhNlQX09oVW7ui6XduazQlNxrHSnCwNU3rW1Vbou8/JMfdfc//ch+u9fG7WXelNwIV/NIEcty88G3lBI89oHj3e//6VXdN5/92qqcunjbW/eqKbnXgPh1qgLRstyuXMDKjCVbLp+4/a+6X73636uC4M3KTWZgb2+vf+n/fipkZMYFUw7LcpO2tLSu8vMXv9I99NRXvQKWpGm5GeiVzAzweJ9akGxZbktwD9mVFtF8Apakabmp0iu5cGGu8tC63HwoLaw3Zcb0plv/WnK7G2IBQp7hsrIx1uVG6rVmceegDX93YU9yuxsSA6WvJTZiJ5afq9OwLjewoHmN+ptd0F7JPbopIZQ6UoSQZK58tAW5oWYJLJ0O4ZHkXig3A5YStRS7drZqQW4+oKQEx+W6a8ATg5CEp4fkNhRzI/Z4WdmYVnpuQqsam/aTYyeTRewvuRPkpv4j55Ei9Db0OnPxaityI1ntuFtyJ8idu3dChi2EJQ7CtrVTgoyF3D2U3AlyE3fD+PpSQgZhLcm99k6w3D/COsndYynmptfmjdmVH25JbkqD1zw/h1BoWLYguRPk5mbSO+UoFHKDyV3/Vkty10ZyJ8jtettcR4qExKetyU3vnTN0m4IME/vKDDNNkjsxLCGMyDFoIusylwJ0tCY39d1TFY458WWaJHeGmHtXhiMEMi8hZbStyY10aywcpmMYl0NI7kS5cx0pwr8RkjNvTe618OXUJXei3L7NKkvSotw8kUoUmTmI6X2TX5I7Q1iSWkNBWBM6KG1RbtKBc5WOqTCR5ts7XXJnkJsBZUo6kAFX6OKHFuXmqZYro+SD++97ckruDHJT252yMoc1k6EzeS3KXRJCkamZXcmdQW7EXOtIkVblJnQoUf9OJmZq5ZLkziA3vcfSsIR4OyYP3KrczAcw6BtfT4V7N3X/JHcGuYE3b0nGhJ4nptdvVW4oUUTlSwE6JHcmuZceKcJAK6ZstmW5GfjlmPBy8LScSzFK7kxy82hcY4PMluXONeHlIMV4/Pjx/qX/+5I7k9xLoCdjkBVTm9Ky3PS0IZWPoZBlmksxSu6MchNTzsWAY4jTebMPityQMyzZheTOKDfZgF2LDYYwAI0t5m9dbj7IOabiuc+7Cs0kd0a5if9K1lBA63JTB5IjNAkppZXcFWNuMiyxdSmty03YxqAyddOekEUQkjuj3PRGoelAQhJ6sIMm95pI7oxyu/LXkEcuPRj57ZgBKGxBbv7PjDVi/+8O/m5IJyK5M8rNYInSzlypLh9bkNs9tZZWClJLErK6R3JXirnJby/Z0GcLcgMx89K4G7FDSh0kd2a5SVGFSEvacEmtxVbkXgPJnVluhA2ZYubPxUzeOLYkN6nT2Ekd/k7oE09yZ5abeHvXwgWkXiI2bEluxicxxWYuVg+dKJPcFWJuRvvURYyvh7AluVntH7tLbkzqVHIXkJveaG6mkkdr7LS7Y0tyx0IIE/PEk9wF5GZaeG5JFVmCkNG+j63JzSxtyMCanDiD8JjyBsldQG4etXODnpTKuK3JvasjcCypSZHcK8fc9Dwpi4m3JjdhRuhGmbGdguQuJPfUkSLE2imrwLcmN9Ab74qlmbiJzTBJ7kJyTx0pQqy9NN6GLcrNh32ufBX5CUlCe3iH5C4kN722Lz6MTX2N2aLc9MoMLMfXHQzAmRiLLbSS3CvG3K5qUD3320HamIFiKJK7kNwITOpq+KaR8krdmWqLcgMffN8EDeIz4bVkRldyF5KbNyWlrHOKrcrNQNv3wSeM4z5K7khKhyWIPXxTSAOmhCSwVbkZLPoKzujNl87mSu7CMbfLzSI5PVDM6ngfW5W7BJK7oNzDCRsXgy95vA7Zstz03sMVNoxXWOXuvo5FcheU28WLqaHIkC3LTRg37AAQPWUALrkLhyUuA0CmxJcNiGXLciM1EzpObnrylDBOcheWmzeKxys90JI1k2O2LHduJHdhuantJm5kBi51IxrYutz01twveuzUQ6Ikd2G5c0zcDNm63DzlGKfccMMNSQVmILkLy81kzoMPPpglJIGtyw10CAwuU590kruw3HDs2LHu+uuv71/6vx/DQZAbctSaSO4V5L7yyiu7m2++uX/p/34MB0HuM2fOdJdccklyMZXkXkFuapVjtjCY4yDITax92WWXJdflSO7CcpPb3rWPdAwHQW567BdffFE9dwpryE3Rj1uVE1ts72PrciO0W3GjAWUCa8hNfQmj/xxFU7B1uclxuw2LYrdyGCO5V4i5gTcNycfXYzkIcjuheb203BUkd0G5ecQyM6nCqWVw31KqKCV3QbldlRuvET1HxmTLchO2jRdQ04svHVhK7oJys1DBPWLJmhB3p2YAtiw3ZQrj4/did4IdIrlXirl5vPJGSe5p2Pp5vKsUWaZdW0JPIbkLys2aQJfWysWW5c6N5C4kNzlawpBhT0RMmVpAtVW5yYpMzUhyz5bkvCV3IbmZsBnnaEkFhhwpMscW5eZeMfCekjt0J9gxkruQ3MTW4xlJUltLT1RwbFFuxiMMJKdmcMmgLClhkNyF5I45mCiGLcpdCsldSO6p6XaET5lS3qLcpAB3VQCSDoxNCUruQnKTJfE9ZpfGj46tye0G3rtSpGzzEDtekdwF5Ca2nnqziB9TwpWtyU28HVJzw58bbtgTguQuIDe989KJh11sseceX8uF5C4gN9Vs42nkIcSYSzfo2ZLcPOEISUInuujh5zapHyO5C8jtSwMOmTpSJIQtyc0g8vDhw8GLOFx9TmiloOTOLDe90a6RP3H30mn5LcmN1LEnlMXcN8mdWW565JhHZyxbkpswI7TXdvDnQ+N0yZ1Z7tOnT++cTeOxyuN4SYXgVuR2O+CGhhgOQpPQraAld4GYexf0PlOTPLvYitz02kvy/dw75A4ZkEvujHJz40MHisxSxvZasBW5UwiN0yV3RrnpiWMetbGDKdiC3Ay6Uyay6ERCJn4kd2a5Qydv6LmX7P66BbkRmzHH+HooLj++KzSR3BVibnA1FbxR4+/NsQW5mUafm+QKgbmCXWMWyZ1RbrIkMbIumXregtxrIbkzyU1aj544ZpKBDwLx4/j6HK3LTSixZOGBDxZ+zHUmkjuT3PTCpLZiZCUnTh3K+PocrcuN2CzkGF+PhftM3D43sJTclWJu4I2JHVS2Ljf/513lCaEQt8/9W5I7k9xkAGInZeh9YtOBrcu9JpI7k9zMmoXkXscQg8ZM5rQsN/cnd507oeBUSlByZ5KbNy02rQcUWcWsDWxZbkTMNZh0MGaZ+jcld8WYG3hjDorchG1LZmXnoNeeylBJ7gxyE28v3ayRuPsghCX8H5c82VKQ3BnkZrYsZZN0puJDU4itys0TKndI4iDf7etcJHcGuUlJpTxumfwJzbS0KjcpzyUD7hAQmw5mfF1yV465gUFR6BvfqtxMcsVMcMVAuDPetB4kd6Lc9Li+XqMULcpNacKSVUcxIPg4ppfciXIzhZ6ygxTwxofWN7cod8pq/1B8pQySO1FuUlFTkwih8PeJu0N6txblZoJr6Wr/UHiC8nOG1yR3otxLloqN4d9gwBUyKG1R7rUY3z/JnSC3W3CQQ/BQWpO7xMTNFLwfw6yT5E6QmwxHynKpIYz2Q6rlWpKb7AihQq4qwF2Md4KV3AlyMzrPFUuGflBaktuFW2vNTDJm4R66nye5E8OS8bWl8OgOybq0JHdtJPdCuemVQjeHyUlLclOSsFav7aDDcVPxknuh3IQjyJ1zMEkueNeRIq3I7Qbba3/4h2lVyb1QbgZLuWfdKADaFZq0Ijcf+tST25bA++Jq6yX3QrmJkXOnAMmY7NrPoxW5LSC5F8pNyin2jJYctCA3vSf3Z+1428HPZSr+a//5T5Lb3ZQYiOtKTClThzEXp7YgNxMpa09uDXGD/dP3npXc7qbEUKp8c1eRUQtyMxZJOWszB/z8+59+RHK7GxIKPXapLAC93twToQW515pu3wXtldyjm7KLEqu4Q7EuN2LXDEmGvPPSd3Z3Pfhpr4AlaV7uUkumGAwRL06lGa3LTUi1ZGvmEhz53fd0N568zitgSZqWuyTE8vR8w+q2Idbl5sNZK0sy5jMP39N97huf9QpYkmblZuatVK/tYDA09Vi3LDcfzBIZpKXQXsXco5syB/USa6yZnBqUWZabDyUh1fh6LST3ArlTTwXYBZJMxa2W5WYdY40p9ykkt7GYG1zRkS80sSw37bWQJXFI7gi5GSjRO42vl2CqVtyq3PtVeIXHIrHQ3lMXb9uXbU34mc3JvWZMOZV1sCr3WmORGF79+ev7ba7B/7z+v30TGpKbqr2UPQFjmDpSxKrclJmW3pukRZqRe014xPsGlVblFn6akZuZybXqJsgZ+36WRbmZcCqdQWqVJuR2GYw1i4IozhpnHyzKPXe6wUGnCbnJBqz9BnKkyLhHtCg3izYszUxaogm5a+DbsN2i3GKaJuQm3l5r5yQHcbf1sITsUY3ldq1gXm4kI789ValXEnLr/Hz3tTW5WSupweQ0TfTcvIFDydaCQezwiWFNbj7wlqbcrdGE3LXgnPThtLY1ucU85uVmtnCtmcldWJK75IqkrWBebmomasWV1JcMp7UtyV1rHNIS5uXmDawRb8Nw7zu+tiS3ctu7MS03Uk8t1l0DBmtM5rgKQStyM1OrgeRuTMtNDhe5xtdrYUVuNnknTem+Fn5My80MIeWc4+trQqmti7styE2vPQyVxDSm5SYcqP0m8vRwR4pY6bnXLCBrGdNyTy33WhM+XKTdeG1BbsIRxdthmJWbLAmP3/H1mtSWmw8a90SZkjDMyk0PZWUwScxNe2rLzZOMepJaqdHWMCt37TTgEHekSG25+1/e9gk/psMSKz2UO1Kkptxf/9639jfdUbwdjkm5XbrLWmxZU+47Hrh7/55I7nBMyk1PSe2EpdiSCsF7Lz5QTW52TbVSQNYKZsMSaz0UBVwf/fQtirkbwqTcLBCwJjdPk1o995knz3d/8Cd/1L/yt034MSm31dqJWjH3n535m+43rnhX/8rfLuHHnNz02MhtbYqZUoDffPcV3ccu3uMVsCS3XNjrTu3d3r/yt034MRtzW4PBLdmK6z5/0itgSRRzL8Oc3MS2ML5ugU996a7uk9/5slfAkkjuZZiTm+3BrKa8uFc3Pnrbvmxr8qHH75bcCzAnN/lkqz23hT2nRTiKucVmMSU3C3LPnTv3tmtCLMWU3MTavhMNhFiCKblZ0qWFryIXirnFZjEjNzOSbq2iEDkwI/dwlbkQOTAjN7ltHTcncqKYW2wWE3JTCciqbm02I3JiQm7WSlJx5zuSWoilmJCbclIdXCRyo5hbbBYTcrOz1NpH8YntU11u4mzibatlrqJdqstNvM3BRZb2KBHbwETPrV2URAmqy83JCarhFiWoLvfRo0eVBhRFqC43e04r3hYlqCr3XU/8g2YlRTGqyv2+D39QNdyiGFXl/sPj7+04233cKCFyUFXuOx79nNKAohhV5f7wF0/1bfA3TIhUqsl96gt/273j0nf0bfA3TIhUDv3gxz/srr73z1fnd97/e9pQXRTFe1GILeC9KET7dIf+D4GaKpP0xiYbAAAAAElFTkSuQmCC;fontSize=35;fontStyle=1" parent="1" vertex="1">
          <mxGeometry x="-270" y="220" width="178.59" height="250.81" as="geometry" />
        </mxCell>
        <mxCell id="uZ-QMGoUNe0idppu1vMY-14" value="" style="endArrow=classic;html=1;rounded=0;entryX=0;entryY=0.5;entryDx=0;entryDy=0;strokeWidth=1;fontSize=35;fontStyle=1" parent="1" edge="1">
          <mxGeometry width="50" height="50" relative="1" as="geometry">
            <mxPoint x="-310.24" y="340" as="sourcePoint" />
            <mxPoint x="-270.23999999999955" y="340" as="targetPoint" />
          </mxGeometry>
        </mxCell>
        <mxCell id="uZ-QMGoUNe0idppu1vMY-15" value="" style="shape=curlyBracket;whiteSpace=wrap;html=1;rounded=1;flipH=1;labelPosition=right;verticalLabelPosition=middle;align=left;verticalAlign=middle;fontSize=35;rotation=-90;fontStyle=1" parent="1" vertex="1">
          <mxGeometry x="-205.5" y="116.5" width="20" height="149" as="geometry" />
        </mxCell>
        <mxCell id="uZ-QMGoUNe0idppu1vMY-16" value="&lt;span style=&quot;color: rgb(0, 0, 0); font-family: Helvetica; font-size: 35px; font-style: normal; font-variant-ligatures: normal; font-variant-caps: normal; letter-spacing: normal; orphans: 2; text-align: center; text-indent: 0px; text-transform: none; widows: 2; word-spacing: 0px; -webkit-text-stroke-width: 0px; white-space: normal; background-color: rgb(251, 251, 251); text-decoration-thickness: initial; text-decoration-style: initial; text-decoration-color: initial; float: none; display: inline !important;&quot;&gt;Encoder&lt;/span&gt;" style="text;whiteSpace=wrap;html=1;fontSize=35;fontStyle=1" parent="1" vertex="1">
          <mxGeometry x="-270" y="110.5" width="110" height="50" as="geometry" />
        </mxCell>
        <mxCell id="uZ-QMGoUNe0idppu1vMY-18" value="" style="endArrow=classic;html=1;rounded=0;strokeWidth=1;fontSize=35;fontStyle=1" parent="1" edge="1">
          <mxGeometry width="50" height="50" relative="1" as="geometry">
            <mxPoint x="590" y="268.46" as="sourcePoint" />
            <mxPoint x="640" y="268.96" as="targetPoint" />
          </mxGeometry>
        </mxCell>
        <mxCell id="uZ-QMGoUNe0idppu1vMY-24" value="" style="endArrow=classic;html=1;rounded=0;strokeWidth=1;fontStyle=1;fontSize=35;entryX=1;entryY=0.5;entryDx=0;entryDy=0;" parent="1" target="VJ-1INa0o9P5M-F-M43j-2" edge="1">
          <mxGeometry width="50" height="50" relative="1" as="geometry">
            <mxPoint x="870" y="550" as="sourcePoint" />
            <mxPoint x="770" y="600" as="targetPoint" />
          </mxGeometry>
        </mxCell>
        <mxCell id="uZ-QMGoUNe0idppu1vMY-29" value="" style="shape=curlyBracket;whiteSpace=wrap;html=1;rounded=1;flipH=1;labelPosition=right;verticalLabelPosition=middle;align=left;verticalAlign=middle;fontSize=35;rotation=0;fontStyle=1" parent="1" vertex="1">
          <mxGeometry x="884.19" y="612.83" width="20" height="157.17" as="geometry" />
        </mxCell>
        <mxCell id="uZ-QMGoUNe0idppu1vMY-30" value="&lt;span style=&quot;color: rgb(0, 0, 0); font-family: Helvetica; font-size: 35px; font-style: normal; font-variant-ligatures: normal; font-variant-caps: normal; letter-spacing: normal; orphans: 2; text-align: center; text-indent: 0px; text-transform: none; widows: 2; word-spacing: 0px; -webkit-text-stroke-width: 0px; white-space: normal; background-color: rgb(251, 251, 251); text-decoration-thickness: initial; text-decoration-style: initial; text-decoration-color: initial; float: none; display: inline !important;&quot;&gt;Decoder&lt;/span&gt;" style="text;whiteSpace=wrap;html=1;fontSize=35;fontStyle=1" parent="1" vertex="1">
          <mxGeometry x="920" y="685.38" width="110" height="50" as="geometry" />
        </mxCell>
        <mxCell id="uZ-QMGoUNe0idppu1vMY-39" value="" style="endArrow=classic;html=1;rounded=0;fontSize=35;entryX=0.075;entryY=0.005;entryDx=0;entryDy=0;entryPerimeter=0;fontStyle=1" parent="1" edge="1">
          <mxGeometry width="50" height="50" relative="1" as="geometry">
            <mxPoint x="675.7" y="630" as="sourcePoint" />
            <mxPoint x="-80.0004999999997" y="630.2472499999994" as="targetPoint" />
          </mxGeometry>
        </mxCell>
        <mxCell id="uZ-QMGoUNe0idppu1vMY-40" value="" style="endArrow=classic;html=1;rounded=0;fontSize=35;fontStyle=1" parent="1" edge="1">
          <mxGeometry width="50" height="50" relative="1" as="geometry">
            <mxPoint x="650" y="709.13" as="sourcePoint" />
            <mxPoint x="-80" y="709.26" as="targetPoint" />
          </mxGeometry>
        </mxCell>
        <mxCell id="uZ-QMGoUNe0idppu1vMY-41" value="" style="endArrow=classic;html=1;rounded=0;fontSize=35;entryX=1;entryY=0.5;entryDx=0;entryDy=0;fontStyle=1" parent="1" target="VJ-1INa0o9P5M-F-M43j-2" edge="1">
          <mxGeometry width="50" height="50" relative="1" as="geometry">
            <mxPoint x="600" y="550" as="sourcePoint" />
            <mxPoint x="746" y="612.8299999999999" as="targetPoint" />
          </mxGeometry>
        </mxCell>
        <mxCell id="uZ-QMGoUNe0idppu1vMY-46" value="" style="endArrow=classic;html=1;rounded=0;fontSize=35;entryX=0.003;entryY=0.167;entryDx=0;entryDy=0;entryPerimeter=0;fontStyle=1" parent="1" target="uZ-QMGoUNe0idppu1vMY-38" edge="1">
          <mxGeometry width="50" height="50" relative="1" as="geometry">
            <mxPoint x="-109.91000000000003" y="410" as="sourcePoint" />
            <mxPoint x="-110" y="688" as="targetPoint" />
          </mxGeometry>
        </mxCell>
        <mxCell id="uZ-QMGoUNe0idppu1vMY-47" value="" style="shape=curlyBracket;whiteSpace=wrap;html=1;rounded=1;flipH=1;labelPosition=right;verticalLabelPosition=middle;align=left;verticalAlign=middle;fontSize=35;rotation=-180;fontStyle=1" parent="1" vertex="1">
          <mxGeometry x="-305" y="622.33" width="20" height="164.66" as="geometry" />
        </mxCell>
        <mxCell id="uZ-QMGoUNe0idppu1vMY-48" value="&lt;font style=&quot;font-size: 35px;&quot;&gt;&lt;span style=&quot;font-size: 35px;&quot;&gt;Discriminator&lt;/span&gt;&lt;/font&gt;" style="text;html=1;align=center;verticalAlign=middle;resizable=0;points=[];autosize=1;strokeColor=none;fillColor=none;fontSize=35;fontStyle=1" parent="1" vertex="1">
          <mxGeometry x="-545" y="680.38" width="230" height="60" as="geometry" />
        </mxCell>
        <mxCell id="VJ-1INa0o9P5M-F-M43j-2" value="" style="shape=image;verticalLabelPosition=bottom;labelBackgroundColor=default;verticalAlign=top;aspect=fixed;imageAspect=0;image=data:image/png,iVBORw0KGgoAAAANSUhEUgAAALcAAAEBCAYAAAA6ijRDAAAAAXNSR0IArs4c6QAAAARnQU1BAACxjwv8YQUAAAAJcEhZcwAADsMAAA7DAcdvqGQAABVzSURBVHhe7Z1fyGfFeccXSdSmBrZY6JKLsr1oa8lFLezFQiERQlqp+KdSmg0NycZN46JusjFaNiblTZOIGGtWE8NScCM0gsFCta1WCAEhN4K5kECLDRRMAqIXAUNy4UUuTs/nhbHHkznnN3Nm5swz5/0ufNjfe97dfWfP7/Ob88wzz8wc6rpOiE1y6JWf/bS75duf7blzVa65/bruI7d+rG+Dv2FCpHLo33743e4Tj9/ZPftfz67KX9x6Y3fFb727b4O/YUKksi/33f/6xe6nb/xoVR565hvdH3/gWN8Gf8OESKWa3I+98M/dF/79q30b/A0TIpWqctNzP/bYY307/I0TIoXqcl977bV9O/yNEyKFqnJ//IE7uieeeKJvh79xQqSgmFtslupyHzlypHvuuef6tvgbKMRSqst91VVXdXt7e31b/A0UYinV5abXfuGFF/q2+BsoxFJMxNxvvPHG/u9C5KS63K+99lp3+PDhToKL3FSX+8033+xbcUiDSpEdE2HJ888/r55bZMeE3PTeL7/88v5rIXJhQm7qS8h3u0YJkQMzYQlxt0ITkRMTcoNy3SI3ZuR+5ZVX1HOLrJiR+/Tp091NN9301tdCpGJGbgaVR48efetrIVIxIzfpQEIT97UQqZiRG5566ikJLrJhSm7KX8+dO/e2a0IsxZTcDCpheE2IpZiSW4icmJP7vvvu268UHF8XIhZzcl9++eUdA8vxdSFiMSf38ePHJbfIgmJusVnMyU2eWxkTkQNzclMdSPmrJnNEKubkpjKQ/QMlt0hFMbfYLCblJlticRr+F2/+srvw/W9X4dWfv943wd8u4cek3OfPnze5ppJ7deOjt3V/38u2Jh96/O59wcftEfOYlJuNes6ePdu//PXv1YR7deY//rH7Qf/Fmnzm6Ue6rzx5vn/lb5fwY1Jui/CBu/SyS7sTD9/pFbAk7/v4X3ZXHvnt/pW/bcKPWblPnDjRXbhwoX/p//7auBX6n/zOl70CluSjD9+z/7O1xjQOs3KfPHnS1JEiiPXQkxeqhCXE3XuP39+/8rdN+DErN5M5DCzH12vBjlj/8uIz1eQm5tbhWHEo5g6E7M2nvnRXNblP33u2o2JSoUk4puW2cqQIQiHWN5++WE3ur3/vW/tbPb/00kv9FX87xdsxLTdrKlm8ML5eA7Il3KtacivPHY9puZmptLDNGnUuFuSmHRbz/1ZRzB0ACyiQyoLcpARJS/a/vG0V/49puektibtrVwheffXV+5mK2nL3v/ZTpJI7DNNyuyNFap8y7D5cFuQW4ZgPS4i7a6a/yG+7NZ0W5OZpxp6K/M7XYhrzckPNI0VY8nbNNdf0L+303KQELZUmWMW83LWPFEFuV1tuRW4dTBuGebkZPFmZmbMitwjDvNxQa1aOuHY4mLUkN08z7e8yTxNyk62okQ6kcIv41n1tSW7GAdoCY54m5OZNrHGkCHJTV+6+tiR3rQ98SzQhN5kBC0eKWJIbyCKpSnCaJuSucaQIP5PZwOE1a3Jrs/55mpAbGDytOXHhlpUNf6Y1uRHb5eDFr9OM3Gv3UmRohvE2WJNbh2TN04zcDCprZwesyQ08YbSAwU8zcq+Nr/rOotx84BWa+GlKbrImaxwpQgaCeHu8xM2i3IxFKMkdXxeNyb3WkSLITV59/EGyKLeYpim5GeDVnHK2Kjf3xNI2GFZoSu61II71LUy2KjdtrVk5aZWm5CbttUbGhNlQX09oVW7ui6XduazQlNxrHSnCwNU3rW1Vbou8/JMfdfc//ch+u9fG7WXelNwIV/NIEcty88G3lBI89oHj3e//6VXdN5/92qqcunjbW/eqKbnXgPh1qgLRstyuXMDKjCVbLp+4/a+6X73636uC4M3KTWZgb2+vf+n/fipkZMYFUw7LcpO2tLSu8vMXv9I99NRXvQKWpGm5GeiVzAzweJ9akGxZbktwD9mVFtF8Apakabmp0iu5cGGu8tC63HwoLaw3Zcb0plv/WnK7G2IBQp7hsrIx1uVG6rVmceegDX93YU9yuxsSA6WvJTZiJ5afq9OwLjewoHmN+ptd0F7JPbopIZQ6UoSQZK58tAW5oWYJLJ0O4ZHkXig3A5YStRS7drZqQW4+oKQEx+W6a8ATg5CEp4fkNhRzI/Z4WdmYVnpuQqsam/aTYyeTRewvuRPkpv4j55Ei9Db0OnPxaityI1ntuFtyJ8idu3dChi2EJQ7CtrVTgoyF3D2U3AlyE3fD+PpSQgZhLcm99k6w3D/COsndYynmptfmjdmVH25JbkqD1zw/h1BoWLYguRPk5mbSO+UoFHKDyV3/Vkty10ZyJ8jtettcR4qExKetyU3vnTN0m4IME/vKDDNNkjsxLCGMyDFoIusylwJ0tCY39d1TFY458WWaJHeGmHtXhiMEMi8hZbStyY10aywcpmMYl0NI7kS5cx0pwr8RkjNvTe618OXUJXei3L7NKkvSotw8kUoUmTmI6X2TX5I7Q1iSWkNBWBM6KG1RbtKBc5WOqTCR5ts7XXJnkJsBZUo6kAFX6OKHFuXmqZYro+SD++97ckruDHJT252yMoc1k6EzeS3KXRJCkamZXcmdQW7EXOtIkVblJnQoUf9OJmZq5ZLkziA3vcfSsIR4OyYP3KrczAcw6BtfT4V7N3X/JHcGuYE3b0nGhJ4nptdvVW4oUUTlSwE6JHcmuZceKcJAK6ZstmW5GfjlmPBy8LScSzFK7kxy82hcY4PMluXONeHlIMV4/Pjx/qX/+5I7k9xLoCdjkBVTm9Ky3PS0IZWPoZBlmksxSu6MchNTzsWAY4jTebMPityQMyzZheTOKDfZgF2LDYYwAI0t5m9dbj7IOabiuc+7Cs0kd0a5if9K1lBA63JTB5IjNAkppZXcFWNuMiyxdSmty03YxqAyddOekEUQkjuj3PRGoelAQhJ6sIMm95pI7oxyu/LXkEcuPRj57ZgBKGxBbv7PjDVi/+8O/m5IJyK5M8rNYInSzlypLh9bkNs9tZZWClJLErK6R3JXirnJby/Z0GcLcgMx89K4G7FDSh0kd2a5SVGFSEvacEmtxVbkXgPJnVluhA2ZYubPxUzeOLYkN6nT2Ekd/k7oE09yZ5abeHvXwgWkXiI2bEluxicxxWYuVg+dKJPcFWJuRvvURYyvh7AluVntH7tLbkzqVHIXkJveaG6mkkdr7LS7Y0tyx0IIE/PEk9wF5GZaeG5JFVmCkNG+j63JzSxtyMCanDiD8JjyBsldQG4etXODnpTKuK3JvasjcCypSZHcK8fc9Dwpi4m3JjdhRuhGmbGdguQuJPfUkSLE2imrwLcmN9Ab74qlmbiJzTBJ7kJyTx0pQqy9NN6GLcrNh32ufBX5CUlCe3iH5C4kN722Lz6MTX2N2aLc9MoMLMfXHQzAmRiLLbSS3CvG3K5qUD3320HamIFiKJK7kNwITOpq+KaR8krdmWqLcgMffN8EDeIz4bVkRldyF5KbNyWlrHOKrcrNQNv3wSeM4z5K7khKhyWIPXxTSAOmhCSwVbkZLPoKzujNl87mSu7CMbfLzSI5PVDM6ngfW5W7BJK7oNzDCRsXgy95vA7Zstz03sMVNoxXWOXuvo5FcheU28WLqaHIkC3LTRg37AAQPWUALrkLhyUuA0CmxJcNiGXLciM1EzpObnrylDBOcheWmzeKxys90JI1k2O2LHduJHdhuantJm5kBi51IxrYutz01twveuzUQ6Ikd2G5c0zcDNm63DzlGKfccMMNSQVmILkLy81kzoMPPpglJIGtyw10CAwuU590kruw3HDs2LHu+uuv71/6vx/DQZAbctSaSO4V5L7yyiu7m2++uX/p/34MB0HuM2fOdJdccklyMZXkXkFuapVjtjCY4yDITax92WWXJdflSO7CcpPb3rWPdAwHQW567BdffFE9dwpryE3Rj1uVE1ts72PrciO0W3GjAWUCa8hNfQmj/xxFU7B1uclxuw2LYrdyGCO5V4i5gTcNycfXYzkIcjuheb203BUkd0G5ecQyM6nCqWVw31KqKCV3QbldlRuvET1HxmTLchO2jRdQ04svHVhK7oJys1DBPWLJmhB3p2YAtiw3ZQrj4/did4IdIrlXirl5vPJGSe5p2Pp5vKsUWaZdW0JPIbkLys2aQJfWysWW5c6N5C4kNzlawpBhT0RMmVpAtVW5yYpMzUhyz5bkvCV3IbmZsBnnaEkFhhwpMscW5eZeMfCekjt0J9gxkruQ3MTW4xlJUltLT1RwbFFuxiMMJKdmcMmgLClhkNyF5I45mCiGLcpdCsldSO6p6XaET5lS3qLcpAB3VQCSDoxNCUruQnKTJfE9ZpfGj46tye0G3rtSpGzzEDtekdwF5Ca2nnqziB9TwpWtyU28HVJzw58bbtgTguQuIDe989KJh11sseceX8uF5C4gN9Vs42nkIcSYSzfo2ZLcPOEISUInuujh5zapHyO5C8jtSwMOmTpSJIQtyc0g8vDhw8GLOFx9TmiloOTOLDe90a6RP3H30mn5LcmN1LEnlMXcN8mdWW565JhHZyxbkpswI7TXdvDnQ+N0yZ1Z7tOnT++cTeOxyuN4SYXgVuR2O+CGhhgOQpPQraAld4GYexf0PlOTPLvYitz02kvy/dw75A4ZkEvujHJz40MHisxSxvZasBW5UwiN0yV3RrnpiWMetbGDKdiC3Ay6Uyay6ERCJn4kd2a5Qydv6LmX7P66BbkRmzHH+HooLj++KzSR3BVibnA1FbxR4+/NsQW5mUafm+QKgbmCXWMWyZ1RbrIkMbIumXregtxrIbkzyU1aj544ZpKBDwLx4/j6HK3LTSixZOGBDxZ+zHUmkjuT3PTCpLZiZCUnTh3K+PocrcuN2CzkGF+PhftM3D43sJTclWJu4I2JHVS2Ljf/513lCaEQt8/9W5I7k9xkAGInZeh9YtOBrcu9JpI7k9zMmoXkXscQg8ZM5rQsN/cnd507oeBUSlByZ5KbNy02rQcUWcWsDWxZbkTMNZh0MGaZ+jcld8WYG3hjDorchG1LZmXnoNeeylBJ7gxyE28v3ayRuPsghCX8H5c82VKQ3BnkZrYsZZN0puJDU4itys0TKndI4iDf7etcJHcGuUlJpTxumfwJzbS0KjcpzyUD7hAQmw5mfF1yV465gUFR6BvfqtxMcsVMcMVAuDPetB4kd6Lc9Li+XqMULcpNacKSVUcxIPg4ppfciXIzhZ6ygxTwxofWN7cod8pq/1B8pQySO1FuUlFTkwih8PeJu0N6txblZoJr6Wr/UHiC8nOG1yR3otxLloqN4d9gwBUyKG1R7rUY3z/JnSC3W3CQQ/BQWpO7xMTNFLwfw6yT5E6QmwxHynKpIYz2Q6rlWpKb7AihQq4qwF2Md4KV3AlyMzrPFUuGflBaktuFW2vNTDJm4R66nye5E8OS8bWl8OgOybq0JHdtJPdCuemVQjeHyUlLclOSsFav7aDDcVPxknuh3IQjyJ1zMEkueNeRIq3I7Qbba3/4h2lVyb1QbgZLuWfdKADaFZq0Ijcf+tST25bA++Jq6yX3QrmJkXOnAMmY7NrPoxW5LSC5F8pNyin2jJYctCA3vSf3Z+1428HPZSr+a//5T5Lb3ZQYiOtKTClThzEXp7YgNxMpa09uDXGD/dP3npXc7qbEUKp8c1eRUQtyMxZJOWszB/z8+59+RHK7GxIKPXapLAC93twToQW515pu3wXtldyjm7KLEqu4Q7EuN2LXDEmGvPPSd3Z3Pfhpr4AlaV7uUkumGAwRL06lGa3LTUi1ZGvmEhz53fd0N568zitgSZqWuyTE8vR8w+q2Idbl5sNZK0sy5jMP39N97huf9QpYkmblZuatVK/tYDA09Vi3LDcfzBIZpKXQXsXco5syB/USa6yZnBqUWZabDyUh1fh6LST3ArlTTwXYBZJMxa2W5WYdY40p9ykkt7GYG1zRkS80sSw37bWQJXFI7gi5GSjRO42vl2CqVtyq3PtVeIXHIrHQ3lMXb9uXbU34mc3JvWZMOZV1sCr3WmORGF79+ev7ba7B/7z+v30TGpKbqr2UPQFjmDpSxKrclJmW3pukRZqRe014xPsGlVblFn6akZuZybXqJsgZ+36WRbmZcCqdQWqVJuR2GYw1i4IozhpnHyzKPXe6wUGnCbnJBqz9BnKkyLhHtCg3izYszUxaogm5a+DbsN2i3GKaJuQm3l5r5yQHcbf1sITsUY3ldq1gXm4kI789ValXEnLr/Hz3tTW5WSupweQ0TfTcvIFDydaCQezwiWFNbj7wlqbcrdGE3LXgnPThtLY1ucU85uVmtnCtmcldWJK75IqkrWBebmomasWV1JcMp7UtyV1rHNIS5uXmDawRb8Nw7zu+tiS3ctu7MS03Uk8t1l0DBmtM5rgKQStyM1OrgeRuTMtNDhe5xtdrYUVuNnknTem+Fn5My80MIeWc4+trQqmti7styE2vPQyVxDSm5SYcqP0m8vRwR4pY6bnXLCBrGdNyTy33WhM+XKTdeG1BbsIRxdthmJWbLAmP3/H1mtSWmw8a90SZkjDMyk0PZWUwScxNe2rLzZOMepJaqdHWMCt37TTgEHekSG25+1/e9gk/psMSKz2UO1Kkptxf/9639jfdUbwdjkm5XbrLWmxZU+47Hrh7/55I7nBMyk1PSe2EpdiSCsF7Lz5QTW52TbVSQNYKZsMSaz0UBVwf/fQtirkbwqTcLBCwJjdPk1o995knz3d/8Cd/1L/yt034MSm31dqJWjH3n535m+43rnhX/8rfLuHHnNz02MhtbYqZUoDffPcV3ccu3uMVsCS3XNjrTu3d3r/yt034MRtzW4PBLdmK6z5/0itgSRRzL8Oc3MS2ML5ugU996a7uk9/5slfAkkjuZZiTm+3BrKa8uFc3Pnrbvmxr8qHH75bcCzAnN/lkqz23hT2nRTiKucVmMSU3C3LPnTv3tmtCLMWU3MTavhMNhFiCKblZ0qWFryIXirnFZjEjNzOSbq2iEDkwI/dwlbkQOTAjN7ltHTcncqKYW2wWE3JTCciqbm02I3JiQm7WSlJx5zuSWoilmJCbclIdXCRyo5hbbBYTcrOz1NpH8YntU11u4mzibatlrqJdqstNvM3BRZb2KBHbwETPrV2URAmqy83JCarhFiWoLvfRo0eVBhRFqC43e04r3hYlqCr3XU/8g2YlRTGqyv2+D39QNdyiGFXl/sPj7+04233cKCFyUFXuOx79nNKAohhV5f7wF0/1bfA3TIhUqsl96gt/273j0nf0bfA3TIhUDv3gxz/srr73z1fnd97/e9pQXRTFe1GILeC9KET7dIf+D4GaKpP0xiYbAAAAAElFTkSuQmCC;fontSize=35;rotation=-90;fontStyle=1" parent="1" vertex="1">
          <mxGeometry x="659.9999999999999" y="579.25" width="178.59" height="250.81" as="geometry" />
        </mxCell>
        <mxCell id="VJ-1INa0o9P5M-F-M43j-6" value="" style="endArrow=classic;html=1;rounded=0;exitX=0.5;exitY=1;exitDx=0;exitDy=0;fontSize=35;align=center;fontStyle=1" parent="1" source="01VjT6T3kN2u5HqJVLsv-417" target="01VjT6T3kN2u5HqJVLsv-404" edge="1">
          <mxGeometry width="50" height="50" relative="1" as="geometry">
            <mxPoint x="457.5" y="-55" as="sourcePoint" />
            <mxPoint x="458.5" y="-17" as="targetPoint" />
          </mxGeometry>
        </mxCell>
        <mxCell id="VJ-1INa0o9P5M-F-M43j-7" value="" style="endArrow=classic;html=1;rounded=0;exitX=0.5;exitY=1;exitDx=0;exitDy=0;fontStyle=1" parent="1" source="01VjT6T3kN2u5HqJVLsv-423" edge="1">
          <mxGeometry width="50" height="50" relative="1" as="geometry">
            <mxPoint x="-10" y="500" as="sourcePoint" />
            <mxPoint x="408" y="230" as="targetPoint" />
          </mxGeometry>
        </mxCell>
        <mxCell id="VJ-1INa0o9P5M-F-M43j-10" value="" style="endArrow=classic;html=1;rounded=0;fillColor=#008a00;strokeColor=#005700;fontSize=35;fontStyle=1" parent="1" edge="1">
          <mxGeometry width="50" height="50" relative="1" as="geometry">
            <mxPoint x="1110" y="242.25" as="sourcePoint" />
            <mxPoint x="1150" y="235" as="targetPoint" />
            <Array as="points">
              <mxPoint x="1110" y="210" />
              <mxPoint x="1120" y="190" />
              <mxPoint x="1150" y="185.25" />
            </Array>
          </mxGeometry>
        </mxCell>
        <mxCell id="VJ-1INa0o9P5M-F-M43j-11" value="" style="endArrow=classic;html=1;rounded=0;exitX=0.22;exitY=0.041;exitDx=0;exitDy=0;fillColor=#0050ef;strokeColor=#001DBC;fontSize=35;exitPerimeter=0;fontStyle=1" parent="1" source="01VjT6T3kN2u5HqJVLsv-433" edge="1">
          <mxGeometry width="50" height="50" relative="1" as="geometry">
            <mxPoint x="1100" y="177" as="sourcePoint" />
            <mxPoint x="1160" y="240" as="targetPoint" />
            <Array as="points">
              <mxPoint x="1100" y="200" />
              <mxPoint x="1120" y="170" />
              <mxPoint x="1160" y="180" />
            </Array>
          </mxGeometry>
        </mxCell>
        <mxCell id="uZ-QMGoUNe0idppu1vMY-38" value="" style="shape=image;verticalLabelPosition=bottom;labelBackgroundColor=default;verticalAlign=top;aspect=fixed;imageAspect=0;image=data:image/png,iVBORw0KGgoAAAANSUhEUgAAALcAAADCCAYAAAALgVPtAAAAAXNSR0IArs4c6QAAAARnQU1BAACxjwv8YQUAAAAJcEhZcwAADsMAAA7DAcdvqGQAAASySURBVHhe7dIvq98FGMbh85JMvgDLilaLCL4Cg9lgGciKDIQF0bKBFsU1UVAQBoppgoisGHwTw/D17MBgwi98vGHnj1zh0+/n4To7jkP6X3b261+/H69++Prxyu1bl979n74833B62HXsKn/1/R+Pziec3nUde7b31B2X0fNfnT18/O3x3ucfHE+ePLnUPvnuwfH+wzsXI25KV/Wr21/fPe79eP98wuld17Fne5/tPnXPy+zFX8H9H4K7BzfcKbh7cI/B3YMb7hTcPbjH4O7BDXcK7h7cY3D34IY7BXcP7jG4e3DDnYK7B/cY3D244U7B3YN7DO4e3HCn4O7BPQZ3D264U3D34B6Duwc33Cm4e3CPwd2DG+4U3D24x+DuwQ13Cu4e3GNw9+CGOwV3D+4xuHtww52Cuwf3GNw9uOFOwd2DewzuHtxwp+DuwT0Gdw9uuFNw9+Aeg7sHN9wpuHtwj8HdgxvuFNw9uMfg7sENdwruHtxjcPfghjsFdw/uMbh7cMOdgrsH9xjcPbjhTsHdg3sM7h7ccKfg7sE9BncPbrhTcPfgHoO7BzfcKbh7cI/B3YMb7hTcPbjH4O7BDXcK7h7cY3D34IY7BXcP7jG4e3DDnYK7B/cY3D244U7B3YN7DO4e3HCn4O7BPQZ3D264U3D34B6Duwc33Cm4e3CPwd2DG+4U3D24x+DuwQ13Cu4e3GNw9+CGOwV3D+4xuHtww52Cuwf3GNw9uOFOwd2DewzuHtxwp+DuwT0Gdw9uuFNw9+Aeg7sHN9wpuHtwj8HdgxvuFNw9uMfg7sENdwruHtxjcPfghjsFdw/uMbh7cMOdgrsH9xjcPbjhTsHdg3sM7h7ccKfg7sE9BncPbrhTcPfgHoO7BzfcKbh7cI/B3YMb7hTcPbjH4O7BDXcK7h7cY3D34IY7BXcP7jG4e3DDnYK7B/cY3D244U7B3YN7DO4e3HCn4O7BPQZ3D264U3D34B6Duwc33Cm4e3CPwd2DG+4U3D24x+DuwQ13Cu4e3GNw9+CGOwV3D+4xuHtww52Cuwf3GNw9uOFOwd2DewzuHtxwp+DuwT0Gdw9uuFNw9+Aeg7sHN9wpuHtwj8HdgxvuFNw9uMfg7sENdwruHtxjcPfghjsFdw/uMbh7cMOdgrsH9xjcPbjhTsHdg3sM7h7ccKfg7sE9BncPbrhTcPfgHoO7BzfcKbh7cI/B3YMb7hTcPbjH4O7BDXcK7h7cY3D34IY7BXcP7jG4e3DDnYK7B/cY3D244U7B3YN7DO4e3HCn4O7BPQZ3D264U3D34B6Duwc33Cm4e3CPwd2DG+4U3D24x+DuwQ13Cu4e3GNw9+CGOwV3D+4xuHtww52Cuwf3GNw9uOFOwd2DewzuHtxwp+DuwT0Gdw9uuFNw9+Aeg7sHN9wpuHtwj8HdgxvuFNw9uMfg7sENdwruHtxjcPfghjsFdw/uMbh7cMOdgrsH9xjcPbjhTsHd+xfub3774XjtozePtz9991J74+N3jjvf3rsYcVO6ql/duvvW8dmjL84nnN51HXvw81cXu0/d8zJ78VcXQ3758/FxFT39++nFiJvUqTsuI7/qPf/VyVHSze84+wdCp9CXGH0iLwAAAABJRU5ErkJggg==;rotation=90;fontSize=35;fontStyle=1" parent="1" vertex="1">
          <mxGeometry x="-264.03" y="612.83" width="184.03" height="195.1" as="geometry" />
        </mxCell>
        <mxCell id="VJ-1INa0o9P5M-F-M43j-15" value="" style="endArrow=classic;html=1;rounded=0;fontSize=35;fontStyle=1" parent="1" edge="1">
          <mxGeometry width="50" height="50" relative="1" as="geometry">
            <mxPoint x="-181.54000000000002" y="445" as="sourcePoint" />
            <mxPoint x="-181.54000000000002" y="690.25" as="targetPoint" />
          </mxGeometry>
        </mxCell>
        <mxCell id="uZ-QMGoUNe0idppu1vMY-44" value="" style="endArrow=classic;html=1;rounded=0;fontSize=35;fontStyle=1" parent="1" edge="1">
          <mxGeometry width="50" height="50" relative="1" as="geometry">
            <mxPoint x="-250" y="470" as="sourcePoint" />
            <mxPoint x="-250" y="765" as="targetPoint" />
          </mxGeometry>
        </mxCell>
        <mxCell id="VJ-1INa0o9P5M-F-M43j-18" value="" style="endArrow=classic;html=1;rounded=0;fontSize=35;fontStyle=1" parent="1" edge="1">
          <mxGeometry width="50" height="50" relative="1" as="geometry">
            <mxPoint x="613.25" y="784.49" as="sourcePoint" />
            <mxPoint x="-76.75" y="784.5" as="targetPoint" />
          </mxGeometry>
        </mxCell>
        <mxCell id="VJ-1INa0o9P5M-F-M43j-23" value="" style="edgeStyle=segmentEdgeStyle;endArrow=classic;html=1;curved=0;rounded=0;endSize=8;startSize=8;fontStyle=1" parent="1" edge="1">
          <mxGeometry width="50" height="50" relative="1" as="geometry">
            <mxPoint x="-80" y="370" as="sourcePoint" />
            <mxPoint x="165" y="553.19" as="targetPoint" />
            <Array as="points">
              <mxPoint x="-80" y="553.19" />
              <mxPoint x="165" y="553.19" />
            </Array>
          </mxGeometry>
        </mxCell>
        <mxCell id="VJ-1INa0o9P5M-F-M43j-24" value="" style="endArrow=classic;html=1;rounded=0;fontSize=35;fontStyle=1" parent="1" edge="1">
          <mxGeometry width="50" height="50" relative="1" as="geometry">
            <mxPoint x="330.75" y="548.54" as="sourcePoint" />
            <mxPoint x="430.75" y="548.54" as="targetPoint" />
          </mxGeometry>
        </mxCell>
        <mxCell id="VJ-1INa0o9P5M-F-M43j-27" value="" style="edgeStyle=segmentEdgeStyle;endArrow=classic;html=1;curved=0;rounded=0;endSize=8;startSize=8;" parent="1" edge="1">
          <mxGeometry width="50" height="50" relative="1" as="geometry">
            <mxPoint x="1290" y="350" as="sourcePoint" />
            <mxPoint x="940" y="540" as="targetPoint" />
            <Array as="points">
              <mxPoint x="1290" y="540" />
            </Array>
          </mxGeometry>
        </mxCell>
        <mxCell id="8Qk8cf90XvfW-UXVv_MJ-6" value="(a)" style="text;html=1;align=center;verticalAlign=middle;resizable=0;points=[];autosize=1;strokeColor=none;fillColor=none;fontSize=35;" parent="1" vertex="1">
          <mxGeometry x="349.94000000000005" y="445" width="70" height="60" as="geometry" />
        </mxCell>
        <mxCell id="8Qk8cf90XvfW-UXVv_MJ-7" value="(b)" style="text;html=1;align=center;verticalAlign=middle;resizable=0;points=[];autosize=1;strokeColor=none;fillColor=none;fontSize=35;" parent="1" vertex="1">
          <mxGeometry x="1030" y="405" width="70" height="60" as="geometry" />
        </mxCell>
        <mxCell id="7ojNyr7eu1JYMKIjMpsM-7" value="$$\varepsilon_{i}$$" style="text;html=1;strokeColor=none;fillColor=none;align=center;verticalAlign=middle;whiteSpace=wrap;rounded=0;fontSize=35;fontStyle=1" parent="1" vertex="1">
          <mxGeometry x="40.000000000000014" y="319.75" width="60" height="30" as="geometry" />
        </mxCell>
        <mxCell id="7ojNyr7eu1JYMKIjMpsM-9" value="." style="text;html=1;align=center;verticalAlign=middle;resizable=0;points=[];autosize=1;strokeColor=none;fillColor=none;fontStyle=1;fontSize=40;" parent="1" vertex="1">
          <mxGeometry x="50" y="210" width="30" height="60" as="geometry" />
        </mxCell>
        <mxCell id="7ojNyr7eu1JYMKIjMpsM-10" value="." style="text;html=1;align=center;verticalAlign=middle;resizable=0;points=[];autosize=1;strokeColor=none;fillColor=none;fontStyle=1;fontSize=40;" parent="1" vertex="1">
          <mxGeometry x="50" y="250.25" width="30" height="60" as="geometry" />
        </mxCell>
        <mxCell id="7ojNyr7eu1JYMKIjMpsM-11" value="." style="text;html=1;align=center;verticalAlign=middle;resizable=0;points=[];autosize=1;strokeColor=none;fillColor=none;fontStyle=1;fontSize=40;" parent="1" vertex="1">
          <mxGeometry x="50" y="330" width="30" height="60" as="geometry" />
        </mxCell>
        <mxCell id="7ojNyr7eu1JYMKIjMpsM-12" value="." style="text;html=1;align=center;verticalAlign=middle;resizable=0;points=[];autosize=1;strokeColor=none;fillColor=none;fontStyle=1;fontSize=40;" parent="1" vertex="1">
          <mxGeometry x="50" y="369.75" width="30" height="60" as="geometry" />
        </mxCell>
        <mxCell id="7ojNyr7eu1JYMKIjMpsM-13" value="." style="text;html=1;align=center;verticalAlign=middle;resizable=0;points=[];autosize=1;strokeColor=none;fillColor=none;fontStyle=1;fontSize=40;" parent="1" vertex="1">
          <mxGeometry x="50" y="410.81" width="30" height="60" as="geometry" />
        </mxCell>
        <mxCell id="7ojNyr7eu1JYMKIjMpsM-14" value="$$\varepsilon_{n}$$" style="text;html=1;strokeColor=none;fillColor=none;align=center;verticalAlign=middle;whiteSpace=wrap;rounded=0;fontSize=35;fontStyle=1" parent="1" vertex="1">
          <mxGeometry x="40.000000000000014" y="470.81" width="60" height="30" as="geometry" />
        </mxCell>
        <mxCell id="7ojNyr7eu1JYMKIjMpsM-16" value="." style="text;html=1;align=center;verticalAlign=middle;resizable=0;points=[];autosize=1;strokeColor=none;fillColor=none;fontStyle=1;fontSize=40;" parent="1" vertex="1">
          <mxGeometry x="670" y="210" width="30" height="60" as="geometry" />
        </mxCell>
        <mxCell id="7ojNyr7eu1JYMKIjMpsM-17" value="." style="text;html=1;align=center;verticalAlign=middle;resizable=0;points=[];autosize=1;strokeColor=none;fillColor=none;fontStyle=1;fontSize=40;" parent="1" vertex="1">
          <mxGeometry x="670" y="250.25" width="30" height="60" as="geometry" />
        </mxCell>
        <mxCell id="7ojNyr7eu1JYMKIjMpsM-19" value="." style="text;html=1;align=center;verticalAlign=middle;resizable=0;points=[];autosize=1;strokeColor=none;fillColor=none;fontStyle=1;fontSize=40;" parent="1" vertex="1">
          <mxGeometry x="670" y="329.75" width="30" height="60" as="geometry" />
        </mxCell>
        <mxCell id="7ojNyr7eu1JYMKIjMpsM-20" value="." style="text;html=1;align=center;verticalAlign=middle;resizable=0;points=[];autosize=1;strokeColor=none;fillColor=none;fontStyle=1;fontSize=40;" parent="1" vertex="1">
          <mxGeometry x="670" y="370" width="30" height="60" as="geometry" />
        </mxCell>
        <mxCell id="7ojNyr7eu1JYMKIjMpsM-21" value="." style="text;html=1;align=center;verticalAlign=middle;resizable=0;points=[];autosize=1;strokeColor=none;fillColor=none;fontStyle=1;fontSize=40;" parent="1" vertex="1">
          <mxGeometry x="670" y="405" width="30" height="60" as="geometry" />
        </mxCell>
        <mxCell id="7ojNyr7eu1JYMKIjMpsM-23" value="$$z_{i}$$" style="text;html=1;strokeColor=none;fillColor=none;align=center;verticalAlign=middle;whiteSpace=wrap;rounded=0;fontSize=35;fontStyle=1" parent="1" vertex="1">
          <mxGeometry x="655" y="310.25" width="60" height="30" as="geometry" />
        </mxCell>
        <mxCell id="7ojNyr7eu1JYMKIjMpsM-24" value="$$z_{n}$$" style="text;html=1;strokeColor=none;fillColor=none;align=center;verticalAlign=middle;whiteSpace=wrap;rounded=0;fontSize=35;fontStyle=1" parent="1" vertex="1">
          <mxGeometry x="655" y="465" width="60" height="30" as="geometry" />
        </mxCell>
      </root>
    </mxGraphModel>
  </diagram>
</mxfile>
